<?xml version="1.0" encoding="UTF-8" standalone="no"?>
<svg
   xmlns:dc="http://purl.org/dc/elements/1.1/"
   xmlns:cc="http://creativecommons.org/ns#"
   xmlns:rdf="http://www.w3.org/1999/02/22-rdf-syntax-ns#"
   xmlns:svg="http://www.w3.org/2000/svg"
   xmlns="http://www.w3.org/2000/svg"
   xmlns:sodipodi="http://sodipodi.sourceforge.net/DTD/sodipodi-0.dtd"
   xmlns:inkscape="http://www.inkscape.org/namespaces/inkscape"
   width="25mm"
   height="25mm"
   viewBox="0 0 25 25"
   version="1.1"
   id="svg6047"
   inkscape:version="0.92.4 (5da689c313, 2019-01-14)"
   sodipodi:docname="Interested_4.svg">
  <defs
     id="defs6041" />
  <sodipodi:namedview
     id="base"
     pagecolor="#ffffff"
     bordercolor="#666666"
     borderopacity="1.0"
     inkscape:pageopacity="0.0"
     inkscape:pageshadow="2"
     inkscape:zoom="6.4653033"
     inkscape:cx="112.78696"
     inkscape:cy="78.62277"
     inkscape:document-units="mm"
     inkscape:current-layer="layer2"
     showgrid="false"
     showborder="true"
     inkscape:window-width="2400"
     inkscape:window-height="1271"
     inkscape:window-x="2391"
     inkscape:window-y="-9"
     inkscape:window-maximized="1"
     inkscape:document-rotation="0" />
  <metadata
     id="metadata6044">
    <rdf:RDF>
      <cc:Work
         rdf:about="">
        <dc:format>image/svg+xml</dc:format>
        <dc:type
           rdf:resource="http://purl.org/dc/dcmitype/StillImage" />
        <dc:title></dc:title>
      </cc:Work>
    </rdf:RDF>
  </metadata>
  <g
     inkscape:label="Snail Icon"
     inkscape:groupmode="layer"
     id="layer1"
     style="display:none"
     transform="translate(0,-272)">
    <path
       style="fill:#000000;stroke-width:1"
       d=""
       id="path6144"
       inkscape:connector-curvature="0" />
    <path
       style="fill:#000000;stroke-width:1"
       d=""
       id="path6127"
       inkscape:connector-curvature="0" />
    <path
       id="path7369"
       style="opacity:1;fill:#736ced;fill-opacity:1;stroke:#ff6ced;stroke-width:0;stroke-linejoin:round;stroke-miterlimit:4;stroke-dasharray:none;stroke-opacity:1"
       d="m 126.51596,170.50993 c 0,-0.6984 0.003,-0.98412 0.007,-0.63491 0.004,0.3492 0.004,0.92062 0,1.26982 -0.004,0.34921 -0.007,0.0635 -0.007,-0.63491 z m 6.74459,-3.12829 c -0.0844,-0.0478 -0.2005,-0.17047 -0.2581,-0.27268 -0.30982,-0.54968 0.39949,-1.15738 0.9693,-0.83044 0.40599,0.23295 0.44316,0.76654 0.0738,1.0591 -0.1793,0.14201 -0.57295,0.16408 -0.78497,0.044 z m -6.12059,0.007 c -0.18414,-0.0848 -0.38508,-0.36689 -0.38508,-0.54056 0,-0.1682 0.19879,-0.46645 0.37973,-0.56973 0.45016,-0.25694 1.0143,0.059 1.01451,0.56812 1.9e-4,0.47978 -0.52825,0.76368 -1.00916,0.54217 z m -15.69889,22.17512 c -0.24863,-0.097 -0.49093,-0.33543 -0.53201,-0.52347 -0.0772,-0.35338 0.13364,-1.25796 0.46056,-1.97612 0.49467,-1.08667 1.29102,-1.99081 2.34816,-2.66597 l 0.33697,-0.21522 -0.21717,-0.28833 c -0.47072,-0.62499 -0.80667,-1.33984 -1.05707,-2.24932 -0.12897,-0.46844 -0.13509,-0.53665 -0.1346,-1.50245 3.8e-4,-0.77813 0.02,-1.10708 0.0848,-1.42468 0.43042,-2.10863 1.41931,-3.71606 3.12144,-5.07386 0.72846,-0.58109 1.71391,-1.12368 2.57013,-1.41509 0.99499,-0.33865 2.53529,-0.584 3.38039,-0.53846 0.61771,0.0333 1.5465,0.17389 2.13537,0.32325 0.70154,0.17793 1.22307,0.378 1.89082,0.72534 0.32367,0.16837 0.61035,0.29452 0.63706,0.28034 0.0315,-0.0168 0.0486,-0.68346 0.0486,-1.90279 v -1.87701 l -0.27646,-0.15119 c -0.448,-0.245 -0.63721,-0.39071 -0.8407,-0.64737 -0.40833,-0.51505 -0.58433,-0.9894 -0.58433,-1.57489 0,-0.44239 0.0709,-0.72069 0.28766,-1.12834 0.23178,-0.43601 0.4675,-0.68874 0.89815,-0.96299 0.66297,-0.4222 1.45255,-0.54065 2.22746,-0.33416 0.41979,0.11186 0.97841,0.45 1.25841,0.76171 0.4956,0.55174 0.74665,1.31119 0.64633,1.95518 -0.12427,0.7977 -0.64329,1.54109 -1.30095,1.86335 -0.39828,0.19516 -0.38077,0.15846 -0.3665,0.76819 0.0101,0.43324 0.0334,0.59272 0.11272,0.77298 0.13615,0.30935 0.46666,0.62431 0.7846,0.7477 0.24,0.0931 0.30763,0.0989 1.16827,0.0989 0.86108,0 0.92649,-0.005 1.1397,-0.0966 0.29023,-0.12393 0.58983,-0.40406 0.75019,-0.70145 0.11346,-0.21044 0.12828,-0.29402 0.14516,-0.81897 l 0.0188,-0.58462 -0.34044,-0.19264 c -0.44606,-0.2524 -0.71996,-0.52029 -0.96328,-0.94216 -0.4596,-0.79687 -0.45183,-1.69033 0.0214,-2.46387 0.21389,-0.3496 0.42617,-0.56582 0.79447,-0.80923 0.38033,-0.25136 0.7186,-0.37835 1.157,-0.43435 1.25067,-0.15977 2.40427,0.51409 2.8842,1.68477 0.14312,0.3491 0.17427,0.9834 0.0684,1.39226 -0.17508,0.67593 -0.70258,1.31746 -1.34842,1.6399 l -0.28848,0.14403 0.001,0.84368 c 0.001,0.90221 0.0463,1.18488 0.29316,1.84282 0.15941,0.42493 0.56211,1.14033 0.90202,1.60246 0.34644,0.47099 0.46643,0.79031 0.49658,1.32145 0.0524,0.92286 -0.41432,1.72629 -1.28506,2.2122 -0.23531,0.13132 -0.39396,0.24907 -0.40724,0.30226 -0.012,0.0479 -0.0307,0.91407 -0.0416,1.92477 -0.0207,1.91225 -0.0348,2.07347 -0.27097,3.09714 -0.18845,0.81672 -0.44764,1.43037 -1.01518,2.40341 -1.03634,1.77683 -2.59967,3.13199 -4.61082,3.99686 -1.12547,0.48401 -2.09564,0.72306 -3.34844,0.8251 -0.32917,0.0269 -2.94614,0.0422 -7.08486,0.0417 -6.24408,-6.2e-4 -6.57224,-0.004 -6.75561,-0.0761 z m 14.29623,-0.54121 c 1.09825,-0.13877 1.86382,-0.34997 2.79236,-0.77033 0.9552,-0.43244 1.58566,-0.83267 2.36269,-1.49993 1.3192,-1.13283 2.31021,-2.66439 2.78032,-4.29686 0.26183,-0.90922 0.29787,-1.28208 0.32726,-3.38621 0.0209,-1.49619 0.0412,-1.94443 0.0919,-2.02983 0.0731,-0.12319 0.19501,-0.21038 0.63824,-0.45654 0.69548,-0.38623 1.09885,-1.18158 0.96791,-1.90845 -0.0583,-0.32349 -0.19771,-0.61373 -0.47791,-0.99479 -0.52689,-0.71655 -0.98154,-1.69675 -1.13319,-2.44308 -0.0407,-0.20042 -0.0877,-0.6989 -0.1043,-1.10772 l -0.0303,-0.74332 -0.42545,-0.005 -0.42544,-0.005 -7.9e-4,0.41765 c -9.4e-4,0.4687 -0.0903,0.89615 -0.24462,1.16992 -0.15442,0.27398 -0.57426,0.63964 -0.91846,0.79994 l -0.30252,0.14089 -1.03523,0.0131 c -0.95599,0.0121 -1.05591,0.006 -1.30548,-0.0737 -0.3582,-0.11511 -0.67367,-0.32763 -0.92964,-0.62627 -0.33971,-0.39636 -0.41993,-0.6265 -0.44479,-1.27612 l -0.0214,-0.55896 h -0.42754 -0.42755 v 2.04803 2.04803 l 0.37701,0.29381 c 1.1767,0.91701 2.20212,2.40703 2.69319,3.91342 0.24378,0.74781 0.30956,1.12981 0.24621,1.42986 -0.10912,0.51684 -0.45663,0.92831 -0.97014,1.14871 l -0.2942,0.12626 h -1.31105 -1.31105 l -0.0281,0.23745 c -0.10647,0.89957 -0.27555,1.50773 -0.62637,2.25286 -0.77519,1.64655 -2.37393,2.98404 -4.17595,3.49357 -1.02606,0.29013 -1.18739,0.3138 -2.12402,0.31171 -0.73911,-0.002 -0.92509,-0.0155 -1.27411,-0.0947 -1.49741,-0.34001 -2.48903,-0.81513 -3.43431,-1.64549 l -0.3932,-0.34543 -0.28588,0.16059 c -0.6939,0.38977 -1.50535,1.17964 -1.91604,1.86506 -0.55651,0.92878 -0.90533,2.17905 -0.67021,2.40219 0.0764,0.0725 0.35074,0.0755 6.8153,0.0753 6.44164,-1.7e-4 6.76372,-0.003 7.3769,-0.0812 z m -5.27514,-2.91131 c 0.42153,-0.0636 1.17399,-0.26869 1.63509,-0.44574 0.6379,-0.24495 1.53501,-0.84234 2.03729,-1.35664 0.69499,-0.71165 1.10588,-1.34872 1.3911,-2.15692 0.59929,-1.69813 0.43994,-3.10481 -0.4884,-4.31125 -0.87305,-1.1346 -2.55502,-1.81701 -4.00385,-1.62445 -1.43894,0.19125 -2.62282,0.96532 -3.33469,2.18035 -0.49549,0.84572 -0.6347,2.05344 -0.32562,2.82503 0.35981,0.89821 1.20355,1.61837 2.14601,1.83165 0.36633,0.0829 1.07065,0.084 1.43163,0.003 0.95281,-0.21572 1.79454,-0.91001 2.11597,-1.74533 0.47714,-1.23995 0.17608,-2.2673 -0.75181,-2.56548 -0.34754,-0.11168 -0.58046,-0.11176 -0.9272,-3.3e-4 -0.54626,0.17554 -0.90919,0.60191 -0.9793,1.15047 -0.0429,0.33598 -0.14315,0.49576 -0.31092,0.49576 -0.35193,0 -0.36234,-0.65361 -0.0202,-1.2693 0.28142,-0.50646 0.82045,-0.85716 1.47388,-0.95891 0.92329,-0.14378 1.8742,0.39754 2.1798,1.24088 0.13072,0.36072 0.12747,1.24688 -0.006,1.72624 -0.20363,0.72958 -0.69909,1.424 -1.31964,1.84953 -0.44605,0.30588 -1.08083,0.56957 -1.52661,0.63415 -0.51708,0.0749 -1.28087,0.0319 -1.68189,-0.0947 -1.17909,-0.37222 -2.05509,-1.20417 -2.40217,-2.28135 -0.09,-0.27918 -0.10649,-0.43594 -0.10673,-1.01173 -1.9e-4,-0.59585 0.016,-0.74098 0.12945,-1.15624 0.346,-1.26641 1.36572,-2.40145 2.6538,-2.95392 0.76145,-0.32659 1.27215,-0.43208 2.09243,-0.43221 0.68784,-1.3e-4 1.00649,0.051 1.6828,0.27001 1.01846,0.32978 2.05568,1.16084 2.59178,2.07663 0.21695,0.37061 0.47348,1.05264 0.53997,1.43564 0.0312,0.17957 0.0773,0.34971 0.10258,0.37811 0.0584,0.0657 2.12653,0.0727 2.47554,0.008 0.42871,-0.079 0.8045,-0.45141 0.85841,-0.85075 0.0563,-0.41718 -0.37554,-1.7077 -0.86856,-2.5955 -0.48424,-0.872 -1.23823,-1.74161 -2.05445,-2.36949 -0.60595,-0.46614 -1.32771,-0.88885 -1.95633,-1.14578 -1.02219,-0.41778 -2.31163,-0.67635 -3.37145,-0.67608 -1.14053,3.3e-4 -2.50171,0.28558 -3.57299,0.74886 -0.86457,0.37389 -1.96328,1.14074 -2.65503,1.85308 -0.63598,0.6549 -1.33171,1.72415 -1.65217,2.53919 -0.33909,0.8624 -0.57561,2.31997 -0.51265,3.15909 0.1448,1.92952 1.10168,3.51388 2.79847,4.63358 0.6345,0.4187 1.73675,0.83158 2.56351,0.96024 0.48718,0.0758 1.43631,0.0772 1.92949,0.003 z m 7.5202,-17.30597 c 1.08481,-0.24269 1.80594,-1.34569 1.55648,-2.38071 -0.12872,-0.53409 -0.62158,-1.14451 -1.08929,-1.34912 -0.62382,-0.27289 -1.31896,-0.2747 -1.93549,-0.005 -0.64132,0.28053 -1.15349,1.078 -1.15349,1.79603 0,1.28607 1.2866,2.23752 2.62179,1.93882 z m 6.10468,0.008 c 1.45816,-0.33373 2.10374,-1.9556 1.23584,-3.1048 -0.24262,-0.32126 -0.52457,-0.53474 -0.91739,-0.6946 -0.29091,-0.11838 -0.36003,-0.12959 -0.79925,-0.12959 -0.44122,0 -0.50754,0.0109 -0.80574,0.13221 -0.5948,0.24199 -1.01891,0.68477 -1.21518,1.26866 -0.0629,0.18705 -0.077,0.34736 -0.0601,0.68137 0.0191,0.37699 0.0442,0.48199 0.18312,0.76713 0.40359,0.82815 1.43401,1.29583 2.3787,1.07962 z"
       inkscape:connector-curvature="0" />
    <path
       style="opacity:1;fill:#736ced;fill-opacity:1;stroke:#ff6ced;stroke-width:0;stroke-linejoin:round;stroke-miterlimit:4;stroke-dasharray:none;stroke-opacity:1"
       d=""
       id="path7371"
       inkscape:connector-curvature="0"
       transform="scale(0.26458333)" />
    <path
       style="opacity:1;fill:#736ced;fill-opacity:1;stroke:#ff6ced;stroke-width:0;stroke-linejoin:round;stroke-miterlimit:4;stroke-dasharray:none;stroke-opacity:1"
       d=""
       id="path7373"
       inkscape:connector-curvature="0"
       transform="scale(0.26458333)" />
  </g>
  <g
     inkscape:groupmode="layer"
     id="layer2"
     inkscape:label="Interested 1"
     style="display:none"
     transform="translate(0,-272)">
    <path
       style="display:inline;fill:#f2dfd7;fill-opacity:1;stroke:#736ced;stroke-width:1.49178004;stroke-linejoin:round;stroke-miterlimit:4;stroke-dasharray:none;stroke-opacity:1"
       id="path6909-5-2-5-5-9-1"
       sodipodi:type="arc"
       sodipodi:cx="34.870567"
       sodipodi:cy="161.61592"
       sodipodi:rx="16.071892"
       sodipodi:ry="14.743004"
       sodipodi:start="4.79068e-05"
       sodipodi:end="0"
       sodipodi:open="true"
       sodipodi:arc-type="arc"
       d="M 50.942459,161.61663 A 16.071892,14.743004 0 0 1 34.86999,176.35892 16.071892,14.743004 0 0 1 18.798676,161.61557 16.071892,14.743004 0 0 1 34.87076,146.87292 a 16.071892,14.743004 0 0 1 16.071699,14.743" />
    <path
       style="display:inline;fill:#726beb;stroke-width:1.67603004;stroke-miterlimit:4;stroke-dasharray:none"
       d="m 34.168128,176.43219 c -4.288688,-0.18582 -8.254678,-1.921 -11.191927,-4.89665 -1.186259,-1.20177 -1.962149,-2.25551 -2.695222,-3.6604 -1.678251,-3.21626 -2.012518,-7.1223 -0.90646,-10.59237 0.707964,-2.22112 1.854893,-4.08573 3.601682,-5.85535 2.749352,-2.7853 6.329128,-4.45309 10.412994,-4.85134 1.241538,-0.12104 3.141314,-0.0629 4.413955,0.13497 3.604701,0.56068 6.832184,2.19351 9.322486,4.71637 2.006025,2.03225 3.26186,4.25837 3.889131,6.89394 0.558452,2.34644 0.453456,5.03437 -0.287447,7.35884 -0.707966,2.22113 -1.854894,4.08571 -3.601684,5.85534 -3.348406,3.39219 -7.908375,5.1154 -12.957508,4.89665 z m 3.167662,-0.85631 c 3.736463,-0.53629 6.976854,-2.15421 9.426517,-4.70667 1.111413,-1.15803 1.864496,-2.23457 2.546873,-3.64074 0.9075,-1.87007 1.320403,-3.66721 1.320403,-5.747 0,-2.07977 -0.412903,-3.8769 -1.320403,-5.747 -0.682377,-1.40616 -1.43546,-2.48269 -2.546873,-3.64073 -2.463566,-2.56693 -5.688704,-4.17098 -9.478447,-4.71418 -0.926485,-0.13286 -3.539397,-0.13286 -4.465882,0 -3.789745,0.5432 -7.014881,2.14725 -9.478448,4.71418 -1.111413,1.15804 -1.864494,2.23457 -2.546872,3.64073 -0.907501,1.8701 -1.320403,3.66723 -1.320403,5.747 0,2.07979 0.412902,3.87693 1.320403,5.747 1.399052,2.88302 3.704346,5.18522 6.72938,6.72032 1.873536,0.95077 3.709079,1.46896 6.100836,1.72235 0.514462,0.0545 3.13858,-0.0133 3.712916,-0.0952 z m -3.794161,-3.95577 c -0.285011,-0.11626 -0.574207,-0.32379 -0.536668,-0.38516 0.01491,-0.0243 0.103229,0.0144 0.196259,0.0861 0.266553,0.20548 0.590498,0.30213 1.018837,0.30399 0.614355,0.002 1.195729,-0.21944 1.822001,-0.69603 0.380355,-0.28944 0.491316,-0.2948 0.170474,-0.008 -0.287066,0.25639 -0.711621,0.50911 -1.087242,0.64719 -0.434952,0.15988 -1.253442,0.18687 -1.583661,0.0522 z m 0.314925,-0.95694 c -0.71409,-0.14774 -1.349313,-0.74125 -1.766227,-1.65024 -0.244315,-0.53268 -0.347955,-0.92206 -0.412034,-1.54806 -0.175784,-1.71723 0.526205,-3.42704 1.657164,-4.03628 1.541985,-0.83064 3.182508,0.59615 3.430849,2.98386 0.158598,1.52487 -0.400314,3.12151 -1.348521,3.85238 -0.454074,0.34997 -1.054501,0.50317 -1.561231,0.39834 z m -7.032161,-7.75432 c -0.281601,-1.34793 -0.537953,-2.47717 -0.569675,-2.50938 -0.03172,-0.0322 -1.056707,-0.31362 -2.27775,-0.62532 -1.221042,-0.31171 -2.214182,-0.57198 -2.206977,-0.57839 0.0072,-0.007 1.00624,-0.26407 2.220076,-0.57258 1.213839,-0.30849 2.233477,-0.58869 2.265865,-0.62265 0.03239,-0.0338 0.289435,-1.16385 0.571218,-2.51091 0.281782,-1.34705 0.515695,-2.44528 0.51981,-2.4405 0.0041,0.004 0.232232,1.08329 0.506928,2.3967 0.274696,1.31342 0.51957,2.43569 0.544166,2.49397 0.03779,0.0895 0.391732,0.19444 2.284815,0.67734 1.232053,0.31427 2.234001,0.5772 2.226549,0.58429 -0.0075,0.007 -1.006688,0.26643 -2.220525,0.5763 -1.213838,0.30987 -2.232586,0.58971 -2.263887,0.62186 -0.0313,0.0322 -0.285657,1.1567 -0.56524,2.49895 -0.279582,1.3423 -0.511715,2.44517 -0.515853,2.45083 -0.0041,0.006 -0.237921,-1.09256 -0.51952,-2.44051 z m 13.813081,0 c -0.2816,-1.34793 -0.537953,-2.47717 -0.569673,-2.50938 -0.03172,-0.0322 -1.056709,-0.31362 -2.27775,-0.62532 -1.221044,-0.31171 -2.214184,-0.57198 -2.206979,-0.57839 0.0072,-0.007 1.006239,-0.26407 2.220078,-0.57258 1.213837,-0.30849 2.233476,-0.58869 2.265863,-0.62265 0.03239,-0.0338 0.289437,-1.16385 0.571218,-2.51091 0.281782,-1.34705 0.515697,-2.44528 0.51981,-2.4405 0.0041,0.004 0.232233,1.08329 0.506928,2.3967 0.274696,1.31342 0.519571,2.43569 0.544166,2.49397 0.03778,0.0895 0.391733,0.19444 2.284814,0.67734 1.232052,0.31427 2.234001,0.5772 2.22655,0.58429 -0.0075,0.007 -1.006687,0.26643 -2.220524,0.5763 -1.213837,0.30987 -2.232587,0.58971 -2.263887,0.62186 -0.0313,0.0322 -0.285658,1.1567 -0.565239,2.49895 -0.279583,1.3423 -0.511717,2.44517 -0.515852,2.45083 -0.0041,0.006 -0.237923,-1.09256 -0.519523,-2.44051 z"
       id="path6733-8-9-6"
       inkscape:connector-curvature="0" />
  </g>
  <g
     inkscape:groupmode="layer"
     id="layer3"
     inkscape:label="Interested 2"
     style="display:none"
     transform="translate(0,-272)">
    <ellipse
       style="opacity:1;fill:none;fill-opacity:1;stroke:#736ced;stroke-width:1.26499999;stroke-linejoin:round;stroke-miterlimit:4;stroke-dasharray:none;stroke-opacity:1"
       id="path6845"
       cx="45.263248"
       cy="12.339643"
       rx="11.762362"
       ry="11.008199" />
    <ellipse
       style="opacity:1;fill:#766ced;fill-opacity:1;stroke:#736ced;stroke-width:1.26499999;stroke-linejoin:round;stroke-miterlimit:4;stroke-dasharray:none;stroke-opacity:1"
       id="path6849"
       cx="41.916771"
       cy="9.471467"
       rx="1.2590696"
       ry="3.4366715" />
    <ellipse
       style="opacity:1;fill:#766ced;fill-opacity:1;stroke:#736ced;stroke-width:1.26499999;stroke-linejoin:round;stroke-miterlimit:4;stroke-dasharray:none;stroke-opacity:1"
       id="path6849-7"
       cx="48.112717"
       cy="9.5363102"
       rx="1.1596694"
       ry="3.4366715" />
    <path
       style="opacity:1;fill:#766ced;fill-opacity:1;stroke:#736ced;stroke-width:1.26499999;stroke-linejoin:round;stroke-miterlimit:4;stroke-dasharray:none;stroke-opacity:1"
       id="path6868"
       sodipodi:type="arc"
       sodipodi:cx="44.898777"
       sodipodi:cy="15.204288"
       sodipodi:rx="4.9904609"
       sodipodi:ry="5.2668943"
       sodipodi:start="0"
       sodipodi:end="3.1415927"
       sodipodi:open="true"
       d="m 49.889238,15.204288 a 4.9904609,5.2668943 0 0 1 -2.495231,4.561264 4.9904609,5.2668943 0 0 1 -4.990461,0 4.9904609,5.2668943 0 0 1 -2.49523,-4.561265"
       sodipodi:arc-type="arc" />
  </g>
  <g
     inkscape:groupmode="layer"
     id="layer4"
     inkscape:label="Interested 3"
     style="display:none"
     transform="translate(0,-272)">
    <ellipse
       style="opacity:1;fill:#f2dfd7;fill-opacity:1;stroke:#736ced;stroke-width:1.26499999;stroke-linejoin:round;stroke-miterlimit:4;stroke-dasharray:none;stroke-opacity:1"
       id="path6845-3"
       cx="16.004976"
       cy="38.274143"
       rx="11.895995"
       ry="11.30888" />
    <ellipse
       style="opacity:1;fill:#736ced;fill-opacity:1;stroke:#736ced;stroke-width:1.26499999;stroke-linejoin:round;stroke-miterlimit:4;stroke-dasharray:none;stroke-opacity:1"
       id="path6849-7-5"
       cx="18.886818"
       cy="35.202171"
       rx="1.1728446"
       ry="3.5783315" />
    <path
       style="opacity:1;fill:#736ced;fill-opacity:1;stroke:#736ced;stroke-width:1.26499999;stroke-linejoin:round;stroke-miterlimit:4;stroke-dasharray:none;stroke-opacity:1"
       id="path6868-0"
       sodipodi:type="arc"
       sodipodi:cx="15.837421"
       sodipodi:cy="40.968754"
       sodipodi:rx="5.0471587"
       sodipodi:ry="5.4839969"
       sodipodi:start="0"
       sodipodi:end="3.1415927"
       sodipodi:open="true"
       d="m 20.88458,40.968754 a 5.0471587,5.4839969 0 0 1 -2.523579,4.74928 5.0471587,5.4839969 0 0 1 -5.047159,0 5.0471587,5.4839969 0 0 1 -2.523579,-4.74928"
       sodipodi:arc-type="arc" />
    <ellipse
       style="opacity:1;fill:#736ced;fill-opacity:1;stroke:#736ced;stroke-width:1.26499999;stroke-linejoin:round;stroke-miterlimit:4;stroke-dasharray:none;stroke-opacity:1"
       id="path6849-7-5-6"
       cx="13.056111"
       cy="35.033386"
       rx="1.1728446"
       ry="3.5783315" />
  </g>
  <g
     inkscape:groupmode="layer"
     id="layer5"
     inkscape:label="Interested 4"
     style="display:inline"
     transform="translate(0,-272)">
    <ellipse
       style="display:inline;opacity:1;fill:#736ced;fill-opacity:1;stroke:#736ced;stroke-width:1.26499999;stroke-linejoin:round;stroke-miterlimit:4;stroke-dasharray:none;stroke-opacity:1"
       id="path6845-7"
       cx="12.5"
       cy="284.5"
       rx="11.8675"
       ry="11.867499" />
    <ellipse
       style="display:inline;opacity:1;fill:#ffffff;fill-opacity:1;stroke:#736ced;stroke-width:0;stroke-linejoin:round;stroke-miterlimit:4;stroke-dasharray:none;stroke-opacity:1"
       id="path6849-9"
       cx="9.5622826"
       cy="280.90359"
       rx="1.9283268"
       ry="4.3213468" />
    <ellipse
       style="display:inline;opacity:1;fill:#ffffff;fill-opacity:1;stroke:#ff6ced;stroke-width:0;stroke-linejoin:round;stroke-miterlimit:4;stroke-dasharray:none;stroke-opacity:1"
       id="path6849-7-3"
       cx="15.155602"
       cy="280.86142"
       rx="1.8280382"
       ry="4.3213468" />
    <path
       style="display:inline;opacity:1;fill:#ffffff;fill-opacity:1;stroke:#736ced;stroke-width:0;stroke-linejoin:round;stroke-miterlimit:4;stroke-dasharray:none;stroke-opacity:1"
       id="path6868-05"
       sodipodi:type="arc"
       sodipodi:cx="12.351604"
       sodipodi:cy="286.9158"
       sodipodi:rx="5.5834055"
       sodipodi:ry="7.0229201"
       sodipodi:start="0"
       sodipodi:end="3.1415927"
       sodipodi:open="true"
       d="m 17.93501,286.9158 a 5.5834055,7.0229201 0 0 1 -2.791703,6.08203 5.5834055,7.0229201 0 0 1 -5.5834054,0 5.5834055,7.0229201 0 0 1 -2.7917026,-6.08203"
       sodipodi:arc-type="arc" />
  </g>
  <g
     inkscape:groupmode="layer"
     id="layer6"
     inkscape:label="Confused 1"
     style="display:none"
     transform="translate(0,-272)">
    <path
       style="display:inline;opacity:1;fill:#ffffff;fill-opacity:1;stroke:#736ced;stroke-width:1.26499999;stroke-linejoin:round;stroke-miterlimit:4;stroke-dasharray:none;stroke-opacity:1"
       id="path6909-5"
       sodipodi:type="arc"
       sodipodi:cx="81.689285"
       sodipodi:cy="13.443038"
       sodipodi:rx="11.583739"
       sodipodi:ry="10.485593"
       sodipodi:start="4.79068e-05"
       sodipodi:end="0"
       sodipodi:open="true"
       d="M 93.273025,13.44354 A 11.583739,10.485593 0 0 1 81.688869,23.928631 11.583739,10.485593 0 0 1 70.105546,13.442787 11.583739,10.485593 0 0 1 81.689424,2.9574451 11.583739,10.485593 0 0 1 93.273025,13.443038"
       sodipodi:arc-type="arc" />
    <rect
       style="display:inline;opacity:1;fill:#736ced;fill-opacity:1;stroke:#736ced;stroke-width:1.26705003;stroke-linejoin:round;stroke-miterlimit:4;stroke-dasharray:none;stroke-opacity:1"
       id="rect6911-75"
       width="2.2407162"
       height="8.4709005"
       x="66.596802"
       y="-36.379436"
       rx="2.5737834"
       ry="3.8258843"
       transform="matrix(0.83402995,0.55171917,-0.61694171,0.78700884,0,0)" />
    <rect
       style="display:inline;opacity:1;fill:#736ced;fill-opacity:1;stroke:#736ced;stroke-width:1.26612997;stroke-linejoin:round;stroke-miterlimit:4;stroke-dasharray:none;stroke-opacity:1"
       id="rect6911-7-8"
       width="2.2371364"
       height="8.6878376"
       x="42.587524"
       y="56.833172"
       rx="2.5703995"
       ry="3.8226526"
       transform="matrix(0.72770767,-0.68588742,0.72808679,0.68548496,0,0)" />
    <rect
       style="display:inline;opacity:1;fill:#736ced;fill-opacity:1;stroke:#736ced;stroke-width:1.26602006;stroke-linejoin:round;stroke-miterlimit:4;stroke-dasharray:none;stroke-opacity:1"
       id="rect6911-9-7"
       width="2.2582352"
       height="8.6051273"
       x="-62.715935"
       y="54.173138"
       rx="2.5744362"
       ry="3.8270612"
       transform="matrix(-0.8275597,0.5613777,0.60731834,0.79445858,0,0)" />
    <rect
       style="display:inline;opacity:1;fill:#736ced;fill-opacity:1;stroke:#736ced;stroke-width:1.26612997;stroke-linejoin:round;stroke-miterlimit:4;stroke-dasharray:none;stroke-opacity:1"
       id="rect6911-7-9-5"
       width="2.2371364"
       height="8.6878376"
       x="-69.133018"
       y="-55.089405"
       rx="2.5703995"
       ry="3.8226526"
       transform="matrix(-0.72770767,-0.68588742,-0.72808679,0.68548496,0,0)" />
    <rect
       style="display:inline;opacity:1;fill:#736ced;fill-opacity:1;stroke:#736ced;stroke-width:1.26499999;stroke-linejoin:round;stroke-miterlimit:4;stroke-dasharray:none;stroke-opacity:1"
       id="rect6946-6"
       width="3.2581801"
       height="1.7147418"
       x="79.803596"
       y="17.432587"
       rx="2.6058788"
       ry="3.8754056" />
  </g>
  <g
     inkscape:groupmode="layer"
     id="layer7"
     inkscape:label="Confused 2"
     style="display:none"
     transform="translate(0,-272)">
    <path
       style="display:inline;opacity:1;fill:#f2dfd7;fill-opacity:1;stroke:#736ced;stroke-width:1.26499999;stroke-linejoin:round;stroke-miterlimit:4;stroke-dasharray:none;stroke-opacity:1"
       id="path6909"
       sodipodi:type="arc"
       sodipodi:cx="82.047058"
       sodipodi:cy="38.41217"
       sodipodi:rx="11.583739"
       sodipodi:ry="10.547683"
       sodipodi:start="4.79068e-05"
       sodipodi:end="0"
       sodipodi:open="true"
       d="M 93.630797,38.412676 A 11.583739,10.547683 0 0 1 82.046642,48.959853 11.583739,10.547683 0 0 1 70.463319,38.411918 11.583739,10.547683 0 0 1 82.047197,27.864488 11.583739,10.547683 0 0 1 93.630797,38.41217"
       sodipodi:arc-type="arc" />
    <rect
       style="display:inline;opacity:1;fill:#736ced;fill-opacity:1;stroke:#736ced;stroke-width:1.26602006;stroke-linejoin:round;stroke-miterlimit:4;stroke-dasharray:none;stroke-opacity:1"
       id="rect6911"
       width="2.258235"
       height="8.6051273"
       x="82.388962"
       y="-16.735401"
       rx="2.5744359"
       ry="3.8270612"
       transform="matrix(0.8275597,0.5613777,-0.60731834,0.79445858,0,0)" />
    <rect
       style="display:inline;opacity:1;fill:#736ced;fill-opacity:1;stroke:#736ced;stroke-width:1.26612997;stroke-linejoin:round;stroke-miterlimit:4;stroke-dasharray:none;stroke-opacity:1"
       id="rect6911-7"
       width="2.2371364"
       height="8.6878376"
       x="24.489134"
       y="75.330811"
       rx="2.5703995"
       ry="3.8226526"
       transform="matrix(0.72770767,-0.68588742,0.72808679,0.68548496,0,0)" />
    <rect
       style="display:inline;opacity:1;fill:#736ced;fill-opacity:1;stroke:#736ced;stroke-width:1.26602006;stroke-linejoin:round;stroke-miterlimit:4;stroke-dasharray:none;stroke-opacity:1"
       id="rect6911-9"
       width="2.258235"
       height="8.6051273"
       x="-47.774303"
       y="75.122414"
       rx="2.5744359"
       ry="3.8270612"
       transform="matrix(-0.8275597,0.5613777,0.60731834,0.79445858,0,0)" />
    <rect
       style="display:inline;opacity:1;fill:#736ced;fill-opacity:1;stroke:#736ced;stroke-width:1.26612997;stroke-linejoin:round;stroke-miterlimit:4;stroke-dasharray:none;stroke-opacity:1"
       id="rect6911-7-9"
       width="2.2371364"
       height="8.6878376"
       x="-87.636131"
       y="-37.087315"
       rx="2.5703995"
       ry="3.8226526"
       transform="matrix(-0.72770767,-0.68588742,-0.72808679,0.68548496,0,0)" />
    <rect
       style="display:inline;opacity:1;fill:#736ced;fill-opacity:1;stroke:#736ced;stroke-width:1.26499999;stroke-linejoin:round;stroke-miterlimit:4;stroke-dasharray:none;stroke-opacity:1"
       id="rect6946"
       width="3.2581801"
       height="1.7147418"
       x="80.161369"
       y="42.46381"
       rx="2.6058786"
       ry="3.8754056" />
  </g>
  <g
     inkscape:groupmode="layer"
     id="layer8"
     inkscape:label="Confused 3"
     style="display:none"
     transform="translate(0,-272)">
    <path
       style="display:inline;opacity:1;fill:#736ced;fill-opacity:1;stroke:#736ced;stroke-width:1.26499999;stroke-linejoin:round;stroke-miterlimit:4;stroke-dasharray:none;stroke-opacity:1"
       id="path6909-5-7"
       sodipodi:type="arc"
       sodipodi:cx="106.82462"
       sodipodi:cy="24.542578"
       sodipodi:rx="11.583739"
       sodipodi:ry="10.485593"
       sodipodi:start="4.79068e-05"
       sodipodi:end="0"
       sodipodi:open="true"
       d="M 118.40836,24.54308 A 11.583739,10.485593 0 0 1 106.82421,35.028171 11.583739,10.485593 0 0 1 95.240884,24.542327 11.583739,10.485593 0 0 1 106.82476,14.056985 a 11.583739,10.485593 0 0 1 11.5836,10.485593"
       sodipodi:arc-type="arc" />
    <rect
       style="display:inline;opacity:1;fill:#ffffff;fill-opacity:1;stroke:#736ced;stroke-width:0;stroke-linejoin:round;stroke-miterlimit:4;stroke-dasharray:none;stroke-opacity:1"
       id="rect6911-75-1"
       width="2.6475272"
       height="10.062339"
       x="93.491081"
       y="-41.882557"
       rx="2.4705293"
       ry="3.6852999"
       transform="matrix(0.82969793,0.55821265,-0.61047328,0.79203685,0,0)" />
    <rect
       style="display:inline;opacity:1;fill:#ffffff;fill-opacity:1;stroke:#736ced;stroke-width:0;stroke-linejoin:round;stroke-miterlimit:4;stroke-dasharray:none;stroke-opacity:1"
       id="rect6911-7-8-7"
       width="2.6507564"
       height="10.294022"
       x="51.664757"
       y="82.017342"
       rx="2.4618347"
       ry="3.6611643"
       transform="matrix(0.72189067,-0.69200712,0.72227353,0.69160752,0,0)" />
    <rect
       style="display:inline;opacity:1;fill:#ffffff;fill-opacity:1;stroke:#736ced;stroke-width:0;stroke-linejoin:round;stroke-miterlimit:4;stroke-dasharray:none;stroke-opacity:1"
       id="rect6911-9-7-6"
       width="2.6687148"
       height="10.223811"
       x="-77.265228"
       y="78.2575"
       rx="2.4699843"
       ry="3.6890404"
       transform="matrix(-0.82311068,0.56788095,0.60083163,0.7993756,0,0)" />
    <rect
       style="display:inline;opacity:1;fill:#ffffff;fill-opacity:1;stroke:#736ced;stroke-width:0;stroke-linejoin:round;stroke-miterlimit:4;stroke-dasharray:none;stroke-opacity:1"
       id="rect6911-7-9-5-8"
       width="2.6507564"
       height="10.294022"
       x="-96.224579"
       y="-66.119095"
       rx="2.4618349"
       ry="3.6611643"
       transform="matrix(-0.72189067,-0.69200712,-0.72227353,0.69160752,0,0)" />
    <rect
       style="display:inline;opacity:1;fill:#ffffff;fill-opacity:1;stroke:#736ced;stroke-width:0;stroke-linejoin:round;stroke-miterlimit:4;stroke-dasharray:none;stroke-opacity:1"
       id="rect6946-6-8"
       width="4.5810966"
       height="2.6596823"
       x="104.25385"
       y="28.925926"
       rx="2.6058791"
       ry="3.8754056" />
    <text
       xml:space="preserve"
       style="font-style:normal;font-variant:normal;font-weight:bold;font-stretch:normal;font-size:10.58329964px;line-height:1.25;font-family:sans-serif;-inkscape-font-specification:'sans-serif Bold';letter-spacing:0px;word-spacing:0px;display:inline;fill:#000000;fill-opacity:1;stroke:none;stroke-width:0.26458299"
       x="114.69479"
       y="-17.3797"
       id="text7490"
       transform="rotate(17.183111)"><tspan
         sodipodi:role="line"
         id="tspan7488"
         x="114.69479"
         y="-17.3797"
         style="font-style:normal;font-variant:normal;font-weight:bold;font-stretch:normal;font-family:'Kaleko 205 Round';-inkscape-font-specification:'Kaleko 205 Round Bold';fill:#736ced;fill-opacity:1;stroke-width:0.26458299">?</tspan></text>
  </g>
  <g
     inkscape:groupmode="layer"
     id="layer12"
     inkscape:label="Confused 4"
     style="display:none"
     transform="translate(0,-272)">
    <path
       style="display:inline;fill:#f2dfd7;fill-opacity:1;stroke:#736ced;stroke-width:1.26499999;stroke-linejoin:round;stroke-miterlimit:4;stroke-dasharray:none;stroke-opacity:1"
       id="path6909-6"
       sodipodi:type="arc"
       sodipodi:cx="49.672539"
       sodipodi:cy="39.028423"
       sodipodi:rx="11.583739"
       sodipodi:ry="10.547683"
       sodipodi:start="4.79068e-05"
       sodipodi:end="0"
       sodipodi:open="true"
       sodipodi:arc-type="arc"
       d="M 61.256278,39.028929 A 11.583739,10.547683 0 0 1 49.672123,49.576106 11.583739,10.547683 0 0 1 38.088799,39.028171 11.583739,10.547683 0 0 1 49.672677,28.480741 11.583739,10.547683 0 0 1 61.256278,39.028423" />
    <rect
       style="display:inline;fill:#736ced;fill-opacity:1;stroke:#736ced;stroke-width:1.26602006;stroke-linejoin:round;stroke-miterlimit:4;stroke-dasharray:none;stroke-opacity:1"
       id="rect6911-5"
       width="2.258235"
       height="8.6051273"
       x="57.002308"
       y="1.9789199"
       rx="2.5744359"
       ry="3.8270612"
       transform="matrix(0.8275597,0.5613777,-0.60731834,0.79445858,0,0)" />
    <rect
       style="display:inline;fill:#736ced;fill-opacity:1;stroke:#736ced;stroke-width:1.26612997;stroke-linejoin:round;stroke-miterlimit:4;stroke-dasharray:none;stroke-opacity:1"
       id="rect6911-7-95"
       width="2.2371364"
       height="8.6878376"
       x="1.8077897"
       y="53.535156"
       rx="2.5703995"
       ry="3.8226526"
       transform="matrix(0.72770767,-0.68588742,0.72808679,0.68548496,0,0)" />
    <rect
       style="display:inline;fill:#736ced;fill-opacity:1;stroke:#736ced;stroke-width:1.26602006;stroke-linejoin:round;stroke-miterlimit:4;stroke-dasharray:none;stroke-opacity:1"
       id="rect6911-9-4"
       width="2.258235"
       height="8.6051273"
       x="-21.637928"
       y="57.429707"
       rx="2.5744359"
       ry="3.8270612"
       transform="matrix(-0.8275597,0.5613777,0.60731834,0.79445858,0,0)" />
    <rect
       style="display:inline;fill:#736ced;fill-opacity:1;stroke:#736ced;stroke-width:1.26612997;stroke-linejoin:round;stroke-miterlimit:4;stroke-dasharray:none;stroke-opacity:1"
       id="rect6911-7-9-9"
       width="2.2371364"
       height="8.6878376"
       x="-65.85376"
       y="-14.39315"
       rx="2.5703995"
       ry="3.8226526"
       transform="matrix(-0.72770767,-0.68588742,-0.72808679,0.68548496,0,0)" />
    <rect
       style="display:inline;fill:#736ced;fill-opacity:1;stroke:#736ced;stroke-width:1.26499999;stroke-linejoin:round;stroke-miterlimit:4;stroke-dasharray:none;stroke-opacity:1"
       id="rect6946-1"
       width="3.2581801"
       height="1.7147418"
       x="47.78685"
       y="43.080063"
       rx="2.6058786"
       ry="3.8754056" />
    <text
       xml:space="preserve"
       style="font-style:normal;font-variant:normal;font-weight:bold;font-stretch:normal;font-size:10.58329964px;line-height:1.25;font-family:sans-serif;-inkscape-font-specification:'sans-serif Bold';letter-spacing:0px;word-spacing:0px;display:inline;fill:#000000;fill-opacity:1;stroke:none;stroke-width:0.26458299"
       x="64.291512"
       y="13.707705"
       id="text7490-7"
       transform="rotate(17.183111)"><tspan
         sodipodi:role="line"
         id="tspan7488-5"
         x="64.291512"
         y="13.707705"
         style="font-style:normal;font-variant:normal;font-weight:bold;font-stretch:normal;font-family:'Kaleko 205 Round';-inkscape-font-specification:'Kaleko 205 Round Bold';fill:#736ced;fill-opacity:1;stroke-width:0.26458299">?</tspan></text>
  </g>
  <g
     inkscape:groupmode="layer"
     id="layer9"
     inkscape:label="Sleepy 1"
     style="display:none"
     transform="translate(0,-272)">
    <path
       style="display:inline;opacity:1;fill:#ffffff;fill-opacity:1;stroke:#736ced;stroke-width:1.26499999;stroke-linejoin:round;stroke-miterlimit:4;stroke-dasharray:none;stroke-opacity:1"
       id="path6909-5-2"
       sodipodi:type="arc"
       sodipodi:cx="144.82416"
       sodipodi:cy="12.774592"
       sodipodi:rx="12.046841"
       sodipodi:ry="10.81147"
       sodipodi:start="4.79068e-05"
       sodipodi:end="0"
       sodipodi:open="true"
       d="M 156.871,12.77511 A 12.046841,10.81147 0 0 1 144.82372,23.586062 12.046841,10.81147 0 0 1 132.77732,12.774333 12.046841,10.81147 0 0 1 144.8243,1.9631224 12.046841,10.81147 0 0 1 156.871,12.774592"
       sodipodi:arc-type="arc" />
    <text
       xml:space="preserve"
       style="font-style:normal;font-variant:normal;font-weight:bold;font-stretch:normal;font-size:7.92155981px;line-height:1.25;font-family:sans-serif;-inkscape-font-specification:'sans-serif Bold';letter-spacing:0px;word-spacing:0px;display:inline;fill:#000000;fill-opacity:1;stroke:none;stroke-width:0.26458299"
       x="125.73509"
       y="63.341743"
       id="text7031"
       transform="matrix(0.92817423,-0.32662778,0.32498337,0.96302113,0,0)"><tspan
         sodipodi:role="line"
         id="tspan7029"
         x="125.73509"
         y="63.341743"
         style="font-style:normal;font-variant:normal;font-weight:bold;font-stretch:normal;font-family:'Kaleko 205 Round';-inkscape-font-specification:'Kaleko 205 Round Bold';fill:#736ced;fill-opacity:1;stroke-width:0.26458299">z</tspan></text>
    <text
       xml:space="preserve"
       style="font-style:normal;font-variant:normal;font-weight:bold;font-stretch:normal;font-size:11.67720032px;line-height:1.25;font-family:sans-serif;-inkscape-font-specification:'sans-serif Bold';letter-spacing:0px;word-spacing:0px;display:inline;fill:#000000;fill-opacity:1;stroke:none;stroke-width:0.26458299"
       x="144.57614"
       y="0.54762566"
       id="text7031-9"
       transform="matrix(0.96560034,0.11436874,-0.11086285,1.0224942,0,0)"><tspan
         sodipodi:role="line"
         id="tspan7029-2"
         x="144.57614"
         y="0.54762566"
         style="font-style:normal;font-variant:normal;font-weight:bold;font-stretch:normal;font-family:'Kaleko 205 Round';-inkscape-font-specification:'Kaleko 205 Round Bold';fill:#736ced;fill-opacity:1;stroke-width:0.26458299">z</tspan></text>
    <text
       xml:space="preserve"
       style="font-style:normal;font-variant:normal;font-weight:bold;font-stretch:normal;font-size:14.51970005px;line-height:1.25;font-family:sans-serif;-inkscape-font-specification:'sans-serif Bold';letter-spacing:0px;word-spacing:0px;display:inline;fill:#000000;fill-opacity:1;stroke:none;stroke-width:0.26458299"
       x="151.21382"
       y="31.305058"
       id="text7031-9-7"
       transform="matrix(0.94223896,-0.11837371,0.10176456,1.0485172,0,0)"><tspan
         sodipodi:role="line"
         id="tspan7029-2-4"
         x="151.21382"
         y="31.305058"
         style="font-style:normal;font-variant:normal;font-weight:bold;font-stretch:normal;font-family:'Kaleko 205 Round';-inkscape-font-specification:'Kaleko 205 Round Bold';fill:#736ced;fill-opacity:1;stroke-width:0.26458299">z</tspan></text>
  </g>
  <g
     inkscape:groupmode="layer"
     id="layer10"
     inkscape:label="Sleepy 2"
     style="display:none"
     transform="translate(0,-272)">
    <path
       style="display:inline;opacity:1;fill:#f2dfd7;fill-opacity:1;stroke:#736ced;stroke-width:1.26499999;stroke-linejoin:round;stroke-miterlimit:4;stroke-dasharray:none;stroke-opacity:1"
       id="path6909-5-2-6"
       sodipodi:type="arc"
       sodipodi:cx="145.18613"
       sodipodi:cy="36.447483"
       sodipodi:rx="12.046842"
       sodipodi:ry="10.811471"
       sodipodi:start="4.79068e-05"
       sodipodi:end="0"
       sodipodi:open="true"
       d="m 157.23297,36.448001 a 12.046842,10.811471 0 0 1 -12.04728,10.810953 12.046842,10.811471 0 0 1 -12.0464,-10.81173 12.046842,10.811471 0 0 1 12.04698,-10.811212 12.046842,10.811471 0 0 1 12.0467,10.811471"
       sodipodi:arc-type="arc" />
    <text
       xml:space="preserve"
       style="font-style:normal;font-variant:normal;font-weight:bold;font-stretch:normal;font-size:7.92155981px;line-height:1.25;font-family:sans-serif;-inkscape-font-specification:'sans-serif Bold';letter-spacing:0px;word-spacing:0px;display:inline;fill:#000000;fill-opacity:1;stroke:none;stroke-width:0.26458299"
       x="118.39039"
       y="85.432541"
       id="text7031-1"
       transform="matrix(0.92817423,-0.32662778,0.32498337,0.96302113,0,0)"><tspan
         sodipodi:role="line"
         id="tspan7029-6"
         x="118.39039"
         y="85.432541"
         style="font-style:normal;font-variant:normal;font-weight:bold;font-stretch:normal;font-family:'Kaleko 205 Round';-inkscape-font-specification:'Kaleko 205 Round Bold';fill:#736ced;fill-opacity:1;stroke-width:0.26458299">z</tspan></text>
    <text
       xml:space="preserve"
       style="font-style:normal;font-variant:normal;font-weight:bold;font-stretch:normal;font-size:11.67720032px;line-height:1.25;font-family:sans-serif;-inkscape-font-specification:'sans-serif Bold';letter-spacing:0px;word-spacing:0px;display:inline;fill:#000000;fill-opacity:1;stroke:none;stroke-width:0.26458299"
       x="147.57071"
       y="23.36478"
       id="text7031-9-5"
       transform="matrix(0.96560034,0.11436874,-0.11086285,1.0224942,0,0)"><tspan
         sodipodi:role="line"
         id="tspan7029-2-1"
         x="147.57071"
         y="23.36478"
         style="font-style:normal;font-variant:normal;font-weight:bold;font-stretch:normal;font-family:'Kaleko 205 Round';-inkscape-font-specification:'Kaleko 205 Round Bold';fill:#736ced;fill-opacity:1;stroke-width:0.26458299">z</tspan></text>
    <text
       xml:space="preserve"
       style="font-style:normal;font-variant:normal;font-weight:bold;font-stretch:normal;font-size:14.51970005px;line-height:1.25;font-family:sans-serif;-inkscape-font-specification:'sans-serif Bold';letter-spacing:0px;word-spacing:0px;display:inline;fill:#000000;fill-opacity:1;stroke:none;stroke-width:0.26458299"
       x="149.1843"
       y="53.653431"
       id="text7031-9-7-6"
       transform="matrix(0.94223896,-0.11837371,0.10176456,1.0485172,0,0)"><tspan
         sodipodi:role="line"
         id="tspan7029-2-4-2"
         x="149.1843"
         y="53.653431"
         style="font-style:normal;font-variant:normal;font-weight:bold;font-stretch:normal;font-family:'Kaleko 205 Round';-inkscape-font-specification:'Kaleko 205 Round Bold';fill:#736ced;fill-opacity:1;stroke-width:0.26458299">z</tspan></text>
  </g>
  <g
     inkscape:groupmode="layer"
     id="layer11"
     inkscape:label="Sleepy 3"
     style="display:none"
     transform="translate(0,-272)">
    <path
       style="display:inline;opacity:1;fill:#736ced;fill-opacity:1;stroke:#736ced;stroke-width:1.26499999;stroke-linejoin:round;stroke-miterlimit:4;stroke-dasharray:none;stroke-opacity:1"
       id="path6909-5-2-7"
       sodipodi:type="arc"
       sodipodi:cx="173.62885"
       sodipodi:cy="13.201948"
       sodipodi:rx="12.046842"
       sodipodi:ry="10.811471"
       sodipodi:start="4.79068e-05"
       sodipodi:end="0"
       sodipodi:open="true"
       d="M 185.67569,13.202466 A 12.046842,10.811471 0 0 1 173.62841,24.013419 12.046842,10.811471 0 0 1 161.582,13.201689 12.046842,10.811471 0 0 1 173.62899,2.3904772 12.046842,10.811471 0 0 1 185.67569,13.201948"
       sodipodi:arc-type="arc" />
    <text
       xml:space="preserve"
       style="font-style:normal;font-variant:normal;font-weight:bold;font-stretch:normal;font-size:7.92155981px;line-height:1.25;font-family:sans-serif;-inkscape-font-specification:'sans-serif Bold';letter-spacing:0px;word-spacing:0px;display:inline;fill:#ffffff;fill-opacity:1;stroke:none;stroke-width:0.26458299"
       x="153.33572"
       y="73.146812"
       id="text7031-5"
       transform="matrix(0.92817423,-0.32662778,0.32498337,0.96302113,0,0)"><tspan
         sodipodi:role="line"
         id="tspan7029-64"
         x="153.33572"
         y="73.146812"
         style="font-style:normal;font-variant:normal;font-weight:bold;font-stretch:normal;font-family:'Kaleko 205 Round';-inkscape-font-specification:'Kaleko 205 Round Bold';fill:#ffffff;fill-opacity:1;stroke-width:0.26458299">z</tspan></text>
    <text
       xml:space="preserve"
       style="font-style:normal;font-variant:normal;font-weight:bold;font-stretch:normal;font-size:11.67720032px;line-height:1.25;font-family:sans-serif;-inkscape-font-specification:'sans-serif Bold';letter-spacing:0px;word-spacing:0px;display:inline;fill:#ffffff;fill-opacity:1;stroke:none;stroke-width:0.26458299"
       x="174.07616"
       y="-2.3340738"
       id="text7031-9-1"
       transform="matrix(0.96560034,0.11436874,-0.11086285,1.0224942,0,0)"><tspan
         sodipodi:role="line"
         id="tspan7029-2-8"
         x="174.07616"
         y="-2.3340738"
         style="font-style:normal;font-variant:normal;font-weight:bold;font-stretch:normal;font-family:'Kaleko 205 Round';-inkscape-font-specification:'Kaleko 205 Round Bold';fill:#ffffff;fill-opacity:1;stroke-width:0.26458299">z</tspan></text>
    <text
       xml:space="preserve"
       style="font-style:normal;font-variant:normal;font-weight:bold;font-stretch:normal;font-size:14.51970005px;line-height:1.25;font-family:sans-serif;-inkscape-font-specification:'sans-serif Bold';letter-spacing:0px;word-spacing:0px;display:inline;fill:#ffffff;fill-opacity:1;stroke:none;stroke-width:0.26458299"
       x="181.37254"
       y="35.117447"
       id="text7031-9-7-63"
       transform="matrix(0.94223896,-0.11837371,0.10176456,1.0485172,0,0)"><tspan
         sodipodi:role="line"
         id="tspan7029-2-4-6"
         x="181.37254"
         y="35.117447"
         style="font-style:normal;font-variant:normal;font-weight:bold;font-stretch:normal;font-family:'Kaleko 205 Round';-inkscape-font-specification:'Kaleko 205 Round Bold';fill:#ffffff;fill-opacity:1;stroke-width:0.26458299">z</tspan></text>
  </g>
  <g
     inkscape:groupmode="layer"
     id="layer13"
     inkscape:label="Too Slow 1"
     style="display:none"
     transform="translate(0,-272)">
    <path
       style="display:inline;opacity:1;fill:#ffffff;fill-opacity:1;stroke:#736ced;stroke-width:1.26499999;stroke-linejoin:round;stroke-miterlimit:4;stroke-dasharray:none;stroke-opacity:1"
       id="path6909-5-2-5"
       sodipodi:type="arc"
       sodipodi:cx="18.708866"
       sodipodi:cy="70.021355"
       sodipodi:rx="13.650459"
       sodipodi:ry="12.481905"
       sodipodi:start="4.79068e-05"
       sodipodi:end="0"
       sodipodi:open="true"
       d="M 32.359325,70.021953 A 13.650459,12.481905 0 0 1 18.708376,82.50326 13.650459,12.481905 0 0 1 5.0584068,70.021056 13.650459,12.481905 0 0 1 18.70903,57.53945 13.650459,12.481905 0 0 1 32.359325,70.021355"
       sodipodi:arc-type="arc" />
    <path
       id="path7369-1"
       style="display:inline;opacity:1;fill:#736ced;fill-opacity:1;stroke:#ff6ced;stroke-width:0;stroke-linejoin:round;stroke-miterlimit:4;stroke-dasharray:none;stroke-opacity:1"
       d="m 19.267955,65.141459 c 0,-0.537682 0.0024,-0.757644 0.0055,-0.488801 0.0031,0.26884 0.0031,0.708763 0,0.977603 -0.0031,0.268842 -0.0055,0.04887 -0.0055,-0.488802 z m 5.598651,-2.408385 c -0.07002,-0.03678 -0.166433,-0.131242 -0.21425,-0.209924 -0.257178,-0.423186 0.331618,-0.891038 0.804609,-0.639336 0.337016,0.179341 0.36787,0.590141 0.06124,0.815376 -0.148837,0.109328 -0.475601,0.12632 -0.651601,0.03388 z m -5.080664,0.0052 c -0.152856,-0.0653 -0.319657,-0.282458 -0.319657,-0.41616 0,-0.129489 0.165016,-0.359111 0.31521,-0.438619 0.373678,-0.197811 0.841969,0.0454 0.842139,0.43738 1.59e-4,0.369366 -0.438498,0.587937 -0.837692,0.417399 z M 8.0333131,78.054185 c -0.2063905,-0.07468 0.034095,0.144768 0,0 -0.064075,-0.272057 -0.9075515,0.04747 -0.6361787,-0.505427 0.4106254,-0.836597 0.3696025,-1.195548 1.2471277,-1.715339 L 8.9239778,75.667726 8.7437101,75.445751 C 8.3529651,74.964593 8.0740968,74.414249 7.8662413,73.714065 7.7591845,73.353427 7.7541112,73.30091 7.7545083,72.557371 c 3.172e-4,-0.599064 0.016584,-0.85231 0.070393,-1.096827 0.3572855,-1.62337 1.178164,-2.860891 2.5910877,-3.906218 0.60469,-0.44737 1.422709,-0.865091 2.133451,-1.089443 0.825939,-0.260719 2.104529,-0.449607 2.806045,-0.414542 0.512758,0.02563 1.283737,0.133872 1.772559,0.248859 0.582344,0.136984 1.01526,0.291009 1.569558,0.55842 0.268677,0.129619 0.506644,0.22674 0.528816,0.215824 0.0262,-0.0129 0.04031,-0.526176 0.04031,-1.464904 v -1.445055 l -0.229485,-0.116398 c -0.371886,-0.188623 -0.528947,-0.300796 -0.697862,-0.498397 -0.338953,-0.396519 -0.485047,-0.761705 -0.485047,-1.212456 0,-0.340591 0.05889,-0.554845 0.238785,-0.868684 0.192404,-0.33567 0.388069,-0.53024 0.745548,-0.741379 0.55033,-0.325039 1.205753,-0.41623 1.849001,-0.257259 0.348464,0.08611 0.812171,0.346439 1.044599,0.586423 0.411393,0.424769 0.61979,1.009445 0.536513,1.505237 -0.103158,0.614124 -0.533984,1.186438 -1.079908,1.434541 -0.330609,0.15025 -0.31607,0.121989 -0.304231,0.59141 0.0084,0.333534 0.02772,0.456316 0.09358,0.595094 0.113016,0.238157 0.387367,0.480638 0.651293,0.575629 0.199221,0.07172 0.25536,0.0761 0.969767,0.0761 0.71478,0 0.769079,-0.0041 0.946059,-0.07436 0.240923,-0.09541 0.489621,-0.311072 0.622729,-0.540023 0.09418,-0.16201 0.106489,-0.226361 0.120497,-0.630506 l 0.01559,-0.450081 -0.282601,-0.148307 C 23.65129,63.795757 23.423926,63.58951 23.22195,63.264724 c -0.381516,-0.613487 -0.375063,-1.301332 0.0178,-1.896864 0.177548,-0.269145 0.353759,-0.435607 0.659479,-0.622999 0.31571,-0.193517 0.59651,-0.291285 0.960419,-0.334399 1.038174,-0.123001 1.995772,0.395786 2.394164,1.297057 0.118802,0.268762 0.144655,0.757097 0.05675,1.071863 -0.145342,0.520385 -0.583215,1.014274 -1.119322,1.262514 l -0.239464,0.110883 0.0012,0.649526 c 0.0012,0.694592 0.03846,0.912208 0.243354,1.418737 0.132324,0.32714 0.466602,0.877907 0.748763,1.233691 0.287572,0.362605 0.387179,0.60844 0.412204,1.017345 0.04348,0.710489 -0.343924,1.329024 -1.06672,1.703114 -0.195332,0.101104 -0.327026,0.191749 -0.338048,0.232699 -0.01001,0.0369 -0.02549,0.703719 -0.03455,1.48183 -0.01716,1.472187 -0.02887,1.596308 -0.224933,2.3844 -0.156426,0.628773 -0.371582,1.101204 -0.842692,1.85032 -0.860263,1.367928 -2.15797,2.411232 -3.827414,3.07707 -0.934251,0.372627 -1.739578,0.556665 -2.779525,0.635222 -0.273242,0.02071 -2.445572,0.03248 -5.881098,0.0321 C 7.1791358,79.868355 8.6801459,78.40125 8.5279309,78.34576 Z M 18.621601,79.39358 c 0.911646,-0.106838 1.547144,-0.269432 2.317916,-0.593055 0.792906,-0.332924 1.316248,-0.641051 1.961255,-1.154756 1.095064,-0.872132 1.917695,-2.051238 2.307934,-3.308034 0.217344,-0.699983 0.247256,-0.987039 0.271657,-2.606946 0.01735,-1.151877 0.03419,-1.496964 0.07627,-1.562712 0.06069,-0.09484 0.161875,-0.161965 0.529799,-0.351472 0.577307,-0.297355 0.912146,-0.909669 0.803454,-1.469267 -0.04837,-0.249043 -0.164116,-0.472491 -0.396711,-0.765863 -0.437368,-0.551648 -0.814774,-1.306279 -0.940655,-1.880857 -0.0338,-0.154301 -0.07277,-0.538063 -0.08658,-0.852804 l -0.02512,-0.572258 -0.353161,-0.0036 -0.353156,-0.0036 -6.6e-4,0.321534 c -7.69e-4,0.360837 -0.07496,0.689924 -0.203052,0.90069 -0.128186,0.210929 -0.476691,0.492442 -0.762413,0.615853 l -0.251116,0.108468 -0.859337,0.01014 c -0.793569,0.0093 -0.876508,0.005 -1.083678,-0.05677 -0.297338,-0.08862 -0.559207,-0.252233 -0.771684,-0.48215 C 20.520561,65.38094 20.453973,65.20376 20.43334,64.703637 L 20.4156,64.273309 h -0.354905 -0.354902 v 1.576719 1.576719 l 0.312955,0.226197 c 0.976767,0.70598 1.827964,1.853111 2.235599,3.012835 0.202362,0.57572 0.256964,0.869809 0.204378,1.10081 -0.09058,0.397899 -0.379046,0.714681 -0.805313,0.884358 l -0.244207,0.09721 h -1.088298 -1.088299 l -0.02333,0.182802 c -0.08837,0.692556 -0.228733,1.160759 -0.51994,1.734418 -0.643485,1.267626 -1.970593,2.297322 -3.466432,2.689599 -0.85173,0.223359 -0.985646,0.24159 -1.763141,0.239976 -0.61353,-0.0017 -0.76791,-0.01192 -1.057634,-0.07294 C 11.159133,77.26025 10.336,76.894474 9.5513263,76.255198 L 9.2249306,75.989265 8.9876255,76.112898 c -0.5759976,0.300075 -1.2495782,0.908168 -1.5904911,1.43586 -0.461955,0.715038 0.9356263,0.625212 1.1307965,0.797002 0.063394,0.05581 -1.3959889,1.110494 3.9702071,1.110344 5.347165,-1.31e-4 5.614527,-0.0023 6.123523,-0.06251 z m -4.378868,-2.24134 c 0.349914,-0.04895 0.974525,-0.206855 1.35728,-0.343162 0.529522,-0.18858 1.274207,-0.648494 1.691141,-1.04444 0.576913,-0.547876 0.917983,-1.03834 1.154743,-1.660546 0.497472,-1.307349 0.365195,-2.390311 -0.405412,-3.319117 -0.724712,-0.873492 -2.120911,-1.398862 -3.323573,-1.250615 -1.194455,0.147235 -2.177191,0.743169 -2.768109,1.678589 -0.411305,0.651094 -0.526856,1.580885 -0.270291,2.17491 0.29867,0.691511 0.999058,1.245937 1.781391,1.410137 0.304083,0.06383 0.888737,0.06471 1.188383,0.0019 0.790923,-0.166074 1.489639,-0.700588 1.756459,-1.343675 0.39607,-0.954607 0.146157,-1.745535 -0.624078,-1.975095 -0.288487,-0.08598 -0.481839,-0.08604 -0.769666,-2.44e-4 -0.45344,0.135143 -0.754707,0.463391 -0.812905,0.885709 -0.03565,0.258663 -0.118828,0.381673 -0.2581,0.381673 -0.292128,0 -0.300771,-0.503197 -0.01679,-0.977195 0.233611,-0.389915 0.681057,-0.659907 1.223465,-0.738244 0.766413,-0.11069 1.555763,0.306059 1.80944,0.955321 0.108509,0.277713 0.105808,0.95994 -0.0052,1.328988 -0.169036,0.56168 -0.580319,1.096293 -1.095425,1.423898 -0.370268,0.23549 -0.897198,0.438496 -1.267231,0.488214 -0.429233,0.05768 -1.063247,0.02455 -1.396134,-0.0729 -0.97875,-0.286563 -1.705912,-0.927053 -1.99402,-1.756347 -0.07467,-0.21493 -0.0884,-0.335615 -0.08861,-0.778906 -1.57e-4,-0.458728 0.01326,-0.570454 0.107455,-0.890155 0.28721,-0.974969 1.133677,-1.848811 2.202901,-2.274137 0.632078,-0.251436 1.056007,-0.332649 1.736917,-0.332751 0.570971,-9.5e-5 0.835485,0.03928 1.396884,0.207876 0.845411,0.253888 1.706403,0.893702 2.151416,1.598738 0.180095,0.285322 0.393035,0.810401 0.448229,1.105258 0.02588,0.138246 0.0642,0.269237 0.08516,0.291096 0.04848,0.05056 1.765222,0.05598 2.054934,0.0065 0.355868,-0.06079 0.667812,-0.347522 0.712563,-0.654966 0.04675,-0.321174 -0.311735,-1.314708 -0.720989,-1.998206 -0.401962,-0.671323 -1.027843,-1.34081 -1.705383,-1.824203 -0.502999,-0.358865 -1.102124,-0.684302 -1.623946,-0.882102 -0.848507,-0.321635 -1.91887,-0.520705 -2.798613,-0.520498 -0.946754,2.46e-4 -2.076662,0.219861 -2.965922,0.576532 -0.717671,0.287847 -1.629707,0.878219 -2.2039302,1.426629 -0.527923,0.504192 -1.1054407,1.32738 -1.3714566,1.954858 -0.281472,0.663938 -0.47781,1.786077 -0.4255414,2.43209 0.1201955,1.485489 0.9144921,2.705241 2.3229942,3.567266 0.526695,0.322344 1.441661,0.640212 2.12795,0.739264 0.404411,0.05837 1.192273,0.05946 1.601662,0.0027 z m 6.242474,-13.323383 c 0.900496,-0.186837 1.499102,-1.036007 1.29203,-1.832841 -0.106854,-0.411183 -0.515976,-0.881127 -0.904215,-1.038647 -0.517828,-0.210097 -1.094862,-0.211484 -1.606643,-0.0038 -0.532352,0.215967 -0.957504,0.829919 -0.957504,1.382712 0,0.99011 1.068002,1.7226 2.176332,1.492641 z m 5.067461,0.0062 c 1.210413,-0.256928 1.746302,-1.505562 1.025869,-2.390298 -0.201399,-0.24733 -0.435444,-0.411679 -0.761524,-0.534751 -0.241486,-0.09114 -0.298858,-0.09977 -0.663452,-0.09977 -0.366257,0 -0.421309,0.0084 -0.668845,0.101787 -0.493738,0.186304 -0.845791,0.527187 -1.008707,0.976708 -0.05219,0.144005 -0.06393,0.267424 -0.04989,0.524569 0.01584,0.290229 0.03665,0.37107 0.152003,0.590592 0.335022,0.637571 1.190368,0.997621 1.974545,0.831169 z"
       inkscape:connector-curvature="0"
       sodipodi:nodetypes="sssscccscccsccccccccccccscscccscccscccccscccsccccsccccscccccccccccccccccccccscccccccccccccccccccccccsccccccsccccccccccccccccsssccccccsccccccccccccsccccccccccsccccccccccscccscscccccc" />
  </g>
  <g
     inkscape:groupmode="layer"
     id="layer14"
     inkscape:label="Too Slow 2"
     style="display:none"
     transform="translate(0,-272)">
    <path
       style="display:inline;opacity:1;fill:#f2dfd7;fill-opacity:1;stroke:#736ced;stroke-width:1.26499999;stroke-linejoin:round;stroke-miterlimit:4;stroke-dasharray:none;stroke-opacity:1"
       id="path6909-5-2-5-5"
       sodipodi:type="arc"
       sodipodi:cx="18.785416"
       sodipodi:cy="98.29792"
       sodipodi:rx="13.65046"
       sodipodi:ry="12.481905"
       sodipodi:start="4.79068e-05"
       sodipodi:end="0"
       sodipodi:open="true"
       d="M 32.435876,98.298518 A 13.65046,12.481905 0 0 1 18.784925,110.77983 13.65046,12.481905 0 0 1 5.1349554,98.297621 13.65046,12.481905 0 0 1 18.785579,85.816015 13.65046,12.481905 0 0 1 32.435876,98.29792"
       sodipodi:arc-type="arc" />
    <path
       id="path7369-1-3"
       style="display:inline;opacity:1;fill:#736ced;fill-opacity:1;stroke:#ff6ced;stroke-width:0;stroke-linejoin:round;stroke-miterlimit:4;stroke-dasharray:none;stroke-opacity:1"
       d="m 19.344506,93.418022 c 0,-0.537682 0.0024,-0.757644 0.0055,-0.488801 0.0031,0.26884 0.0031,0.708763 0,0.977603 -0.0031,0.268842 -0.0055,0.04887 -0.0055,-0.488802 z m 5.598651,-2.408385 c -0.07002,-0.03678 -0.166432,-0.131242 -0.21425,-0.209924 -0.257177,-0.423186 0.331618,-0.891038 0.804609,-0.639336 0.337016,0.179341 0.36787,0.590141 0.06124,0.815376 -0.148836,0.109328 -0.475601,0.12632 -0.651601,0.03388 z m -5.080664,0.0052 c -0.152856,-0.0653 -0.319657,-0.282458 -0.319657,-0.41616 0,-0.129489 0.165016,-0.359111 0.31521,-0.438619 0.373678,-0.197811 0.841969,0.0454 0.842139,0.43738 1.59e-4,0.369366 -0.438498,0.587937 -0.837692,0.417399 z M 8.1098637,106.33075 c -0.20639,-0.0747 0.0341,0.14477 0,0 -0.06407,-0.27206 -0.907551,0.0475 -0.636178,-0.50543 0.410625,-0.8366 0.369602,-1.19555 1.247127,-1.71534 l 0.279716,-0.16569 -0.180268,-0.22198 c -0.390745,-0.48115 -0.669613,-1.0315 -0.877469,-1.73168 -0.107056,-0.36064 -0.11213,-0.41316 -0.111733,-1.1567 3.18e-4,-0.59906 0.01658,-0.852307 0.07039,-1.096824 0.357286,-1.623369 1.178165,-2.860891 2.5910883,-3.906217 0.60469,-0.447371 1.422709,-0.865091 2.133451,-1.089443 0.825939,-0.260719 2.104529,-0.449607 2.806045,-0.414542 0.512758,0.02563 1.283737,0.133872 1.772559,0.248859 0.582344,0.136984 1.01526,0.291009 1.569558,0.55842 0.268677,0.129619 0.506644,0.226739 0.528816,0.215823 0.0262,-0.0129 0.04031,-0.526175 0.04031,-1.464903 V 92.440048 L 19.113791,92.32365 c -0.371886,-0.188623 -0.528947,-0.300796 -0.697862,-0.498397 -0.338953,-0.396519 -0.485047,-0.761705 -0.485047,-1.212456 0,-0.340591 0.05889,-0.554845 0.238785,-0.868684 0.192404,-0.33567 0.388069,-0.53024 0.745548,-0.741379 0.55033,-0.325039 1.205753,-0.41623 1.849001,-0.257259 0.348464,0.08611 0.812171,0.346439 1.044599,0.586423 0.411393,0.424769 0.61979,1.009445 0.536513,1.505237 -0.103158,0.614124 -0.533984,1.186438 -1.079908,1.434541 -0.330609,0.15025 -0.31607,0.121989 -0.304231,0.59141 0.0084,0.333534 0.02772,0.456316 0.09358,0.595094 0.113016,0.238157 0.387367,0.480638 0.651293,0.575629 0.199221,0.07172 0.25536,0.0761 0.969767,0.0761 0.71478,0 0.769079,-0.0041 0.946059,-0.07436 0.240923,-0.09541 0.489621,-0.311072 0.622729,-0.540023 0.09418,-0.16201 0.106489,-0.226361 0.120498,-0.630506 l 0.01559,-0.450081 -0.282601,-0.148307 c -0.370266,-0.194312 -0.59763,-0.400559 -0.799606,-0.725345 -0.381516,-0.613487 -0.375063,-1.301332 0.0178,-1.896864 0.177548,-0.269145 0.353759,-0.435607 0.65948,-0.622999 0.315709,-0.193517 0.59651,-0.291285 0.960419,-0.334399 1.038174,-0.123001 1.995772,0.395786 2.394164,1.297057 0.118802,0.268762 0.144655,0.757097 0.05675,1.071863 -0.145342,0.520385 -0.583215,1.014274 -1.119323,1.262514 l -0.239463,0.110883 0.0012,0.649526 c 0.0012,0.694592 0.03846,0.912208 0.243354,1.418737 0.132324,0.32714 0.466602,0.877907 0.748763,1.23369 0.287572,0.362605 0.387179,0.60844 0.412204,1.017346 0.04348,0.710488 -0.343924,1.329024 -1.06672,1.703113 -0.195332,0.101104 -0.327026,0.19175 -0.338048,0.232699 -0.01001,0.0369 -0.02549,0.70372 -0.03455,1.481827 -0.01716,1.47219 -0.02887,1.59631 -0.224933,2.3844 -0.156426,0.62878 -0.371582,1.10121 -0.842692,1.85032 -0.860263,1.36793 -2.15797,2.41124 -3.827414,3.07707 -0.934251,0.37263 -1.739578,0.55667 -2.779525,0.63523 -0.273242,0.0207 -2.445572,0.0325 -5.881098,0.0321 -5.1831933,-4.8e-4 -3.6821833,-1.46759 -3.8343983,-1.52308 z m 10.5882883,1.33939 c 0.911646,-0.10683 1.547144,-0.26943 2.317916,-0.59305 0.792906,-0.33293 1.316248,-0.64105 1.961255,-1.15476 1.095064,-0.87213 1.917695,-2.05124 2.307934,-3.30803 0.217344,-0.69999 0.247256,-0.98704 0.271657,-2.60695 0.01735,-1.151876 0.03419,-1.496963 0.07627,-1.56271 0.06069,-0.09484 0.161875,-0.161966 0.529799,-0.351472 0.577307,-0.297356 0.912146,-0.90967 0.803454,-1.469268 -0.04837,-0.249043 -0.164116,-0.47249 -0.396711,-0.765863 -0.437368,-0.551648 -0.814774,-1.306278 -0.940654,-1.880856 -0.0338,-0.154301 -0.07277,-0.538063 -0.08658,-0.852804 l -0.02512,-0.572258 -0.353161,-0.0036 -0.353156,-0.0036 -6.61e-4,0.321534 c -7.68e-4,0.360837 -0.07496,0.689924 -0.203052,0.90069 -0.128186,0.210929 -0.476691,0.492442 -0.762413,0.615853 l -0.251116,0.108468 -0.859337,0.01014 c -0.793569,0.0093 -0.876508,0.005 -1.083678,-0.05677 -0.297338,-0.08862 -0.559207,-0.252233 -0.771684,-0.48215 C 20.597112,93.657503 20.530523,93.480323 20.50989,92.9802 l -0.01774,-0.430328 h -0.354905 -0.354902 v 1.576719 1.576718 l 0.312955,0.226197 c 0.976767,0.705981 1.827964,1.853111 2.235599,3.012836 0.202362,0.57572 0.256964,0.869808 0.204378,1.100808 -0.09058,0.3979 -0.379046,0.71468 -0.805313,0.88436 l -0.244207,0.0972 h -1.088298 -1.088299 l -0.02333,0.1828 c -0.08837,0.69256 -0.228733,1.16076 -0.51994,1.73442 -0.643485,1.26763 -1.970593,2.29732 -3.466432,2.6896 -0.851731,0.22336 -0.985647,0.24159 -1.763142,0.23997 -0.61353,-0.002 -0.76791,-0.0119 -1.057634,-0.0729 -1.242996,-0.26176 -2.066129,-0.62753 -2.8508033,-1.26681 l -0.326395,-0.26593 -0.237305,0.12363 c -0.575998,0.30008 -1.249579,0.90817 -1.590491,1.43586 -0.461956,0.71504 0.935626,0.62521 1.130796,0.797 0.06339,0.0558 -1.395989,1.1105 3.9702073,1.11035 5.347165,-1.3e-4 5.614527,-0.002 6.123523,-0.0625 z m -4.378868,-2.24134 c 0.349914,-0.0489 0.974525,-0.20685 1.35728,-0.34316 0.529522,-0.18858 1.274207,-0.64849 1.691141,-1.04444 0.576913,-0.54787 0.917983,-1.03834 1.154743,-1.66055 0.497472,-1.30734 0.365195,-2.390306 -0.405412,-3.319112 -0.724712,-0.873492 -2.120911,-1.398863 -3.323573,-1.250615 -1.194455,0.147234 -2.177191,0.743168 -2.768109,1.678588 -0.411305,0.651099 -0.526856,1.580889 -0.270291,2.174909 0.29867,0.69151 0.999058,1.24594 1.781391,1.41014 0.304083,0.0638 0.888737,0.0647 1.188383,0.002 0.790923,-0.16608 1.489639,-0.70059 1.756459,-1.34368 0.39607,-0.9546 0.146157,-1.745531 -0.624078,-1.975091 -0.288487,-0.08598 -0.481839,-0.08604 -0.769666,-2.45e-4 -0.45344,0.135143 -0.754707,0.463396 -0.812905,0.885706 -0.03565,0.25867 -0.118828,0.38168 -0.2581,0.38168 -0.292128,0 -0.300771,-0.5032 -0.01679,-0.9772 0.233611,-0.389913 0.681057,-0.659906 1.223465,-0.738242 0.766413,-0.11069 1.555763,0.306058 1.80944,0.955322 0.108509,0.27771 0.105808,0.95994 -0.0052,1.32899 -0.169036,0.56168 -0.580319,1.09629 -1.095425,1.42389 -0.370268,0.23549 -0.897198,0.4385 -1.267231,0.48822 -0.429233,0.0577 -1.063247,0.0246 -1.396134,-0.0729 -0.97875,-0.28656 -1.705912,-0.92705 -1.99402,-1.75635 -0.07467,-0.21493 -0.0884,-0.33561 -0.08861,-0.7789 -1.57e-4,-0.45873 0.01326,-0.57046 0.107455,-0.89016 0.28721,-0.974968 1.133677,-1.84881 2.202901,-2.274137 0.632078,-0.251436 1.056007,-0.332649 1.736917,-0.33275 0.570971,-9.5e-5 0.835485,0.03928 1.396884,0.207875 0.845411,0.253889 1.706403,0.893702 2.151416,1.598738 0.180095,0.285323 0.393035,0.810404 0.448229,1.105254 0.02588,0.13825 0.0642,0.26924 0.08516,0.2911 0.04848,0.0506 1.765222,0.056 2.054934,0.007 0.355868,-0.0608 0.667812,-0.34752 0.712563,-0.654965 0.04675,-0.321174 -0.311735,-1.314708 -0.720989,-1.998206 -0.401963,-0.671329 -1.027844,-1.340816 -1.705384,-1.824209 -0.502999,-0.358865 -1.102124,-0.684302 -1.623946,-0.882102 -0.848507,-0.321634 -1.91887,-0.520704 -2.798613,-0.520497 -0.946753,2.46e-4 -2.076661,0.219861 -2.965921,0.576531 -0.717671,0.287847 -1.629707,0.878219 -2.203931,1.426629 -0.5279233,0.504193 -1.1054403,1.32738 -1.3714563,1.954858 -0.281472,0.663938 -0.47781,1.786081 -0.425542,2.432091 0.120196,1.48549 0.914492,2.70524 2.3229953,3.56727 0.526695,0.32234 1.441661,0.64021 2.127949,0.73926 0.404412,0.0584 1.192274,0.0595 1.601663,0.003 z m 6.242474,-13.32338 c 0.900496,-0.186837 1.499102,-1.036007 1.29203,-1.832841 -0.106854,-0.411183 -0.515976,-0.881127 -0.904215,-1.038647 -0.517828,-0.210097 -1.094862,-0.211484 -1.606643,-0.0038 -0.532352,0.215968 -0.957504,0.82992 -0.957504,1.382713 0,0.99011 1.068002,1.7226 2.176332,1.492641 z m 5.067461,0.0062 c 1.210413,-0.256929 1.746303,-1.505563 1.025869,-2.390299 -0.201399,-0.24733 -0.435444,-0.411679 -0.761524,-0.534751 -0.241486,-0.09114 -0.298858,-0.09977 -0.663452,-0.09977 -0.366256,0 -0.421309,0.0084 -0.668845,0.101787 -0.493738,0.186304 -0.845791,0.527187 -1.008707,0.976708 -0.05219,0.144005 -0.06393,0.267424 -0.04989,0.524569 0.01584,0.290229 0.03665,0.37107 0.152003,0.590592 0.335022,0.637571 1.190369,0.997621 1.974545,0.831169 z"
       inkscape:connector-curvature="0"
       sodipodi:nodetypes="sssscccscccsccccccccccccscscccscccscccccscccsccccsccccscccccccccccccccccccccscccccccccccccccccccccccsccccccsccccccccccccccccsssccccccsccccccccccccsccccccccccsccccccccccscccscscccccc" />
  </g>
  <g
     inkscape:groupmode="layer"
     id="layer15"
     inkscape:label="Too Slow 3"
     style="display:none"
     transform="translate(0,-272)">
    <path
       style="display:inline;opacity:1;fill:#736ced;fill-opacity:1;stroke:#736ced;stroke-width:1.26499999;stroke-linejoin:round;stroke-miterlimit:4;stroke-dasharray:none;stroke-opacity:1"
       id="path6909-5-2-5-2"
       sodipodi:type="arc"
       sodipodi:cx="49.514881"
       sodipodi:cy="70.686752"
       sodipodi:rx="13.65046"
       sodipodi:ry="12.481905"
       sodipodi:start="4.79068e-05"
       sodipodi:end="0"
       sodipodi:open="true"
       d="M 63.165341,70.68735 A 13.65046,12.481905 0 0 1 49.514391,83.168657 13.65046,12.481905 0 0 1 35.864421,70.686453 13.65046,12.481905 0 0 1 49.515045,58.204847 13.65046,12.481905 0 0 1 63.165341,70.686752"
       sodipodi:arc-type="arc" />
    <path
       id="path7369-5"
       style="display:inline;opacity:1;fill:#ffffff;fill-opacity:1;stroke:#ff6ced;stroke-width:0;stroke-linejoin:round;stroke-miterlimit:4;stroke-dasharray:none;stroke-opacity:1"
       d="m 50.928666,65.417869 c 0,-0.557431 0.0026,-0.785473 0.0061,-0.506756 0.0035,0.278715 0.0035,0.734796 0,1.013511 -0.0035,0.278716 -0.0061,0.05067 -0.0061,-0.506755 z m 5.901812,-2.496843 c -0.07385,-0.03813 -0.175446,-0.136063 -0.225849,-0.217636 -0.271106,-0.438729 0.349572,-0.923765 0.84818,-0.662818 0.35526,0.185928 0.387784,0.611817 0.06457,0.845324 -0.156895,0.113345 -0.501357,0.13096 -0.686883,0.03513 z m -5.355784,0.0054 c -0.161132,-0.06772 -0.336963,-0.292862 -0.336963,-0.431473 0,-0.134247 0.17395,-0.372303 0.332281,-0.45473 0.393909,-0.205078 0.887557,0.04707 0.88774,0.453444 1.67e-4,0.382932 -0.462242,0.609532 -0.883058,0.43273 z M 37.737476,80.625429 c -0.217563,-0.07743 1.140622,-0.902489 1.104676,-1.052574 -0.06755,-0.282054 -1.373351,-0.871465 -1.087281,-1.444665 0.432858,-0.867325 1.049782,-1.08677 1.974826,-1.625653 L 40.02456,76.330759 39.834527,76.10063 c -0.411901,-0.498831 -0.705872,-1.069388 -0.924983,-1.795289 -0.112854,-0.373885 -0.118209,-0.42833 -0.117781,-1.19918 3.42e-4,-0.621067 0.0175,-0.883613 0.0742,-1.137112 0.376636,-1.682995 1.241958,-2.965969 2.731396,-4.049691 0.637435,-0.463801 1.499747,-0.896864 2.248977,-1.129458 0.87066,-0.270294 2.21849,-0.46612 2.95799,-0.429767 0.540524,0.02657 1.353255,0.13879 1.868543,0.257999 0.613877,0.142017 1.070239,0.301698 1.65455,0.578931 0.283225,0.134381 0.534083,0.235068 0.557455,0.223751 0.02756,-0.01337 0.04253,-0.545502 0.04253,-1.51871 v -1.49813 L 50.68549,64.283301 c -0.39202,-0.195552 -0.557587,-0.311842 -0.73565,-0.516702 -0.357307,-0.411084 -0.511313,-0.789682 -0.511313,-1.256991 0,-0.353099 0.06204,-0.575223 0.251714,-0.900588 0.202818,-0.347999 0.409083,-0.549715 0.785921,-0.768609 0.580128,-0.336977 1.271045,-0.431519 1.949125,-0.266709 0.367335,0.08928 0.856152,0.359163 1.101165,0.607962 0.433671,0.44037 0.653351,1.046521 0.565566,1.560523 -0.108739,0.63668 -0.562906,1.230016 -1.138388,1.487232 -0.348512,0.155767 -0.33319,0.12647 -0.320704,0.613132 0.0088,0.345783 0.02923,0.473075 0.09863,0.616952 0.119138,0.246902 0.408348,0.498289 0.686559,0.596771 0.210011,0.07434 0.26919,0.07891 1.022288,0.07891 0.753483,0 0.81072,-0.0044 0.997287,-0.07708 0.253964,-0.09891 0.516127,-0.322498 0.65645,-0.559858 0.09929,-0.16796 0.11225,-0.234675 0.127021,-0.653665 l 0.01645,-0.466612 -0.2979,-0.153752 c -0.390322,-0.20145 -0.629996,-0.415272 -0.842912,-0.751988 -0.402171,-0.63602 -0.395371,-1.349129 0.01873,-1.966535 0.187164,-0.27903 0.372918,-0.451605 0.695196,-0.645881 0.332805,-0.200623 0.628807,-0.301983 1.012426,-0.346681 1.094392,-0.127518 2.103841,0.410323 2.523801,1.344697 0.125237,0.278635 0.152495,0.784905 0.05985,1.111232 -0.153202,0.539498 -0.614787,1.051528 -1.179926,1.308887 l -0.252432,0.114955 8.74e-4,0.673383 c 8.75e-4,0.720102 0.04051,0.945711 0.256528,1.470845 0.13949,0.339155 0.491871,0.910153 0.789307,1.279004 0.30315,0.375922 0.408147,0.630785 0.434529,1.054711 0.04586,0.736585 -0.362547,1.377838 -1.124483,1.765669 -0.205907,0.104805 -0.344732,0.198791 -0.356353,0.241246 -0.01047,0.03825 -0.02686,0.729564 -0.0364,1.536256 -0.01811,1.52626 -0.03045,1.654939 -0.237111,2.471978 -0.164902,0.651866 -0.391704,1.141649 -0.888327,1.918281 -0.906843,1.41817 -2.274825,2.499791 -4.03467,3.190092 -0.984835,0.386308 -1.833776,0.57711 -2.930032,0.658553 -0.288038,0.02147 -2.578001,0.03368 -6.199563,0.03329 -5.463844,-4.95e-4 -5.750999,-0.0032 -5.911455,-0.06074 z m 12.509828,-0.431967 c 0.961017,-0.110762 1.630924,-0.27933 2.443438,-0.614844 0.835842,-0.345147 1.387522,-0.664594 2.067457,-1.197165 1.154358,-0.904166 2.021535,-2.126579 2.432903,-3.429535 0.229112,-0.725693 0.260649,-1.023293 0.286366,-2.702698 0.01828,-1.194184 0.03605,-1.551947 0.08041,-1.62011 0.06396,-0.09832 0.170642,-0.167913 0.558487,-0.364381 0.608576,-0.308277 0.961543,-0.94308 0.846965,-1.523232 -0.05101,-0.25819 -0.173005,-0.489846 -0.418193,-0.793992 -0.461052,-0.571911 -0.85889,-1.35426 -0.991591,-1.94994 -0.03562,-0.159969 -0.07674,-0.557826 -0.09126,-0.884128 l -0.02651,-0.593275 -0.372287,-0.0038 -0.372279,-0.0038 -6.91e-4,0.333344 c -8.31e-4,0.37409 -0.07902,0.715264 -0.214053,0.933771 -0.135124,0.218676 -0.502503,0.510529 -0.803693,0.638472 l -0.264719,0.11245 -0.905871,0.01044 c -0.836533,0.0097 -0.923968,0.0052 -1.142352,-0.05885 -0.313441,-0.09187 -0.589492,-0.2615 -0.813476,-0.499861 -0.297261,-0.316349 -0.367457,-0.500038 -0.38921,-1.01853 l -0.01873,-0.446134 h -0.374116 -0.374125 v 1.63463 1.634631 l 0.3299,0.234505 c 1.029664,0.731911 1.926952,1.921176 2.356659,3.123494 0.213318,0.596866 0.270879,0.901757 0.215445,1.141242 -0.09548,0.412515 -0.399571,0.740931 -0.848915,0.916841 l -0.257438,0.100779 h -1.147227 -1.147225 l -0.02459,0.189516 c -0.09317,0.717994 -0.241119,1.203394 -0.548101,1.798123 -0.678326,1.314186 -2.077293,2.381702 -3.65414,2.788385 -0.897847,0.231566 -1.039018,0.250465 -1.85861,0.248792 -0.646754,-0.0017 -0.809495,-0.01235 -1.114903,-0.07561 -1.3103,-0.27138 -2.17801,-0.65059 -3.005172,-1.313347 l -0.344067,-0.2757 -0.944099,0.452997 c -0.607192,0.311096 -1.116017,0.686236 -1.475388,1.233309 -0.486972,0.741305 1.638211,1.736487 1.843951,1.914586 0.06685,0.05785 -1.630791,-0.0065 4.025982,-0.0067 5.636719,-1.36e-4 5.918553,-0.0027 6.455112,-0.06481 z m -4.615979,-2.323664 c 0.368858,-0.05074 1.027292,-0.214454 1.430776,-0.355767 0.55819,-0.195506 1.343201,-0.672312 1.782717,-1.082801 0.608148,-0.568 0.967694,-1.076479 1.217275,-1.721537 0.524404,-1.355367 0.384966,-2.478106 -0.427372,-3.441026 -0.763958,-0.905575 -2.235755,-1.45024 -3.503545,-1.296549 -1.259136,0.152643 -2.295082,0.770465 -2.918,1.740242 -0.433575,0.67501 -0.55539,1.63895 -0.284931,2.254794 0.314849,0.716908 1.053159,1.291698 1.877852,1.461929 0.320556,0.06616 0.936867,0.06708 1.25274,0.002 0.833751,-0.172175 1.570301,-0.726322 1.851566,-1.393028 0.417519,-0.989669 0.154078,-1.809647 -0.657867,-2.047638 -0.304113,-0.08914 -0.507927,-0.08921 -0.81134,-2.54e-4 -0.478001,0.140108 -0.795582,0.480412 -0.856931,0.918241 -0.03754,0.268164 -0.125263,0.395691 -0.272069,0.395691 -0.307953,0 -0.317063,-0.521677 -0.01767,-1.013087 0.246255,-0.404236 0.71793,-0.684144 1.28971,-0.765358 0.807919,-0.114757 1.640006,0.317301 1.90742,0.990408 0.114386,0.287914 0.111542,0.995198 -0.0052,1.377802 -0.178184,0.58231 -0.611734,1.136559 -1.154742,1.476196 -0.390314,0.24414 -0.945774,0.454603 -1.335851,0.506147 -0.452468,0.05979 -1.120818,0.02546 -1.471727,-0.07558 -1.031756,-0.297089 -1.798295,-0.961104 -2.102005,-1.820858 -0.07876,-0.222823 -0.09318,-0.34794 -0.09339,-0.807513 -1.66e-4,-0.475576 0.014,-0.591407 0.113274,-0.922851 0.302765,-1.010778 1.195066,-1.916717 2.322192,-2.357664 0.666303,-0.260671 1.113187,-0.344867 1.830969,-0.344973 0.601889,-9.7e-5 0.880722,0.04072 1.472523,0.215511 0.891197,0.263215 1.798811,0.926527 2.267921,1.657458 0.189841,0.295803 0.414315,0.840167 0.472497,1.145854 0.0273,0.143323 0.06764,0.279127 0.08976,0.301787 0.0511,0.05242 1.860807,0.05804 2.166207,0.0067 0.375139,-0.06303 0.703972,-0.360286 0.751146,-0.679021 0.04927,-0.332971 -0.328614,-1.362998 -0.760029,-2.0716 -0.42373,-0.69598 -1.083505,-1.390057 -1.797733,-1.891205 -0.530233,-0.372047 -1.161805,-0.709435 -1.711875,-0.914501 -0.894461,-0.333447 -2.022778,-0.539829 -2.950167,-0.539614 -0.998013,2.53e-4 -2.189105,0.227936 -3.126522,0.597705 -0.756537,0.298421 -1.717956,0.910477 -2.323268,1.47903 -0.556511,0.52271 -1.165305,1.376132 -1.445722,2.026658 -0.296719,0.688324 -0.503684,1.851678 -0.448591,2.521419 0.126707,1.54005 0.964019,2.804603 2.448784,3.698289 0.555215,0.334184 1.519733,0.663726 2.243184,0.766416 0.426304,0.06051 1.256834,0.06164 1.688388,0.0027 z M 52.21183,64.057056 c 0.949257,-0.1937 1.580277,-1.074058 1.361989,-1.90016 -0.112637,-0.426286 -0.543911,-0.913492 -0.953178,-1.076797 -0.545869,-0.217813 -1.154147,-0.219251 -1.693638,-0.004 -0.561183,0.223898 -1.009355,0.8604 -1.009355,1.433498 0,1.026476 1.125833,1.785869 2.294182,1.547464 z m 5.341863,0.0064 c 1.275954,-0.266367 1.840864,-1.560861 1.081414,-2.478093 -0.212303,-0.256414 -0.459021,-0.4268 -0.802756,-0.554392 -0.254559,-0.09449 -0.315042,-0.103436 -0.699379,-0.103436 -0.386086,0 -0.44412,0.0086 -0.705058,0.105519 -0.520476,0.193147 -0.89159,0.546551 -1.063335,1.012581 -0.05504,0.149295 -0.06738,0.277249 -0.05259,0.543835 0.01671,0.300892 0.03868,0.3847 0.160238,0.612287 0.353159,0.660987 1.254822,1.034262 2.081467,0.861696 z"
       inkscape:connector-curvature="0"
       sodipodi:nodetypes="sssscccccccscccccccccccccsccsccscccscccccccccsccsccccccccsccccccscccccccccsccccccccccccccccccccccccccccccccccccccccccccccccccsccccccccsccccccccccccccccccscccccccccccccccscccccscccccc" />
  </g>
  <g
     inkscape:groupmode="layer"
     id="layer16"
     inkscape:label="Too Slow 4"
     style="display:none"
     transform="translate(0,-272)">
    <path
       style="display:inline;opacity:1;fill:#736ced;fill-opacity:1;stroke:#736ced;stroke-width:1.26499999;stroke-linejoin:round;stroke-miterlimit:4;stroke-dasharray:none;stroke-opacity:1"
       id="path6909-5-2-5-2-9"
       sodipodi:type="arc"
       sodipodi:cx="50.233311"
       sodipodi:cy="97.937653"
       sodipodi:rx="13.650461"
       sodipodi:ry="12.481905"
       sodipodi:start="4.79068e-05"
       sodipodi:end="0"
       sodipodi:open="true"
       d="M 63.883772,97.938251 A 13.650461,12.481905 0 0 1 50.23282,110.41956 13.650461,12.481905 0 0 1 36.58285,97.937354 13.650461,12.481905 0 0 1 50.233474,85.455748 13.650461,12.481905 0 0 1 63.883772,97.937653"
       sodipodi:arc-type="arc" />
    <path
       id="path7369-5-7"
       style="display:inline;opacity:1;fill:#ffffff;fill-opacity:1;stroke:#ff6ced;stroke-width:0;stroke-linejoin:round;stroke-miterlimit:4;stroke-dasharray:none;stroke-opacity:1"
       d="m 51.647092,92.668774 c 0,-0.557431 0.0026,-0.785473 0.0061,-0.506757 0.0035,0.278715 0.0035,0.734797 0,1.013512 -0.0035,0.278716 -0.0061,0.05067 -0.0061,-0.506755 z M 38.455903,107.87634 c -0.217563,-0.0774 1.140622,-0.90249 1.104676,-1.05258 -0.06755,-0.28205 -1.373351,-0.87146 -1.087281,-1.44466 0.432858,-0.86733 1.049782,-1.08677 1.974826,-1.62566 l 0.294863,-0.17177 -0.190033,-0.23013 c -0.411901,-0.49883 -0.705872,-1.06939 -0.924983,-1.79529 -0.112854,-0.37389 -0.118209,-0.42833 -0.117782,-1.19918 3.44e-4,-0.621071 0.0175,-0.883617 0.0742,-1.137116 0.376637,-1.682995 1.241959,-2.965969 2.731397,-4.049691 0.637435,-0.463801 1.499747,-0.896864 2.248977,-1.129458 0.87066,-0.270294 2.218489,-0.46612 2.957989,-0.429768 0.540524,0.02657 1.353255,0.138791 1.868543,0.258 0.613877,0.142017 1.070239,0.301698 1.65455,0.57893 0.283225,0.134382 0.534083,0.235068 0.557455,0.223752 0.02756,-0.01337 0.04253,-0.545502 0.04253,-1.51871 v -1.49813 l -0.241914,-0.120673 c -0.39202,-0.195553 -0.557587,-0.311842 -0.73565,-0.516702 -0.357307,-0.411084 -0.511313,-0.789682 -0.511313,-1.256991 0,-0.353099 0.06204,-0.575223 0.251714,-0.900588 0.202818,-0.347999 0.409083,-0.549715 0.785921,-0.768609 0.580128,-0.336977 1.271045,-0.431519 1.949125,-0.266709 0.367335,0.08928 0.856152,0.359162 1.101165,0.607962 0.433671,0.440369 0.653351,1.046521 0.565566,1.560523 -0.108739,0.636679 -0.562906,1.230016 -1.138388,1.487232 -0.348512,0.155767 -0.33319,0.12647 -0.320704,0.613131 0.0088,0.345784 0.02923,0.473075 0.09863,0.616952 0.119138,0.246902 0.408348,0.49829 0.686559,0.596772 0.210011,0.07434 0.26919,0.07891 1.022288,0.07891 0.753483,0 0.81072,-0.0044 0.997287,-0.07708 0.253964,-0.09891 0.516127,-0.322498 0.65645,-0.559858 0.09929,-0.16796 0.11225,-0.234675 0.127021,-0.653665 l 0.01645,-0.466612 -0.2979,-0.153752 c -0.390322,-0.20145 -0.629995,-0.415272 -0.842911,-0.751988 -0.402171,-0.63602 -0.395372,-1.349129 0.01873,-1.966535 0.187164,-0.27903 0.372918,-0.451605 0.695196,-0.645881 0.332805,-0.200623 0.628807,-0.301983 1.012426,-0.346681 1.094392,-0.127518 2.103841,0.410323 2.523801,1.344697 0.125237,0.278635 0.152495,0.784905 0.05985,1.111232 -0.153202,0.539498 -0.614787,1.051528 -1.179926,1.308887 l -0.252432,0.114955 8.73e-4,0.673383 c 8.74e-4,0.720102 0.04051,0.945711 0.256529,1.470845 0.139489,0.339155 0.491871,0.910153 0.789306,1.279004 0.30315,0.375922 0.408147,0.630785 0.43453,1.054711 0.04586,0.736585 -0.362548,1.377838 -1.124484,1.765669 -0.205906,0.104805 -0.344732,0.198791 -0.356353,0.241246 -0.01047,0.03825 -0.02686,0.729564 -0.0364,1.536256 -0.01811,1.526258 -0.03045,1.654938 -0.23711,2.471978 -0.164903,0.65187 -0.391704,1.14165 -0.888328,1.91828 -0.906843,1.41817 -2.274825,2.49979 -4.034669,3.1901 -0.984835,0.3863 -1.833777,0.57711 -2.930033,0.65855 -0.288038,0.0215 -2.578001,0.0337 -6.199562,0.0333 -5.463844,-5e-4 -5.750999,-0.003 -5.911455,-0.0607 z m 12.509827,-0.43197 c 0.961017,-0.11076 1.630924,-0.27933 2.443438,-0.61484 0.835842,-0.34515 1.387522,-0.6646 2.067457,-1.19717 1.154358,-0.90417 2.021535,-2.12658 2.432903,-3.42953 0.229112,-0.7257 0.260649,-1.0233 0.286366,-2.702705 0.01828,-1.194184 0.03605,-1.551947 0.08041,-1.62011 0.06396,-0.09832 0.170642,-0.167913 0.558487,-0.364381 0.608576,-0.308277 0.961543,-0.94308 0.846965,-1.523232 -0.05101,-0.25819 -0.173005,-0.489846 -0.418193,-0.793992 -0.461052,-0.571911 -0.85889,-1.35426 -0.991591,-1.94994 -0.03562,-0.15997 -0.07674,-0.557826 -0.09126,-0.884129 l -0.02651,-0.593274 -0.372287,-0.0038 -0.372279,-0.0038 -6.88e-4,0.333344 c -8.2e-4,0.37409 -0.07902,0.715264 -0.214053,0.933771 -0.135124,0.218676 -0.502503,0.510528 -0.803693,0.638472 l -0.264719,0.112449 -0.905871,0.01044 c -0.836533,0.0097 -0.923968,0.0052 -1.142352,-0.05885 -0.313441,-0.09187 -0.589492,-0.261499 -0.813476,-0.49986 -0.297261,-0.316349 -0.367457,-0.500038 -0.38921,-1.01853 l -0.01873,-0.446134 h -0.374116 -0.374124 v 1.63463 1.634631 l 0.3299,0.234505 c 1.029663,0.731911 1.926951,1.921176 2.356658,3.123494 0.213319,0.596866 0.270879,0.901757 0.215446,1.141242 -0.09548,0.412515 -0.399572,0.740929 -0.848916,0.916839 l -0.257438,0.10078 h -1.14723 -1.147225 l -0.02459,0.18952 c -0.09317,0.71799 -0.241119,1.20339 -0.548101,1.79812 -0.678326,1.31419 -2.077293,2.3817 -3.65414,2.78839 -0.897847,0.23156 -1.039018,0.25046 -1.85861,0.24879 -0.646754,-0.002 -0.809495,-0.0123 -1.114903,-0.0756 -1.3103,-0.27138 -2.17801,-0.65059 -3.005172,-1.31335 l -0.344067,-0.2757 -0.944099,0.453 c -0.607192,0.3111 -1.116017,0.68624 -1.475388,1.23331 -0.486972,0.7413 1.638211,1.73649 1.843951,1.91458 0.06685,0.0579 -1.630791,-0.007 4.025982,-0.007 5.636719,-1.3e-4 5.918553,-0.003 6.455112,-0.0648 z m -4.615979,-2.32366 c 0.368858,-0.0507 1.027292,-0.21446 1.430776,-0.35577 0.55819,-0.19551 1.343201,-0.67231 1.782717,-1.0828 0.608148,-0.568 0.967694,-1.07648 1.217275,-1.72154 0.524404,-1.35537 0.384966,-2.478108 -0.427372,-3.441028 -0.763958,-0.905575 -2.235755,-1.45024 -3.503545,-1.296549 -1.259135,0.152643 -2.295081,0.770465 -2.917999,1.740242 -0.433575,0.67501 -0.55539,1.638955 -0.284931,2.254795 0.314849,0.71691 1.053159,1.2917 1.877852,1.46193 0.320556,0.0662 0.936866,0.0671 1.252739,0.002 0.833751,-0.17217 1.570301,-0.72632 1.851566,-1.39303 0.417519,-0.98967 0.154078,-1.809647 -0.657867,-2.047638 -0.304113,-0.08914 -0.507927,-0.08921 -0.81134,-2.54e-4 -0.478001,0.140108 -0.795582,0.480412 -0.856931,0.918242 -0.03754,0.26817 -0.125263,0.39569 -0.272069,0.39569 -0.307952,0 -0.317062,-0.52168 -0.01767,-1.013087 0.246255,-0.404236 0.71793,-0.684144 1.28971,-0.765358 0.807919,-0.114757 1.640006,0.317301 1.90742,0.990408 0.114386,0.287917 0.111542,0.995197 -0.0052,1.377807 -0.178184,0.58231 -0.611734,1.13656 -1.154742,1.47619 -0.390314,0.24414 -0.945774,0.45461 -1.335851,0.50615 -0.452468,0.0598 -1.120817,0.0255 -1.471726,-0.0756 -1.031756,-0.29709 -1.798295,-0.9611 -2.102005,-1.82086 -0.07876,-0.22282 -0.09318,-0.34794 -0.09339,-0.80751 -1.66e-4,-0.475579 0.014,-0.59141 0.113275,-0.922854 0.302765,-1.010778 1.195066,-1.916717 2.322192,-2.357664 0.666302,-0.260671 1.113186,-0.344867 1.830968,-0.344973 0.601889,-9.7e-5 0.880722,0.04072 1.472523,0.215511 0.891197,0.263215 1.798811,0.926527 2.267921,1.657458 0.189841,0.295803 0.414315,0.840167 0.472497,1.145854 0.0273,0.143323 0.06764,0.279128 0.08976,0.301788 0.0511,0.0524 1.860807,0.058 2.166208,0.007 0.375138,-0.063 0.703971,-0.360287 0.751146,-0.679022 0.04927,-0.332971 -0.328615,-1.362998 -0.76003,-2.0716 -0.42373,-0.69598 -1.083505,-1.390057 -1.797732,-1.891205 -0.530232,-0.372037 -1.161803,-0.709425 -1.711874,-0.914491 -0.894461,-0.333447 -2.022778,-0.539829 -2.950167,-0.539614 -0.998013,2.53e-4 -2.189104,0.227936 -3.126521,0.597705 -0.756537,0.298421 -1.717957,0.910477 -2.323269,1.47903 -0.556511,0.52271 -1.165305,1.376132 -1.445722,2.026658 -0.296719,0.688324 -0.503684,1.851678 -0.448591,2.521419 0.126707,1.54005 0.964019,2.80461 2.448784,3.69829 0.555215,0.33419 1.519734,0.66373 2.243185,0.76642 0.426304,0.0605 1.256834,0.0616 1.688387,0.003 z m 6.580505,-13.81275 c 0.949257,-0.193699 1.580277,-1.074058 1.361989,-1.900159 -0.112637,-0.426287 -0.543911,-0.913492 -0.953178,-1.076798 -0.545869,-0.217812 -1.154147,-0.21925 -1.693638,-0.004 -0.561183,0.223899 -1.009355,0.860401 -1.009355,1.433498 0,1.026477 1.125833,1.78587 2.294182,1.547464 z m 5.341863,0.0064 c 1.275954,-0.266366 1.840864,-1.56086 1.081414,-2.478092 -0.212303,-0.256414 -0.459021,-0.4268 -0.802756,-0.554392 -0.254559,-0.09449 -0.315042,-0.103436 -0.699379,-0.103436 -0.386086,0 -0.44412,0.0086 -0.705058,0.105519 -0.520476,0.193147 -0.89159,0.546551 -1.063335,1.012581 -0.05504,0.149295 -0.06738,0.277249 -0.05259,0.543835 0.01671,0.300892 0.03868,0.3847 0.160238,0.612287 0.353159,0.660987 1.254822,1.034262 2.081467,0.861696 z"
       inkscape:connector-curvature="0"
       sodipodi:nodetypes="sssscccccccccsccsccscccscccccccccsccsccccccccsccccccscccccccccsccccccccccccccccccccccccccccccccccccccccccccccccccsccccccccsccccccccccccccccccscccccccccccccccscccccscccccc" />
  </g>
  <g
     inkscape:groupmode="layer"
     id="layer17"
     inkscape:label="Warning 1"
     style="display:none"
     transform="translate(0,-272)">
    <path
       style="display:inline;opacity:1;fill:#ffffff;fill-opacity:1;stroke:#736ced;stroke-width:1.26499999;stroke-linejoin:round;stroke-miterlimit:4;stroke-dasharray:none;stroke-opacity:1"
       id="path6909-5-0"
       sodipodi:type="arc"
       sodipodi:cx="84.751167"
       sodipodi:cy="71.090439"
       sodipodi:rx="14.015892"
       sodipodi:ry="13.385468"
       sodipodi:start="4.79068e-05"
       sodipodi:end="0"
       sodipodi:open="true"
       d="M 98.767059,71.09108 A 14.015892,13.385468 0 0 1 84.750664,84.475906 14.015892,13.385468 0 0 1 70.735275,71.090118 14.015892,13.385468 0 0 1 84.751335,57.704971 14.015892,13.385468 0 0 1 98.767059,71.090439"
       sodipodi:arc-type="arc" />
    <path
       style="display:inline;fill:none;stroke:#736ced;stroke-width:1.26499999;stroke-linecap:butt;stroke-linejoin:miter;stroke-miterlimit:4;stroke-dasharray:none;stroke-opacity:1"
       d="M 84.601079,59.614934 C 83.511691,58.988323 73.36439,76.203215 73.973805,77.127415 c -0.08242,1.298533 20.740919,1.551064 20.466822,0.480484 0.278716,-1.424326 -7.631503,-18.358695 -9.839548,-17.992965 z"
       id="path7505-4"
       inkscape:connector-curvature="0"
       sodipodi:nodetypes="cccc" />
    <text
       xml:space="preserve"
       style="font-style:normal;font-variant:normal;font-weight:bold;font-stretch:normal;font-size:18.40019989px;line-height:1.25;font-family:sans-serif;-inkscape-font-specification:'sans-serif Bold';letter-spacing:0px;word-spacing:0px;display:inline;fill:#000000;fill-opacity:1;stroke:none;stroke-width:0.26458299"
       x="76.973824"
       y="81.603836"
       id="text7539"
       transform="scale(1.0711609,0.93356658)"><tspan
         sodipodi:role="line"
         id="tspan7537"
         x="76.973824"
         y="81.603836"
         style="font-style:normal;font-variant:normal;font-weight:bold;font-stretch:normal;font-family:'Kaleko 205 Round';-inkscape-font-specification:'Kaleko 205 Round Bold';fill:#736ced;fill-opacity:1;stroke-width:0.26458299">!</tspan></text>
  </g>
  <g
     inkscape:groupmode="layer"
     id="layer18"
     inkscape:label="Warning 2"
     style="display:none"
     transform="translate(0,-272)">
    <path
       style="display:inline;opacity:1;fill:#f2dfd7;fill-opacity:1;stroke:#736ced;stroke-width:1.26499999;stroke-linejoin:round;stroke-miterlimit:4;stroke-dasharray:none;stroke-opacity:1"
       id="path6909-5-0-1"
       sodipodi:type="arc"
       sodipodi:cx="85.312431"
       sodipodi:cy="99.80854"
       sodipodi:rx="14.015892"
       sodipodi:ry="13.385468"
       sodipodi:start="4.79068e-05"
       sodipodi:end="0"
       sodipodi:open="true"
       d="M 99.328323,99.809182 A 14.015892,13.385468 0 0 1 85.311928,113.19401 14.015892,13.385468 0 0 1 71.296539,99.80822 14.015892,13.385468 0 0 1 85.312599,86.423073 14.015892,13.385468 0 0 1 99.328323,99.80854"
       sodipodi:arc-type="arc" />
    <path
       style="display:inline;fill:none;stroke:#736ced;stroke-width:1.26499999;stroke-linecap:butt;stroke-linejoin:miter;stroke-miterlimit:4;stroke-dasharray:none;stroke-opacity:1"
       d="M 85.162344,88.333038 C 84.072956,87.706427 73.925655,104.92132 74.53507,105.84552 c -0.08242,1.29853 20.740921,1.55106 20.466821,0.48048 0.27872,-1.42432 -7.6315,-18.358692 -9.839547,-17.992962 z"
       id="path7505-4-1"
       inkscape:connector-curvature="0"
       sodipodi:nodetypes="cccc" />
    <text
       xml:space="preserve"
       style="font-style:normal;font-variant:normal;font-weight:bold;font-stretch:normal;font-size:18.40019989px;line-height:1.25;font-family:sans-serif;-inkscape-font-specification:'sans-serif Bold';letter-spacing:0px;word-spacing:0px;display:inline;fill:#000000;fill-opacity:1;stroke:none;stroke-width:0.26458299"
       x="77.497803"
       y="112.36554"
       id="text7539-3"
       transform="scale(1.0711609,0.93356658)"><tspan
         sodipodi:role="line"
         id="tspan7537-7"
         x="77.497803"
         y="112.36554"
         style="font-style:normal;font-variant:normal;font-weight:bold;font-stretch:normal;font-family:'Kaleko 205 Round';-inkscape-font-specification:'Kaleko 205 Round Bold';fill:#736ced;fill-opacity:1;stroke-width:0.26458299">!</tspan></text>
  </g>
  <g
     inkscape:groupmode="layer"
     id="layer19"
     inkscape:label="Warning 3"
     style="display:none"
     transform="translate(0,-272)">
    <path
       style="display:inline;fill:none;stroke:#736ced;stroke-width:1.26499999;stroke-linecap:butt;stroke-linejoin:miter;stroke-miterlimit:4;stroke-dasharray:none;stroke-opacity:1"
       d="m 119.75379,56.438713 c -1.318,-0.821215 -13.59478,21.740068 -12.85748,22.951294 -0.0997,1.701825 25.09353,2.032783 24.76191,0.629715 0.33721,-1.866681 -9.23302,-24.060323 -11.90443,-23.581009 z"
       id="path7505-4-15-7"
       inkscape:connector-curvature="0"
       sodipodi:nodetypes="cccc" />
    <text
       xml:space="preserve"
       style="font-style:normal;font-variant:normal;font-weight:bold;font-stretch:normal;font-size:23.16970062px;line-height:1.25;font-family:sans-serif;-inkscape-font-specification:'sans-serif Bold';letter-spacing:0px;word-spacing:0px;display:inline;fill:#000000;fill-opacity:1;stroke:none;stroke-width:0.26458299"
       x="113.8312"
       y="80.43235"
       id="text7539-2-3"
       transform="scale(1.0291812,0.9716462)"><tspan
         sodipodi:role="line"
         id="tspan7537-9-3"
         x="113.8312"
         y="80.43235"
         style="font-style:normal;font-variant:normal;font-weight:bold;font-stretch:normal;font-family:'Kaleko 205 Round';-inkscape-font-specification:'Kaleko 205 Round Bold';fill:#736ced;fill-opacity:1;stroke-width:0.26458299">!</tspan></text>
  </g>
  <g
     inkscape:groupmode="layer"
     id="layer20"
     inkscape:label="Warning 4"
     style="display:none"
     transform="translate(0,-272)">
    <path
       style="display:inline;fill:#736ced;fill-opacity:1;stroke:#736ced;stroke-width:1.26499999;stroke-linecap:butt;stroke-linejoin:miter;stroke-miterlimit:4;stroke-dasharray:none;stroke-opacity:1"
       d="m 120.0513,84.7822 c -1.318,-0.821215 -13.59478,21.74007 -12.85748,22.95129 -0.0997,1.70183 25.09353,2.03279 24.76191,0.62972 0.33721,-1.86668 -9.23302,-24.060324 -11.90443,-23.58101 z"
       id="path7505-4-15-7-9"
       inkscape:connector-curvature="0"
       sodipodi:nodetypes="cccc" />
    <text
       xml:space="preserve"
       style="font-style:normal;font-variant:normal;font-weight:bold;font-stretch:normal;font-size:23.16970062px;line-height:1.25;font-family:sans-serif;-inkscape-font-specification:'sans-serif Bold';letter-spacing:0px;word-spacing:0px;display:inline;fill:#ffffff;fill-opacity:1;stroke:none;stroke-width:0.26458299"
       x="114.12027"
       y="109.60294"
       id="text7539-2-3-5"
       transform="scale(1.0291812,0.9716462)"><tspan
         sodipodi:role="line"
         id="tspan7537-9-3-9"
         x="114.12027"
         y="109.60294"
         style="font-style:normal;font-variant:normal;font-weight:bold;font-stretch:normal;font-family:'Kaleko 205 Round';-inkscape-font-specification:'Kaleko 205 Round Bold';fill:#ffffff;fill-opacity:1;stroke-width:0.26458299">!</tspan></text>
  </g>
  <g
     inkscape:groupmode="layer"
     id="layer21"
     inkscape:label="Warning 5"
     style="display:none"
     transform="translate(0,-272)">
    <path
       style="display:inline;fill:#736ced;fill-opacity:1;stroke:#736ced;stroke-width:1.26499999;stroke-linecap:butt;stroke-linejoin:miter;stroke-miterlimit:4;stroke-dasharray:none;stroke-opacity:1"
       d="m 157.0884,83.577026 c -1.318,-0.821215 -13.59478,21.740074 -12.85748,22.951294 -0.0997,1.70183 25.09353,2.03279 24.76191,0.62972 0.33721,-1.86668 -9.23302,-24.060328 -11.90443,-23.581014 z"
       id="path7505-4-15-7-9-1"
       inkscape:connector-curvature="0"
       sodipodi:nodetypes="cccc" />
    <text
       xml:space="preserve"
       style="font-style:normal;font-variant:normal;font-weight:bold;font-stretch:normal;font-size:23.16970062px;line-height:1.25;font-family:sans-serif;-inkscape-font-specification:'sans-serif Bold';letter-spacing:0px;word-spacing:0px;display:inline;fill:#ffffff;fill-opacity:1;stroke:none;stroke-width:0.26458299"
       x="147.9455"
       y="108.96279"
       id="text7539-2-3-5-3"
       transform="scale(1.0291812,0.9716462)"><tspan
         sodipodi:role="line"
         id="tspan7537-9-3-9-7"
         x="147.9455"
         y="108.96279"
         style="font-style:normal;font-variant:normal;font-weight:bold;font-stretch:normal;font-family:'Kaleko 205 Round';-inkscape-font-specification:'Kaleko 205 Round Bold';fill:#ffffff;fill-opacity:1;stroke-width:0.26458299">!</tspan></text>
  </g>
  <g
     inkscape:groupmode="layer"
     id="layer22"
     inkscape:label="Warning 6"
     style="display:none"
     transform="translate(0,-272)">
    <path
       style="display:inline;fill:#f2dfd7;fill-opacity:1;stroke:#736ced;stroke-width:1.26499999;stroke-linejoin:round;stroke-miterlimit:4;stroke-dasharray:none;stroke-opacity:1"
       id="path6909-5-0-1-6"
       sodipodi:type="arc"
       sodipodi:cx="82.78756"
       sodipodi:cy="136.95428"
       sodipodi:rx="14.015892"
       sodipodi:ry="13.385468"
       sodipodi:start="4.79068e-05"
       sodipodi:end="0"
       sodipodi:open="true"
       sodipodi:arc-type="arc"
       d="m 96.803452,136.95493 a 14.015892,13.385468 0 0 1 -14.016396,13.38482 14.015892,13.385468 0 0 1 -14.015389,-13.38579 14.015892,13.385468 0 0 1 14.01606,-13.38514 14.015892,13.385468 0 0 1 14.015725,13.38546" />
    <path
       style="display:inline;fill:none;stroke:#736ced;stroke-width:1.26499999;stroke-linecap:butt;stroke-linejoin:miter;stroke-miterlimit:4;stroke-dasharray:none;stroke-opacity:1"
       d="m 82.637477,125.47878 c -1.089388,-0.62661 -11.236689,16.58829 -10.627274,17.51249 -0.08242,1.29853 20.740918,1.55106 20.466818,0.48048 0.27872,-1.42432 -7.631497,-18.3587 -9.839544,-17.99297 z"
       id="path7505-4-1-7"
       inkscape:connector-curvature="0"
       sodipodi:nodetypes="cccc" />
    <text
       xml:space="preserve"
       style="font-style:normal;font-variant:normal;font-weight:bold;font-stretch:normal;font-size:18.40019989px;line-height:1.25;font-family:sans-serif;-inkscape-font-specification:'sans-serif Bold';letter-spacing:0px;word-spacing:0px;display:inline;fill:#000000;fill-opacity:1;stroke:none;stroke-width:0.26458299"
       x="73.81575"
       y="152.1546"
       id="text7539-3-8"
       transform="scale(1.0711609,0.93356658)"><tspan
         sodipodi:role="line"
         id="tspan7537-7-4"
         x="73.81575"
         y="152.1546"
         style="font-style:normal;font-variant:normal;font-weight:bold;font-stretch:normal;font-family:'Kaleko 205 Round';-inkscape-font-specification:'Kaleko 205 Round Bold';fill:#736ced;fill-opacity:1;stroke-width:0.26458299">!</tspan></text>
  </g>
  <g
     inkscape:groupmode="layer"
     id="layer23"
     inkscape:label="Warning 7"
     style="display:none"
     transform="translate(0,-272)">
    <path
       style="display:inline;fill:none;stroke:#736ced;stroke-width:1.50241995;stroke-linecap:butt;stroke-linejoin:miter;stroke-miterlimit:4;stroke-dasharray:none;stroke-opacity:1"
       d="m 123.49279,124.86348 c -1.27782,-0.75355 -13.18031,19.94886 -12.46549,21.06029 -0.0966,1.56161 24.3285,1.8653 24.00699,0.57784 0.32693,-1.71289 -8.95153,-22.07795 -11.5415,-21.63813 z"
       id="path7505-4-15"
       inkscape:connector-curvature="0"
       sodipodi:nodetypes="cccc" />
    <text
       xml:space="preserve"
       style="font-style:normal;font-variant:normal;font-weight:bold;font-stretch:normal;font-size:21.85370064px;line-height:1.25;font-family:sans-serif;-inkscape-font-specification:'sans-serif Bold';letter-spacing:0px;word-spacing:0px;display:inline;fill:#000000;fill-opacity:1;stroke:none;stroke-width:0.31424201"
       x="114.35155"
       y="153.16914"
       id="text7539-2"
       transform="scale(1.0578887,0.94527902)"><tspan
         sodipodi:role="line"
         id="tspan7537-9"
         x="114.35155"
         y="153.16914"
         style="font-style:normal;font-variant:normal;font-weight:bold;font-stretch:normal;font-family:'Kaleko 205 Round';-inkscape-font-specification:'Kaleko 205 Round Bold';fill:#736ced;fill-opacity:1;stroke-width:0.31424201">!</tspan></text>
  </g>
  <g
     inkscape:groupmode="layer"
     id="layer24"
     inkscape:label="Warning 8"
     style="display:none"
     transform="translate(0,-272)">
    <path
       style="display:inline;fill:none;stroke:#736ced;stroke-width:1.70750999;stroke-linecap:butt;stroke-linejoin:miter;stroke-miterlimit:4;stroke-dasharray:none;stroke-opacity:1"
       d="m 159.38765,121.94295 c -1.50566,-0.82603 -15.53055,21.86745 -14.68827,23.08577 -0.11389,1.7118 28.66662,2.0447 28.2878,0.63341 0.38522,-1.87762 -10.54773,-24.2013 -13.59953,-23.71918 z"
       id="path7505-4-15-2"
       inkscape:connector-curvature="0"
       sodipodi:nodetypes="cccc" />
    <text
       xml:space="preserve"
       style="font-style:normal;font-variant:normal;font-weight:bold;font-stretch:normal;font-size:24.83679962px;line-height:1.25;font-family:sans-serif;-inkscape-font-specification:'sans-serif Bold';letter-spacing:0px;word-spacing:0px;display:inline;fill:#000000;fill-opacity:1;stroke:none;stroke-width:0.35713699"
       x="140.8222"
       y="158.04463"
       id="text7539-2-9"
       transform="scale(1.0968079,0.91173668)"><tspan
         sodipodi:role="line"
         id="tspan7537-9-8"
         x="140.8222"
         y="158.04463"
         style="font-style:normal;font-variant:normal;font-weight:bold;font-stretch:normal;font-family:'Kaleko 205 Round';-inkscape-font-specification:'Kaleko 205 Round Bold';fill:#736ced;fill-opacity:1;stroke-width:0.35713699">!</tspan></text>
  </g>
</svg>
