<?xml version="1.0" encoding="utf-8"?>
<!-- Generator: Adobe Illustrator 22.1.0, SVG Export Plug-In . SVG Version: 6.00 Build 0)  -->
<svg version="1.1"
	 id="svg154" inkscape:version="0.92.4 (5da689c313, 2019-01-14)" sodipodi:docname="arrows_left.svg" xmlns:cc="http://creativecommons.org/ns#" xmlns:dc="http://purl.org/dc/elements/1.1/" xmlns:inkscape="http://www.inkscape.org/namespaces/inkscape" xmlns:rdf="http://www.w3.org/1999/02/22-rdf-syntax-ns#" xmlns:sodipodi="http://sodipodi.sourceforge.net/DTD/sodipodi-0.dtd" xmlns:svg="http://www.w3.org/2000/svg"
	 xmlns="http://www.w3.org/2000/svg" xmlns:xlink="http://www.w3.org/1999/xlink" x="0px" y="0px" viewBox="0 0 70.9 70.9"
	 style="enable-background:new 0 0 70.9 70.9;" xml:space="preserve">
<style type="text/css">
	.st0{fill:#736CED;stroke:#736CED;stroke-width:1.265;stroke-linejoin:round;}
	.st1{enable-background:new    ;}
	.st2{fill:#FFFFFF;}
</style>
<sodipodi:namedview  bordercolor="#666666" borderopacity="1.0" id="base" inkscape:current-layer="layer1" inkscape:cx="63.344566" inkscape:cy="51.261308" inkscape:document-units="mm" inkscape:pageopacity="0.0" inkscape:pageshadow="2" inkscape:window-height="1271" inkscape:window-maximized="1" inkscape:window-width="2400" inkscape:window-x="2391" inkscape:window-y="-9" inkscape:zoom="5.6" pagecolor="#ffffff" showgrid="false">
	</sodipodi:namedview>
<g id="layer1" transform="translate(0,-272)" inkscape:groupmode="layer" inkscape:label="Layer 1">
	
		<path id="path6909-5-2-7" sodipodi:arc-type="arc" sodipodi:cx="-12.5" sodipodi:cy="284.5" sodipodi:end="0" sodipodi:open="true" sodipodi:rx="11.8675" sodipodi:ry="11.867499" sodipodi:start="4.79068e-05" sodipodi:type="arc" class="st0" d="
		M1.8,307.4c0,18.6,15.1,33.6,33.6,33.6s33.6-15.1,33.6-33.6c0-18.6-15.1-33.6-33.6-33.6C16.9,273.8,1.8,288.9,1.8,307.4"/>
	<g class="st1">
		<path class="st2" d="M59.8,320.7c1.3,1,1.7,3.5,0.9,5.4c-1.1,2.5-3.1,2.4-4.1,1.7l-17.4-15.3c-1.3-1-2.8-3.2-2.8-5.5
			c0-2.3,1.4-4.3,2.6-5.2l16.8-14c1.6-1.2,3.5,0.5,4.2,2c0.9,2,0.6,4.4-0.7,5.3l-15.5,12l0,0.5L59.8,320.7z"/>
		<path class="st2" d="M31.1,319.6c1.3,1,1.7,3.5,0.9,5.4c-1.1,2.5-3.1,2.4-4.1,1.7l-17.4-15.3c-1.3-1-2.8-3.2-2.8-5.5
			c0-2.3,1.4-4.3,2.6-5.3l16.8-14c1.6-1.2,3.5,0.5,4.2,2c0.9,2,0.6,4.4-0.7,5.3l-15.5,12l0,0.5L31.1,319.6z"/>
	</g>
</g>
</svg>
