<?xml version="1.0" encoding="utf-8"?>
<!-- Generator: Adobe Illustrator 22.1.0, SVG Export Plug-In . SVG Version: 6.00 Build 0)  -->
<svg version="1.1"
	 id="svg6047" inkscape:version="0.92.4 (5da689c313, 2019-01-14)" sodipodi:docname="Confused_3.svg" xmlns:cc="http://creativecommons.org/ns#" xmlns:dc="http://purl.org/dc/elements/1.1/" xmlns:inkscape="http://www.inkscape.org/namespaces/inkscape" xmlns:rdf="http://www.w3.org/1999/02/22-rdf-syntax-ns#" xmlns:sodipodi="http://sodipodi.sourceforge.net/DTD/sodipodi-0.dtd" xmlns:svg="http://www.w3.org/2000/svg"
	 xmlns="http://www.w3.org/2000/svg" xmlns:xlink="http://www.w3.org/1999/xlink" x="0px" y="0px" viewBox="0 0 80.8 76"
	 style="enable-background:new 0 0 80.8 76;" xml:space="preserve">
<style type="text/css">
	.st0{display:none;}
	.st1{display:inline;fill:none;}
	.st2{display:inline;fill:#736CED;}
	.st3{display:inline;fill:#F2DFD7;stroke:#736CED;stroke-width:1.4918;stroke-linejoin:round;}
	.st4{display:inline;fill:#726BEB;}
	.st5{display:inline;fill:none;stroke:#736CED;stroke-width:1.265;stroke-linejoin:round;}
	.st6{display:inline;fill:#766CED;stroke:#736CED;stroke-width:1.265;stroke-linejoin:round;}
	.st7{display:inline;fill:#F2DFD7;stroke:#736CED;stroke-width:1.265;stroke-linejoin:round;}
	.st8{display:inline;fill:#736CED;stroke:#736CED;stroke-width:1.265;stroke-linejoin:round;}
	.st9{display:inline;fill:#FFFFFF;}
	.st10{display:inline;fill:#FFFFFF;stroke:#736CED;stroke-width:1.265;stroke-linejoin:round;}
	.st11{display:inline;fill:#736CED;stroke:#736CED;stroke-width:1.2671;stroke-linejoin:round;}
	.st12{display:inline;fill:#736CED;stroke:#736CED;stroke-width:1.2661;stroke-linejoin:round;}
	.st13{display:inline;fill:#736CED;stroke:#736CED;stroke-width:1.266;stroke-linejoin:round;}
	.st14{fill:#736CED;stroke:#736CED;stroke-width:1.265;stroke-linejoin:round;}
	.st15{fill:#FFFFFF;}
	.st16{enable-background:new    ;}
	.st17{fill:#736CED;}
	.st18{display:inline;fill:none;stroke:#736CED;stroke-width:1.265;}
	.st19{display:inline;fill:#736CED;stroke:#736CED;stroke-width:1.265;}
	.st20{display:inline;fill:none;stroke:#736CED;stroke-width:1.5024;}
	.st21{display:inline;fill:none;stroke:#736CED;stroke-width:1.7075;}
</style>
<sodipodi:namedview  bordercolor="#666666" borderopacity="1.0" id="base" inkscape:current-layer="layer8" inkscape:cx="133.60806" inkscape:cy="70.636377" inkscape:document-rotation="0" inkscape:document-units="mm" inkscape:pageopacity="0.0" inkscape:pageshadow="2" inkscape:window-height="1271" inkscape:window-maximized="1" inkscape:window-width="2400" inkscape:window-x="2391" inkscape:window-y="-9" inkscape:zoom="4.5716598" pagecolor="#ffffff" showborder="true" showgrid="false">
	</sodipodi:namedview>
<g id="layer1" transform="translate(0,-270.2)" inkscape:groupmode="layer" inkscape:label="Snail Icon" class="st0">
	<path id="path6144" inkscape:connector-curvature="0" class="st1" d="M0-495.7"/>
	<path id="path6127" inkscape:connector-curvature="0" class="st1" d="M0-495.7"/>
	<path id="path7373" inkscape:connector-curvature="0" class="st2" d="M358.6-12.4c0-2,0-2.8,0-1.8c0,1,0,2.6,0,3.6
		C358.6-9.6,358.6-10.4,358.6-12.4L358.6-12.4z M377.7-21.3c-0.2-0.1-0.6-0.5-0.7-0.8c-0.9-1.6,1.1-3.3,2.7-2.4
		c1.2,0.7,1.3,2.2,0.2,3C379.5-21,378.3-20.9,377.7-21.3L377.7-21.3z M360.4-21.2c-0.5-0.2-1.1-1-1.1-1.5c0-0.5,0.6-1.3,1.1-1.6
		c1.3-0.7,2.9,0.2,2.9,1.6C363.3-21.4,361.8-20.6,360.4-21.2L360.4-21.2z M315.9,41.6c-0.7-0.3-1.4-1-1.5-1.5
		c-0.2-1,0.4-3.6,1.3-5.6c1.4-3.1,3.7-5.6,6.7-7.6l1-0.6l-0.6-0.8c-1.3-1.8-2.3-3.8-3-6.4c-0.4-1.3-0.4-1.5-0.4-4.3
		c0-2.2,0.1-3.1,0.2-4c1.2-6,4-10.5,8.8-14.4c2.1-1.6,4.9-3.2,7.3-4c2.8-1,7.2-1.7,9.6-1.5c1.8,0.1,4.4,0.5,6.1,0.9
		c2,0.5,3.5,1.1,5.4,2.1c0.9,0.5,1.7,0.8,1.8,0.8c0.1,0,0.1-1.9,0.1-5.4V-16l-0.8-0.4c-1.3-0.7-1.8-1.1-2.4-1.8
		c-1.2-1.5-1.7-2.8-1.7-4.5c0-1.3,0.2-2,0.8-3.2c0.7-1.2,1.3-2,2.5-2.7c1.9-1.2,4.1-1.5,6.3-0.9c1.2,0.3,2.8,1.3,3.6,2.2
		c1.4,1.6,2.1,3.7,1.8,5.5c-0.4,2.3-1.8,4.4-3.7,5.3c-1.1,0.6-1.1,0.4-1,2.2c0,1.2,0.1,1.7,0.3,2.2c0.4,0.9,1.3,1.8,2.2,2.1
		c0.7,0.3,0.9,0.3,3.3,0.3c2.4,0,2.6,0,3.2-0.3c0.8-0.4,1.7-1.1,2.1-2c0.3-0.6,0.4-0.8,0.4-2.3l0.1-1.7l-1-0.5
		c-1.3-0.7-2-1.5-2.7-2.7c-1.3-2.3-1.3-4.8,0.1-7c0.6-1,1.2-1.6,2.3-2.3c1.1-0.7,2-1.1,3.3-1.2c3.5-0.5,6.8,1.5,8.2,4.8
		c0.4,1,0.5,2.8,0.2,3.9c-0.5,1.9-2,3.7-3.8,4.6l-0.8,0.4l0,2.4c0,2.6,0.1,3.4,0.8,5.2c0.5,1.2,1.6,3.2,2.6,4.5
		c1,1.3,1.3,2.2,1.4,3.7c0.1,2.6-1.2,4.9-3.6,6.3c-0.7,0.4-1.1,0.7-1.2,0.9c0,0.1-0.1,2.6-0.1,5.5c-0.1,5.4-0.1,5.9-0.8,8.8
		c-0.5,2.3-1.3,4.1-2.9,6.8c-2.9,5-7.4,8.9-13.1,11.3c-3.2,1.4-5.9,2-9.5,2.3c-0.9,0.1-8.4,0.1-20.1,0.1
		C317.3,41.8,316.4,41.8,315.9,41.6L315.9,41.6z M356.4,40.1c3.1-0.4,5.3-1,7.9-2.2c2.7-1.2,4.5-2.4,6.7-4.3
		c3.7-3.2,6.5-7.6,7.9-12.2c0.7-2.6,0.8-3.6,0.9-9.6c0.1-4.2,0.1-5.5,0.3-5.8c0.2-0.3,0.6-0.6,1.8-1.3c2-1.1,3.1-3.3,2.7-5.4
		c-0.2-0.9-0.6-1.7-1.4-2.8c-1.5-2-2.8-4.8-3.2-6.9c-0.1-0.6-0.2-2-0.3-3.1l-0.1-2.1l-1.2,0l-1.2,0l0,1.2c0,1.3-0.3,2.5-0.7,3.3
		c-0.4,0.8-1.6,1.8-2.6,2.3l-0.9,0.4l-2.9,0c-2.7,0-3,0-3.7-0.2c-1-0.3-1.9-0.9-2.6-1.8c-1-1.1-1.2-1.8-1.3-3.6l-0.1-1.6h-1.2h-1.2
		v5.8V-4l1.1,0.8c3.3,2.6,6.2,6.8,7.6,11.1c0.7,2.1,0.9,3.2,0.7,4.1c-0.3,1.5-1.3,2.6-2.8,3.3l-0.8,0.4h-3.7h-3.7l-0.1,0.7
		c-0.3,2.5-0.8,4.3-1.8,6.4c-2.2,4.7-6.7,8.5-11.8,9.9c-2.9,0.8-3.4,0.9-6,0.9c-2.1,0-2.6,0-3.6-0.3c-4.2-1-7.1-2.3-9.7-4.7l-1.1-1
		l-0.8,0.5c-2,1.1-4.3,3.3-5.4,5.3c-1.6,2.6-2.6,6.2-1.9,6.8c0.2,0.2,1,0.2,19.3,0.2C353.8,40.3,354.7,40.3,356.4,40.1L356.4,40.1z
		 M341.5,31.8c1.2-0.2,3.3-0.8,4.6-1.3c1.8-0.7,4.4-2.4,5.8-3.8c2-2,3.1-3.8,3.9-6.1c1.7-4.8,1.2-8.8-1.4-12.2
		c-2.5-3.2-7.2-5.2-11.3-4.6c-4.1,0.5-7.4,2.7-9.5,6.2c-1.4,2.4-1.8,5.8-0.9,8c1,2.5,3.4,4.6,6.1,5.2c1,0.2,3,0.2,4.1,0
		c2.7-0.6,5.1-2.6,6-4.9c1.4-3.5,0.5-6.4-2.1-7.3c-1-0.3-1.6-0.3-2.6,0c-1.5,0.5-2.6,1.7-2.8,3.3c-0.1,1-0.4,1.4-0.9,1.4
		c-1,0-1-1.9-0.1-3.6c0.8-1.4,2.3-2.4,4.2-2.7c2.6-0.4,5.3,1.1,6.2,3.5c0.4,1,0.4,3.5,0,4.9c-0.6,2.1-2,4-3.7,5.2
		c-1.3,0.9-3.1,1.6-4.3,1.8c-1.5,0.2-3.6,0.1-4.8-0.3c-3.3-1.1-5.8-3.4-6.8-6.5c-0.3-0.8-0.3-1.2-0.3-2.9c0-1.7,0-2.1,0.4-3.3
		c1-3.6,3.9-6.8,7.5-8.4c2.2-0.9,3.6-1.2,5.9-1.2c1.9,0,2.9,0.1,4.8,0.8c2.9,0.9,5.8,3.3,7.3,5.9c0.6,1.1,1.3,3,1.5,4.1
		c0.1,0.5,0.2,1,0.3,1.1c0.2,0.2,6,0.2,7,0c1.2-0.2,2.3-1.3,2.4-2.4c0.2-1.2-1.1-4.8-2.5-7.4c-1.4-2.5-3.5-4.9-5.8-6.7
		c-1.7-1.3-3.8-2.5-5.5-3.2c-2.9-1.2-6.6-1.9-9.6-1.9c-3.2,0-7.1,0.8-10.1,2.1c-2.5,1.1-5.6,3.2-7.5,5.3c-1.8,1.9-3.8,4.9-4.7,7.2
		c-1,2.4-1.6,6.6-1.5,9c0.4,5.5,3.1,10,7.9,13.1c1.8,1.2,4.9,2.4,7.3,2.7C337.4,32,340.1,32,341.5,31.8L341.5,31.8z M362.8-17.2
		c3.1-0.7,5.1-3.8,4.4-6.7c-0.4-1.5-1.8-3.2-3.1-3.8c-1.8-0.8-3.7-0.8-5.5,0c-1.8,0.8-3.3,3.1-3.3,5.1
		C355.4-19.1,359-16.4,362.8-17.2L362.8-17.2z M380.1-17.2c4.1-0.9,6-5.5,3.5-8.8c-0.7-0.9-1.5-1.5-2.6-2c-0.8-0.3-1-0.4-2.3-0.4
		c-1.3,0-1.4,0-2.3,0.4c-1.7,0.7-2.9,1.9-3.4,3.6c-0.2,0.5-0.2,1-0.2,1.9c0.1,1.1,0.1,1.4,0.5,2.2C374.5-17.9,377.4-16.6,380.1-17.2
		L380.1-17.2z M0-495.7 M0-495.7"/>
</g>
<g id="layer2" transform="translate(0,-270.2)" inkscape:groupmode="layer" inkscape:label="Interested 1" class="st0">
	
		<path id="path6909-5-2-5-5-9-1" sodipodi:arc-type="arc" sodipodi:cx="34.870567" sodipodi:cy="161.61592" sodipodi:end="0" sodipodi:open="true" sodipodi:rx="16.071892" sodipodi:ry="14.743004" sodipodi:start="4.79068e-05" sodipodi:type="arc" class="st3" d="
		M144.4-37.6c0,23.1-20.4,41.8-45.6,41.8c-25.2,0-45.6-18.7-45.6-41.8c0-23.1,20.4-41.8,45.6-41.8S144.4-60.7,144.4-37.6"/>
	<path id="path6733-8-9-6" inkscape:connector-curvature="0" class="st4" d="M96.9,4.4C84.7,3.9,73.5-1,65.1-9.5
		c-3.4-3.4-5.6-6.4-7.6-10.4c-4.8-9.1-5.7-20.2-2.6-30c2-6.3,5.3-11.6,10.2-16.6c7.8-7.9,17.9-12.6,29.5-13.8
		c3.5-0.3,8.9-0.2,12.5,0.4c10.2,1.6,19.4,6.2,26.4,13.4c5.7,5.8,9.2,12.1,11,19.5c1.6,6.7,1.3,14.3-0.8,20.9
		c-2,6.3-5.3,11.6-10.2,16.6C124.1,0.1,111.2,5,96.9,4.4z M105.8,2c10.6-1.5,19.8-6.1,26.7-13.3c3.2-3.3,5.3-6.3,7.2-10.3
		c2.6-5.3,3.7-10.4,3.7-16.3c0-5.9-1.2-11-3.7-16.3c-1.9-4-4.1-7-7.2-10.3c-7-7.3-16.1-11.8-26.9-13.4c-2.6-0.4-10-0.4-12.7,0
		c-10.7,1.5-19.9,6.1-26.9,13.4c-3.2,3.3-5.3,6.3-7.2,10.3C56.4-49,55.2-43.9,55.2-38c0,5.9,1.2,11,3.7,16.3
		c4,8.2,10.5,14.7,19.1,19c5.3,2.7,10.5,4.2,17.3,4.9C96.8,2.4,104.2,2.2,105.8,2L105.8,2z M95.1-9.2c-0.8-0.3-1.6-0.9-1.5-1.1
		c0-0.1,0.3,0,0.6,0.2c0.8,0.6,1.7,0.9,2.9,0.9c1.7,0,3.4-0.6,5.2-2c1.1-0.8,1.4-0.8,0.5,0c-0.8,0.7-2,1.4-3.1,1.8
		C98.3-8.9,96-8.9,95.1-9.2L95.1-9.2z M96-12c-2-0.4-3.8-2.1-5-4.7c-0.7-1.5-1-2.6-1.2-4.4c-0.5-4.9,1.5-9.7,4.7-11.4
		c4.4-2.4,9,1.7,9.7,8.5c0.4,4.3-1.1,8.8-3.8,10.9C99.1-12.1,97.4-11.7,96-12L96-12z M76-33.9c-0.8-3.8-1.5-7-1.6-7.1
		c-0.1-0.1-3-0.9-6.5-1.8c-3.5-0.9-6.3-1.6-6.3-1.6c0,0,2.9-0.7,6.3-1.6c3.4-0.9,6.3-1.7,6.4-1.8c0.1-0.1,0.8-3.3,1.6-7.1
		c0.8-3.8,1.5-6.9,1.5-6.9c0,0,0.7,3.1,1.4,6.8s1.5,6.9,1.5,7.1c0.1,0.3,1.1,0.6,6.5,1.9c3.5,0.9,6.3,1.6,6.3,1.7
		c0,0-2.9,0.8-6.3,1.6c-3.4,0.9-6.3,1.7-6.4,1.8C80.5-41,79.8-37.8,79-34c-0.8,3.8-1.5,6.9-1.5,6.9C77.5-27,76.8-30.1,76-33.9
		L76-33.9z M115.2-33.9c-0.8-3.8-1.5-7-1.6-7.1c-0.1-0.1-3-0.9-6.5-1.8c-3.5-0.9-6.3-1.6-6.3-1.6c0,0,2.9-0.7,6.3-1.6
		c3.4-0.9,6.3-1.7,6.4-1.8c0.1-0.1,0.8-3.3,1.6-7.1c0.8-3.8,1.5-6.9,1.5-6.9c0,0,0.7,3.1,1.4,6.8c0.8,3.7,1.5,6.9,1.5,7.1
		c0.1,0.3,1.1,0.6,6.5,1.9c3.5,0.9,6.3,1.6,6.3,1.7c0,0-2.9,0.8-6.3,1.6c-3.4,0.9-6.3,1.7-6.4,1.8c-0.1,0.1-0.8,3.3-1.6,7.1
		c-0.8,3.8-1.5,6.9-1.5,6.9C116.7-27,116-30.1,115.2-33.9L115.2-33.9z"/>
</g>
<g id="layer3" transform="translate(0,-270.2)" inkscape:groupmode="layer" inkscape:label="Interested 2" class="st0">
	<ellipse id="path6845" class="st5" cx="128.3" cy="-460.7" rx="33.3" ry="31.2"/>
	<ellipse id="path6849" class="st6" cx="118.8" cy="-468.9" rx="3.6" ry="9.7"/>
	<ellipse id="path6849-7" class="st6" cx="136.4" cy="-468.7" rx="3.3" ry="9.7"/>
	
		<path id="path6868" sodipodi:arc-type="arc" sodipodi:cx="44.898777" sodipodi:cy="15.204288" sodipodi:end="3.1415927" sodipodi:open="true" sodipodi:rx="4.9904609" sodipodi:ry="5.2668943" sodipodi:start="0" sodipodi:type="arc" class="st6" d="
		M141.4-452.6c0,5.3-2.7,10.3-7.1,12.9c-4.4,2.7-9.8,2.7-14.1,0c-4.4-2.7-7.1-7.6-7.1-12.9"/>
</g>
<g id="layer4" transform="translate(0,-270.2)" inkscape:groupmode="layer" inkscape:label="Interested 3" class="st0">
	<ellipse id="path6845-3" class="st7" cx="45.4" cy="-387.2" rx="33.7" ry="32.1"/>
	<ellipse id="path6849-7-5" class="st8" cx="53.5" cy="-395.9" rx="3.3" ry="10.1"/>
	
		<path id="path6868-0" sodipodi:arc-type="arc" sodipodi:cx="15.837421" sodipodi:cy="40.968754" sodipodi:end="3.1415927" sodipodi:open="true" sodipodi:rx="5.0471587" sodipodi:ry="5.4839969" sodipodi:start="0" sodipodi:type="arc" class="st8" d="
		M59.2-379.6c0,5.6-2.7,10.7-7.2,13.5c-4.4,2.8-9.9,2.8-14.3,0c-4.4-2.8-7.2-7.9-7.2-13.5"/>
	<ellipse id="path6849-7-5-6" class="st8" cx="37" cy="-396.4" rx="3.3" ry="10.1"/>
</g>
<g id="layer5" transform="translate(0,-270.2)" inkscape:groupmode="layer" inkscape:label="Interested 4" class="st0">
	<ellipse id="path6845-7" class="st8" cx="130.9" cy="-388.7" rx="32.8" ry="31.4"/>
	<ellipse id="path6849-9" class="st9" cx="122.7" cy="-398.2" rx="5.3" ry="11.4"/>
	<ellipse id="path6849-7-3" class="st9" cx="138.2" cy="-398.3" rx="5" ry="11.4"/>
	
		<path id="path6868-05" sodipodi:arc-type="arc" sodipodi:cx="46.016682" sodipodi:cy="40.022118" sodipodi:end="3.1415927" sodipodi:open="true" sodipodi:rx="5.439631" sodipodi:ry="6.5539465" sodipodi:start="0" sodipodi:type="arc" class="st9" d="
		M145.9-382.3c0,6.6-2.9,12.8-7.7,16.1s-10.6,3.3-15.4,0s-7.7-9.5-7.7-16.1"/>
</g>
<g id="layer6" transform="translate(0,-270.2)" inkscape:groupmode="layer" inkscape:label="Confused 1" class="st0">
	
		<path id="path6909-5" sodipodi:arc-type="arc" sodipodi:cx="81.689285" sodipodi:cy="13.443038" sodipodi:end="0" sodipodi:open="true" sodipodi:rx="11.583739" sodipodi:ry="10.485593" sodipodi:start="4.79068e-05" sodipodi:type="arc" class="st10" d="
		M264.4-457.6c0,16.4-14.7,29.7-32.8,29.7c-18.1,0-32.8-13.3-32.8-29.7c0-16.4,14.7-29.7,32.8-29.7
		C249.7-487.3,264.4-474,264.4-457.6"/>
	<path id="rect6911-75" class="st11" d="M223.7-471L223.7-471c1.5,1-0.3,5.6-4,10.3l-1.4,1.8c-3.7,4.7-7.9,7.8-9.3,6.8l0,0
		c-1.5-1,0.3-5.6,4-10.3l1.4-1.8C218.1-468.9,222.3-471.9,223.7-471z"/>
	<path id="rect6911-7-8" class="st12" d="M207.5-470.3L207.5-470.3c1.3-1.2,5.8,1.2,10.2,5.3l2.2,2c4.4,4.1,6.9,8.4,5.6,9.6l0,0
		c-1.3,1.2-5.8-1.2-10.2-5.3l-2.2-2C208.7-464.8,206.2-469.1,207.5-470.3z"/>
	<path id="rect6911-9-7" class="st13" d="M237.7-471.7L237.7-471.7c-1.5,1,0.3,5.7,3.9,10.4l1.6,2.1c3.6,4.8,7.8,7.8,9.2,6.8l0,0
		c1.5-1-0.3-5.7-3.9-10.4l-1.6-2.1C243.3-469.7,239.2-472.7,237.7-471.7z"/>
	<path id="rect6911-7-9-5" class="st12" d="M254-470.5L254-470.5c-1.3-1.2-5.8,1.2-10.2,5.3l-2.2,2c-4.4,4.1-6.9,8.4-5.6,9.6l0,0
		c1.3,1.2,5.8-1.2,10.2-5.3l2.2-2C252.8-465,255.3-469.3,254-470.5z"/>
	<path id="rect6946-6" class="st8" d="M230.8-446.3L230.8-446.3c2.6,0,4.6,1.1,4.6,2.4v0c0,1.3-2.1,2.4-4.6,2.4l0,0
		c-2.6,0-4.6-1.1-4.6-2.4v0C226.2-445.2,228.3-446.3,230.8-446.3z"/>
</g>
<g id="layer7" transform="translate(0,-270.2)" inkscape:groupmode="layer" inkscape:label="Confused 2" class="st0">
	
		<path id="path6909" sodipodi:arc-type="arc" sodipodi:cx="82.047058" sodipodi:cy="38.41217" sodipodi:end="0" sodipodi:open="true" sodipodi:rx="11.583739" sodipodi:ry="10.547683" sodipodi:start="4.79068e-05" sodipodi:type="arc" class="st7" d="
		M265.4-386.8c0,16.5-14.7,29.9-32.8,29.9c-18.1,0-32.8-13.4-32.8-29.9c0-16.5,14.7-29.9,32.8-29.9S265.4-403.3,265.4-386.8"/>
	<path id="rect6911" class="st13" d="M224.7-400.5L224.7-400.5c1.5,1-0.3,5.7-3.9,10.4l-1.6,2.1c-3.6,4.8-7.8,7.8-9.2,6.8l0,0
		c-1.5-1,0.3-5.7,3.9-10.4l1.6-2.1C219.1-398.4,223.3-401.5,224.7-400.5z"/>
	<path id="rect6911-7" class="st12" d="M208.3-399.1L208.3-399.1c1.3-1.2,5.8,1.2,10.2,5.3l2.2,2c4.4,4.1,6.9,8.4,5.6,9.6l0,0
		c-1.3,1.2-5.8-1.2-10.2-5.3l-2.2-2C209.5-393.6,207-397.9,208.3-399.1z"/>
	<path id="rect6911-9" class="st13" d="M238.7-400.8L238.7-400.8c-1.5,1,0.3,5.7,3.9,10.4l1.6,2.1c3.6,4.8,7.8,7.8,9.2,6.8l0,0
		c1.5-1-0.3-5.7-3.9-10.4l-1.6-2.1C244.3-398.7,240.2-401.8,238.7-400.8z"/>
	<path id="rect6911-7-9" class="st12" d="M255-399.6L255-399.6c-1.3-1.2-5.8,1.2-10.2,5.3l-2.2,2c-4.4,4.1-6.9,8.4-5.6,9.6l0,0
		c1.3,1.2,5.8-1.2,10.2-5.3l2.2-2C253.8-394.1,256.3-398.4,255-399.6z"/>
	<path id="rect6946" class="st8" d="M231.8-375.4L231.8-375.4c2.6,0,4.6,1.1,4.6,2.4l0,0c0,1.3-2.1,2.4-4.6,2.4l0,0
		c-2.6,0-4.6-1.1-4.6-2.4l0,0C227.2-374.3,229.3-375.4,231.8-375.4z"/>
</g>
<g id="layer8" transform="translate(0,-270.2)" inkscape:groupmode="layer" inkscape:label="Confused 3">
	
		<path id="path6909-5-7" sodipodi:arc-type="arc" sodipodi:cx="12.5" sodipodi:cy="284.49997" sodipodi:end="0" sodipodi:open="true" sodipodi:rx="11.8675" sodipodi:ry="11.867499" sodipodi:start="4.79068e-05" sodipodi:type="arc" class="st14" d="
		M69.1,310.7c0,18.6-15.1,33.6-33.6,33.6S1.8,329.3,1.8,310.7c0-18.6,15.1-33.6,33.6-33.6C54,277.1,69.1,292.2,69.1,310.7"/>
	<path id="rect6911-75-1" class="st15" d="M28.2,294.1L28.2,294.1c1.9,1.3,0.6,6.1-2.8,10.7l-6.7,9c-3.4,4.6-7.7,7.2-9.6,5.9l0,0
		c-1.9-1.3-0.6-6.1,2.8-10.7l6.7-9C22,295.4,26.3,292.8,28.2,294.1z"/>
	<path id="rect6911-7-8-7" class="st15" d="M7.2,295L7.2,295c1.6-1.6,6.3,0.3,10.3,4.3l8.5,8.4c4,4,6,8.5,4.3,10.2l0,0
		c-1.6,1.6-6.3-0.3-10.3-4.3l-8.5-8.4C7.5,301.2,5.6,296.6,7.2,295z"/>
	<path id="rect6911-9-7-6" class="st15" d="M40.9,294L40.9,294c-2,1.3-0.7,6.1,2.7,10.7l7.3,9.7c3.4,4.6,7.8,7.2,9.8,5.8l0,0
		c2-1.3,0.7-6.1-2.7-10.7l-7.3-9.7C47.2,295.3,42.9,292.7,40.9,294z"/>
	<path id="rect6911-7-9-5-8" class="st15" d="M62.6,295.6L62.6,295.6c-1.7-1.6-6.4,0.2-10.5,4.1l-9.1,8.7c-4.1,3.9-6,8.4-4.3,10l0,0
		c1.7,1.6,6.4-0.2,10.5-4.1l9.1-8.7C62.4,301.8,64.3,297.3,62.6,295.6z"/>
	<path id="rect6946-6-8" class="st15" d="M34.6,324.8L34.6,324.8c3.7,0,6.7,1.9,6.7,4.3l0,0c0,2.4-3,4.3-6.7,4.3l0,0
		c-3.7,0-6.7-1.9-6.7-4.3l0,0C28,326.7,30.9,324.8,34.6,324.8z"/>
	<g class="st16">
		<path class="st17" d="M71.8,288.7l-3.6-1.1c0.1-0.5,0.2-0.8,0.3-0.9c0.4-1.2,0.8-2,1.5-2.7c0.6-0.6,1.6-1.2,3.1-1.8
			c1.4-0.6,2.3-1,2.6-1.2c0.5-0.4,0.8-0.8,1-1.4c0.2-0.8,0.1-1.5-0.3-2.3c-0.4-0.7-1.2-1.3-2.2-1.6c-1-0.3-1.9-0.3-2.8,0.1
			s-1.6,1.1-2.2,2.2l-3.5-1.6c0.6-1.6,1.8-2.8,3.4-3.6c1.7-0.8,3.6-0.8,5.7-0.1c2.3,0.7,3.9,1.8,4.8,3.4c1,1.6,1.2,3.2,0.7,4.7
			c-0.3,0.9-0.8,1.6-1.5,2.2c-0.7,0.6-2.1,1.4-4.1,2.2c-1,0.4-1.7,0.8-2.1,1.2C72.4,286.9,72.1,287.7,71.8,288.7z M66.5,292.9
			l1.2-3.9l3.9,1.2l-1.2,3.9L66.5,292.9z"/>
	</g>
</g>
<g id="layer12" transform="translate(0,-270.2)" inkscape:groupmode="layer" inkscape:label="Confused 4" class="st0">
	
		<path id="path6909-6" sodipodi:arc-type="arc" sodipodi:cx="49.672539" sodipodi:cy="39.028423" sodipodi:end="0" sodipodi:open="true" sodipodi:rx="11.583739" sodipodi:ry="10.547683" sodipodi:start="4.79068e-05" sodipodi:type="arc" class="st7" d="
		M173.6-385.1c0,16.5-14.7,29.9-32.8,29.9c-18.1,0-32.8-13.4-32.8-29.9c0-16.5,14.7-29.9,32.8-29.9
		C158.9-415,173.6-401.6,173.6-385.1"/>
	<path id="rect6911-5" class="st13" d="M133-398.8L133-398.8c1.5,1-0.3,5.7-3.9,10.4l-1.6,2.1c-3.6,4.8-7.8,7.8-9.2,6.8h0
		c-1.5-1,0.3-5.7,3.9-10.4l1.6-2.1C127.4-396.7,131.5-399.8,133-398.8z"/>
	<path id="rect6911-7-95" class="st12" d="M116.5-397.4L116.5-397.4c1.3-1.2,5.8,1.2,10.2,5.3l2.2,2c4.4,4.1,6.9,8.4,5.6,9.6l0,0
		c-1.3,1.2-5.8-1.2-10.2-5.3l-2.2-2C117.8-391.9,115.3-396.2,116.5-397.4z"/>
	<path id="rect6911-9-4" class="st13" d="M147-399L147-399c-1.5,1,0.3,5.7,3.9,10.4l1.6,2.1c3.6,4.8,7.8,7.8,9.2,6.8l0,0
		c1.5-1-0.3-5.7-3.9-10.4l-1.6-2.1C152.6-397,148.4-400,147-399z"/>
	<path id="rect6911-7-9-9" class="st12" d="M163.2-397.8L163.2-397.8c-1.3-1.2-5.8,1.2-10.2,5.3l-2.2,2c-4.4,4.1-6.9,8.4-5.6,9.6
		l0,0c1.3,1.2,5.8-1.2,10.2-5.3l2.2-2C162-392.3,164.5-396.6,163.2-397.8z"/>
	<path id="rect6946-1" class="st8" d="M140.1-373.6L140.1-373.6c2.6,0,4.6,1.1,4.6,2.4l0,0c0,1.3-2.1,2.4-4.6,2.4l0,0
		c-2.6,0-4.6-1.1-4.6-2.4l0,0C135.5-372.5,137.5-373.6,140.1-373.6z"/>
	
		<text transform="matrix(0.9554 0.2954 -0.2954 0.9554 162.6287 -404.7593)" class="st2" style="font-family:'Arial-BoldMT'; font-size:29.9999px;">?</text>
</g>
<g id="layer9" transform="translate(0,-270.2)" inkscape:groupmode="layer" inkscape:label="Sleepy 1" class="st0">
	
		<path id="path6909-5-2" sodipodi:arc-type="arc" sodipodi:cx="144.82416" sodipodi:cy="12.774592" sodipodi:end="0" sodipodi:open="true" sodipodi:rx="12.046841" sodipodi:ry="10.81147" sodipodi:start="4.79068e-05" sodipodi:type="arc" class="st10" d="
		M444.7-459.5c0,16.9-15.3,30.6-34.1,30.6c-18.9,0-34.1-13.7-34.1-30.6s15.3-30.6,34.1-30.6C429.4-490.2,444.7-476.4,444.7-459.5"/>
	
		<text transform="matrix(0.9132 -0.3214 0.3197 0.9475 389.1677 -439.2249)" class="st2" style="font-family:'Arial-BoldMT'; font-size:22.8226px;">z</text>
	
		<text transform="matrix(0.9389 0.1112 -0.1078 0.9942 395.5536 -447.2626)" class="st2" style="font-family:'Arial-BoldMT'; font-size:34.0437px;">z</text>
	
		<text transform="matrix(0.8944 -0.1124 9.660177e-02 0.9953 412.9079 -453.4172)" class="st2" style="font-family:'Arial-BoldMT'; font-size:43.3579px;">z</text>
</g>
<g id="layer10" transform="translate(0,-270.2)" inkscape:groupmode="layer" inkscape:label="Sleepy 2" class="st0">
	
		<path id="path6909-5-2-6" sodipodi:arc-type="arc" sodipodi:cx="145.18613" sodipodi:cy="36.447483" sodipodi:end="0" sodipodi:open="true" sodipodi:rx="12.046842" sodipodi:ry="10.811471" sodipodi:start="4.79068e-05" sodipodi:type="arc" class="st7" d="
		M445.7-392.4c0,16.9-15.3,30.6-34.1,30.6c-18.9,0-34.1-13.7-34.1-30.6c0-16.9,15.3-30.6,34.1-30.6
		C430.4-423.1,445.7-409.3,445.7-392.4"/>
	
		<text transform="matrix(0.9132 -0.3214 0.3197 0.9475 390.1935 -372.1201)" class="st2" style="font-family:'Arial-BoldMT'; font-size:22.8226px;">z</text>
	
		<text transform="matrix(0.9389 0.1112 -0.1078 0.9942 396.5797 -380.1579)" class="st2" style="font-family:'Arial-BoldMT'; font-size:34.0437px;">z</text>
	
		<text transform="matrix(0.8944 -0.1124 9.660177e-02 0.9953 413.9343 -386.314)" class="st2" style="font-family:'Arial-BoldMT'; font-size:43.3579px;">z</text>
</g>
<g id="layer11" transform="translate(0,-270.2)" inkscape:groupmode="layer" inkscape:label="Sleepy 3" class="st0">
	
		<path id="path6909-5-2-7" sodipodi:arc-type="arc" sodipodi:cx="173.62885" sodipodi:cy="13.201948" sodipodi:end="0" sodipodi:open="true" sodipodi:rx="12.046842" sodipodi:ry="10.811471" sodipodi:start="4.79068e-05" sodipodi:type="arc" class="st8" d="
		M526.3-458.3c0,16.9-15.3,30.6-34.1,30.6c-18.9,0-34.1-13.7-34.1-30.6c0-16.9,15.3-30.6,34.1-30.6
		C511-488.9,526.3-475.2,526.3-458.3"/>
	
		<text transform="matrix(0.9132 -0.3214 0.3197 0.9475 470.8179 -438.0122)" class="st9" style="font-family:'Arial-BoldMT'; font-size:22.8226px;">z</text>
	
		<text transform="matrix(0.9389 0.1112 -0.1078 0.9942 477.2045 -446.0523)" class="st9" style="font-family:'Arial-BoldMT'; font-size:34.0437px;">z</text>
	
		<text transform="matrix(0.8944 -0.1124 9.660177e-02 0.9953 494.5601 -452.2055)" class="st9" style="font-family:'Arial-BoldMT'; font-size:43.3579px;">z</text>
</g>
<g id="layer13" transform="translate(0,-270.2)" inkscape:groupmode="layer" inkscape:label="Too Slow 1" class="st0">
	
		<path id="path6909-5-2-5" sodipodi:arc-type="arc" sodipodi:cx="18.708866" sodipodi:cy="70.021355" sodipodi:end="0" sodipodi:open="true" sodipodi:rx="13.650459" sodipodi:ry="12.481905" sodipodi:start="4.79068e-05" sodipodi:type="arc" class="st10" d="
		M91.7-297.2c0,19.5-17.3,35.4-38.7,35.4c-21.4,0-38.7-15.8-38.7-35.4c0-19.5,17.3-35.4,38.7-35.4S91.7-316.8,91.7-297.2"/>
	
		<path id="path7369-1" inkscape:connector-curvature="0" sodipodi:nodetypes="sssscccscccsccccccccccccscscccscccscccccscccsccccsccccscccccccccccccccccccccscccccccccccccccccccccccsccccccsccccccccccccccccsssccccccsccccccccccccsccccccccccsccccccccccscccscscccccc" class="st2" d="
		M54.6-311.1c0-1.5,0-2.1,0-1.4c0,0.8,0,2,0,2.8C54.6-308.9,54.6-309.5,54.6-311.1z M70.5-317.9c-0.2-0.1-0.5-0.4-0.6-0.6
		c-0.7-1.2,0.9-2.5,2.3-1.8c1,0.5,1,1.7,0.2,2.3C71.9-317.7,71-317.6,70.5-317.9L70.5-317.9z M56.1-317.9c-0.4-0.2-0.9-0.8-0.9-1.2
		c0-0.4,0.5-1,0.9-1.2c1.1-0.6,2.4,0.1,2.4,1.2C58.5-318,57.2-317.4,56.1-317.9L56.1-317.9z M22.8-274.5
		C22.2-274.7,22.9-274.1,22.8-274.5c-0.2-0.8-2.6,0.1-1.8-1.4c1.2-2.4,1-3.4,3.5-4.9l0.8-0.5l-0.5-0.6c-1.1-1.4-1.9-2.9-2.5-4.9
		c-0.3-1-0.3-1.2-0.3-3.3c0-1.7,0-2.4,0.2-3.1c1-4.6,3.3-8.1,7.3-11.1c1.7-1.3,4-2.5,6-3.1c2.3-0.7,6-1.3,8-1.2
		c1.5,0.1,3.6,0.4,5,0.7c1.7,0.4,2.9,0.8,4.4,1.6c0.8,0.4,1.4,0.6,1.5,0.6c0.1,0,0.1-1.5,0.1-4.2v-4.1l-0.7-0.3
		c-1.1-0.5-1.5-0.9-2-1.4c-1-1.1-1.4-2.2-1.4-3.4c0-1,0.2-1.6,0.7-2.5c0.5-1,1.1-1.5,2.1-2.1c1.6-0.9,3.4-1.2,5.2-0.7
		c1,0.2,2.3,1,3,1.7c1.2,1.2,1.8,2.9,1.5,4.3c-0.3,1.7-1.5,3.4-3.1,4.1c-0.9,0.4-0.9,0.3-0.9,1.7c0,0.9,0.1,1.3,0.3,1.7
		c0.3,0.7,1.1,1.4,1.8,1.6c0.6,0.2,0.7,0.2,2.7,0.2c2,0,2.2,0,2.7-0.2c0.7-0.3,1.4-0.9,1.8-1.5c0.3-0.5,0.3-0.6,0.3-1.8l0-1.3
		l-0.8-0.4c-1-0.6-1.7-1.1-2.3-2.1c-1.1-1.7-1.1-3.7,0.1-5.4c0.5-0.8,1-1.2,1.9-1.8c0.9-0.5,1.7-0.8,2.7-0.9
		c2.9-0.3,5.7,1.1,6.8,3.7c0.3,0.8,0.4,2.1,0.2,3c-0.4,1.5-1.7,2.9-3.2,3.6l-0.7,0.3l0,1.8c0,2,0.1,2.6,0.7,4
		c0.4,0.9,1.3,2.5,2.1,3.5c0.8,1,1.1,1.7,1.2,2.9c0.1,2-1,3.8-3,4.8c-0.6,0.3-0.9,0.5-1,0.7c0,0.1-0.1,2-0.1,4.2
		c0,4.2-0.1,4.5-0.6,6.8c-0.4,1.8-1.1,3.1-2.4,5.2c-2.4,3.9-6.1,6.8-10.8,8.7c-2.6,1.1-4.9,1.6-7.9,1.8c-0.8,0.1-6.9,0.1-16.7,0.1
		c-14.7,0-10.4-4.2-10.9-4.3L22.8-274.5z M52.8-270.7c2.6-0.3,4.4-0.8,6.6-1.7c2.2-0.9,3.7-1.8,5.6-3.3c3.1-2.5,5.4-5.8,6.5-9.4
		c0.6-2,0.7-2.8,0.8-7.4c0-3.3,0.1-4.2,0.2-4.4c0.2-0.3,0.5-0.5,1.5-1c1.6-0.8,2.6-2.6,2.3-4.2c-0.1-0.7-0.5-1.3-1.1-2.2
		c-1.2-1.6-2.3-3.7-2.7-5.3c-0.1-0.4-0.2-1.5-0.2-2.4l-0.1-1.6l-1,0l-1,0l0,0.9c0,1-0.2,2-0.6,2.6c-0.4,0.6-1.4,1.4-2.2,1.7
		l-0.7,0.3l-2.4,0c-2.2,0-2.5,0-3.1-0.2c-0.8-0.3-1.6-0.7-2.2-1.4c-0.8-0.9-1-1.4-1-2.8l-0.1-1.2h-1h-1v4.5v4.5l0.9,0.6
		c2.8,2,5.2,5.3,6.3,8.5c0.6,1.6,0.7,2.5,0.6,3.1c-0.3,1.1-1.1,2-2.3,2.5l-0.7,0.3h-3.1h-3.1l-0.1,0.5c-0.3,2-0.6,3.3-1.5,4.9
		c-1.8,3.6-5.6,6.5-9.8,7.6c-2.4,0.6-2.8,0.7-5,0.7c-1.7,0-2.2,0-3-0.2c-3.5-0.7-5.9-1.8-8.1-3.6l-0.9-0.8l-0.7,0.4
		c-1.6,0.9-3.5,2.6-4.5,4.1c-1.3,2,2.7,1.8,3.2,2.3c0.2,0.2-4,3.1,11.3,3.1C50.6-270.5,51.3-270.5,52.8-270.7L52.8-270.7z M40.4-277
		c1-0.1,2.8-0.6,3.8-1c1.5-0.5,3.6-1.8,4.8-3c1.6-1.6,2.6-2.9,3.3-4.7c1.4-3.7,1-6.8-1.1-9.4c-2.1-2.5-6-4-9.4-3.5
		c-3.4,0.4-6.2,2.1-7.8,4.8c-1.2,1.8-1.5,4.5-0.8,6.2c0.8,2,2.8,3.5,5,4c0.9,0.2,2.5,0.2,3.4,0c2.2-0.5,4.2-2,5-3.8
		c1.1-2.7,0.4-4.9-1.8-5.6c-0.8-0.2-1.4-0.2-2.2,0c-1.3,0.4-2.1,1.3-2.3,2.5c-0.1,0.7-0.3,1.1-0.7,1.1c-0.8,0-0.9-1.4,0-2.8
		c0.7-1.1,1.9-1.9,3.5-2.1c2.2-0.3,4.4,0.9,5.1,2.7c0.3,0.8,0.3,2.7,0,3.8c-0.5,1.6-1.6,3.1-3.1,4c-1,0.7-2.5,1.2-3.6,1.4
		c-1.2,0.2-3,0.1-4-0.2c-2.8-0.8-4.8-2.6-5.7-5c-0.2-0.6-0.3-1-0.3-2.2c0-1.3,0-1.6,0.3-2.5c0.8-2.8,3.2-5.2,6.2-6.4
		c1.8-0.7,3-0.9,4.9-0.9c1.6,0,2.4,0.1,4,0.6c2.4,0.7,4.8,2.5,6.1,4.5c0.5,0.8,1.1,2.3,1.3,3.1c0.1,0.4,0.2,0.8,0.2,0.8
		c0.1,0.1,5,0.2,5.8,0c1-0.2,1.9-1,2-1.9c0.1-0.9-0.9-3.7-2-5.7c-1.1-1.9-2.9-3.8-4.8-5.2c-1.4-1-3.1-1.9-4.6-2.5
		c-2.4-0.9-5.4-1.5-7.9-1.5c-2.7,0-5.9,0.6-8.4,1.6c-2,0.8-4.6,2.5-6.2,4c-1.5,1.4-3.1,3.8-3.9,5.5c-0.8,1.9-1.4,5.1-1.2,6.9
		c0.3,4.2,2.6,7.7,6.6,10.1c1.5,0.9,4.1,1.8,6,2.1C37-276.9,39.2-276.9,40.4-277L40.4-277z M58.1-314.8c2.6-0.5,4.2-2.9,3.7-5.2
		c-0.3-1.2-1.5-2.5-2.6-2.9c-1.5-0.6-3.1-0.6-4.6,0c-1.5,0.6-2.7,2.4-2.7,3.9C51.9-316.2,54.9-314.1,58.1-314.8L58.1-314.8z
		 M72.4-314.8c3.4-0.7,5-4.3,2.9-6.8c-0.6-0.7-1.2-1.2-2.2-1.5c-0.7-0.3-0.8-0.3-1.9-0.3c-1,0-1.2,0-1.9,0.3
		c-1.4,0.5-2.4,1.5-2.9,2.8c-0.1,0.4-0.2,0.8-0.1,1.5c0,0.8,0.1,1.1,0.4,1.7C67.8-315.3,70.2-314.3,72.4-314.8L72.4-314.8z"/>
</g>
<g id="layer14" transform="translate(0,-270.2)" inkscape:groupmode="layer" inkscape:label="Too Slow 2" class="st0">
	
		<path id="path6909-5-2-5-5" sodipodi:arc-type="arc" sodipodi:cx="18.785416" sodipodi:cy="98.29792" sodipodi:end="0" sodipodi:open="true" sodipodi:rx="13.65046" sodipodi:ry="12.481905" sodipodi:start="4.79068e-05" sodipodi:type="arc" class="st7" d="
		M91.9-217.1c0,19.5-17.3,35.4-38.7,35.4c-21.4,0-38.7-15.8-38.7-35.4c0-19.5,17.3-35.4,38.7-35.4C74.6-252.5,91.9-236.6,91.9-217.1
		"/>
	
		<path id="path7369-1-3" inkscape:connector-curvature="0" sodipodi:nodetypes="sssscccscccsccccccccccccscscccscccscccccscccsccccsccccscccccccccccccccccccccscccccccccccccccccccccccsccccccsccccccccccccccccsssccccccsccccccccccccsccccccccccsccccccccccscccscscccccc" class="st2" d="
		M54.8-230.9c0-1.5,0-2.1,0-1.4c0,0.8,0,2,0,2.8C54.8-228.8,54.8-229.4,54.8-230.9z M70.7-237.7c-0.2-0.1-0.5-0.4-0.6-0.6
		c-0.7-1.2,0.9-2.5,2.3-1.8c1,0.5,1,1.7,0.2,2.3C72.1-237.5,71.2-237.5,70.7-237.7L70.7-237.7z M56.3-237.7
		c-0.4-0.2-0.9-0.8-0.9-1.2c0-0.4,0.5-1,0.9-1.2c1.1-0.6,2.4,0.1,2.4,1.2C58.7-237.9,57.4-237.2,56.3-237.7L56.3-237.7z M23-194.3
		C22.4-194.5,23.1-193.9,23-194.3c-0.2-0.8-2.6,0.1-1.8-1.4c1.2-2.4,1-3.4,3.5-4.9l0.8-0.5l-0.5-0.6c-1.1-1.4-1.9-2.9-2.5-4.9
		c-0.3-1-0.3-1.2-0.3-3.3c0-1.7,0-2.4,0.2-3.1c1-4.6,3.3-8.1,7.3-11.1c1.7-1.3,4-2.5,6-3.1c2.3-0.7,6-1.3,8-1.2
		c1.5,0.1,3.6,0.4,5,0.7c1.7,0.4,2.9,0.8,4.4,1.6c0.8,0.4,1.4,0.6,1.5,0.6c0.1,0,0.1-1.5,0.1-4.2v-4.1l-0.7-0.3
		c-1.1-0.5-1.5-0.9-2-1.4c-1-1.1-1.4-2.2-1.4-3.4c0-1,0.2-1.6,0.7-2.5c0.5-1,1.1-1.5,2.1-2.1c1.6-0.9,3.4-1.2,5.2-0.7
		c1,0.2,2.3,1,3,1.7c1.2,1.2,1.8,2.9,1.5,4.3c-0.3,1.7-1.5,3.4-3.1,4.1c-0.9,0.4-0.9,0.3-0.9,1.7c0,0.9,0.1,1.3,0.3,1.7
		c0.3,0.7,1.1,1.4,1.8,1.6c0.6,0.2,0.7,0.2,2.7,0.2c2,0,2.2,0,2.7-0.2c0.7-0.3,1.4-0.9,1.8-1.5c0.3-0.5,0.3-0.6,0.3-1.8l0-1.3
		l-0.8-0.4c-1-0.6-1.7-1.1-2.3-2.1c-1.1-1.7-1.1-3.7,0.1-5.4c0.5-0.8,1-1.2,1.9-1.8c0.9-0.5,1.7-0.8,2.7-0.9
		c2.9-0.3,5.7,1.1,6.8,3.7c0.3,0.8,0.4,2.1,0.2,3c-0.4,1.5-1.7,2.9-3.2,3.6l-0.7,0.3l0,1.8c0,2,0.1,2.6,0.7,4
		c0.4,0.9,1.3,2.5,2.1,3.5c0.8,1,1.1,1.7,1.2,2.9c0.1,2-1,3.8-3,4.8c-0.6,0.3-0.9,0.5-1,0.7c0,0.1-0.1,2-0.1,4.2
		c0,4.2-0.1,4.5-0.6,6.8c-0.4,1.8-1.1,3.1-2.4,5.2c-2.4,3.9-6.1,6.8-10.8,8.7c-2.6,1.1-4.9,1.6-7.9,1.8c-0.8,0.1-6.9,0.1-16.7,0.1
		c-14.7,0-10.4-4.2-10.9-4.3L23-194.3z M53-190.5c2.6-0.3,4.4-0.8,6.6-1.7c2.2-0.9,3.7-1.8,5.6-3.3c3.1-2.5,5.4-5.8,6.5-9.4
		c0.6-2,0.7-2.8,0.8-7.4c0-3.3,0.1-4.2,0.2-4.4c0.2-0.3,0.5-0.5,1.5-1c1.6-0.8,2.6-2.6,2.3-4.2c-0.1-0.7-0.5-1.3-1.1-2.2
		c-1.2-1.6-2.3-3.7-2.7-5.3c-0.1-0.4-0.2-1.5-0.2-2.4l-0.1-1.6l-1,0l-1,0l0,0.9c0,1-0.2,2-0.6,2.6c-0.4,0.6-1.4,1.4-2.2,1.7
		l-0.7,0.3l-2.4,0c-2.2,0-2.5,0-3.1-0.2c-0.8-0.3-1.6-0.7-2.2-1.4c-0.8-0.9-1-1.4-1-2.8l-0.1-1.2h-1h-1v4.5v4.5l0.9,0.6
		c2.8,2,5.2,5.3,6.3,8.5c0.6,1.6,0.7,2.5,0.6,3.1c-0.3,1.1-1.1,2-2.3,2.5l-0.7,0.3h-3.1h-3.1l-0.1,0.5c-0.3,2-0.6,3.3-1.5,4.9
		c-1.8,3.6-5.6,6.5-9.8,7.6c-2.4,0.6-2.8,0.7-5,0.7c-1.7,0-2.2,0-3-0.2c-3.5-0.7-5.9-1.8-8.1-3.6l-0.9-0.8l-0.7,0.4
		c-1.6,0.9-3.5,2.6-4.5,4.1c-1.3,2,2.7,1.8,3.2,2.3c0.2,0.2-4,3.1,11.3,3.1C50.8-190.3,51.6-190.3,53-190.5L53-190.5z M40.6-196.9
		c1-0.1,2.8-0.6,3.8-1c1.5-0.5,3.6-1.8,4.8-3c1.6-1.6,2.6-2.9,3.3-4.7c1.4-3.7,1-6.8-1.1-9.4c-2.1-2.5-6-4-9.4-3.5
		c-3.4,0.4-6.2,2.1-7.8,4.8c-1.2,1.8-1.5,4.5-0.8,6.2c0.8,2,2.8,3.5,5,4c0.9,0.2,2.5,0.2,3.4,0c2.2-0.5,4.2-2,5-3.8
		c1.1-2.7,0.4-4.9-1.8-5.6c-0.8-0.2-1.4-0.2-2.2,0c-1.3,0.4-2.1,1.3-2.3,2.5c-0.1,0.7-0.3,1.1-0.7,1.1c-0.8,0-0.9-1.4,0-2.8
		c0.7-1.1,1.9-1.9,3.5-2.1c2.2-0.3,4.4,0.9,5.1,2.7c0.3,0.8,0.3,2.7,0,3.8c-0.5,1.6-1.6,3.1-3.1,4c-1,0.7-2.5,1.2-3.6,1.4
		c-1.2,0.2-3,0.1-4-0.2c-2.8-0.8-4.8-2.6-5.7-5c-0.2-0.6-0.3-1-0.3-2.2c0-1.3,0-1.6,0.3-2.5c0.8-2.8,3.2-5.2,6.2-6.4
		c1.8-0.7,3-0.9,4.9-0.9c1.6,0,2.4,0.1,4,0.6c2.4,0.7,4.8,2.5,6.1,4.5c0.5,0.8,1.1,2.3,1.3,3.1c0.1,0.4,0.2,0.8,0.2,0.8
		c0.1,0.1,5,0.2,5.8,0c1-0.2,1.9-1,2-1.9c0.1-0.9-0.9-3.7-2-5.7c-1.1-1.9-2.9-3.8-4.8-5.2c-1.4-1-3.1-1.9-4.6-2.5
		c-2.4-0.9-5.4-1.5-7.9-1.5c-2.7,0-5.9,0.6-8.4,1.6c-2,0.8-4.6,2.5-6.2,4c-1.5,1.4-3.1,3.8-3.9,5.5c-0.8,1.9-1.4,5.1-1.2,6.9
		c0.3,4.2,2.6,7.7,6.6,10.1c1.5,0.9,4.1,1.8,6,2.1C37.2-196.7,39.4-196.7,40.6-196.9L40.6-196.9z M58.3-234.6
		c2.6-0.5,4.2-2.9,3.7-5.2c-0.3-1.2-1.5-2.5-2.6-2.9c-1.5-0.6-3.1-0.6-4.6,0c-1.5,0.6-2.7,2.4-2.7,3.9
		C52.1-236.1,55.1-234,58.3-234.6L58.3-234.6z M72.6-234.6c3.4-0.7,5-4.3,2.9-6.8c-0.6-0.7-1.2-1.2-2.2-1.5
		c-0.7-0.3-0.8-0.3-1.9-0.3c-1,0-1.2,0-1.9,0.3c-1.4,0.5-2.4,1.5-2.9,2.8c-0.1,0.4-0.2,0.8-0.1,1.5c0,0.8,0.1,1.1,0.4,1.7
		C68-235.2,70.4-234.1,72.6-234.6z"/>
</g>
<g id="layer15" transform="translate(0,-270.2)" inkscape:groupmode="layer" inkscape:label="Too Slow 3" class="st0">
	
		<path id="path6909-5-2-5-2" sodipodi:arc-type="arc" sodipodi:cx="49.514881" sodipodi:cy="70.686752" sodipodi:end="0" sodipodi:open="true" sodipodi:rx="13.65046" sodipodi:ry="12.481905" sodipodi:start="4.79068e-05" sodipodi:type="arc" class="st8" d="
		M179.1-295.3c0,19.5-17.3,35.4-38.7,35.4c-21.4,0-38.7-15.8-38.7-35.4c0-19.5,17.3-35.4,38.7-35.4S179.1-314.9,179.1-295.3"/>
	
		<path id="path7369-5" inkscape:connector-curvature="0" sodipodi:nodetypes="sssscccccccscccccccccccccsccsccscccscccccccccsccsccccccccsccccccscccccccccsccccccccccccccccccccccccccccccccccccccccccccccccccsccccccccsccccccccccccccccccscccccccccccccccscccccscccccc" class="st9" d="
		M144.4-310.3c0-1.6,0-2.2,0-1.4s0,2.1,0,2.9C144.4-308.1,144.4-308.7,144.4-310.3z M161.1-317.4c-0.2-0.1-0.5-0.4-0.6-0.6
		c-0.8-1.2,1-2.6,2.4-1.9c1,0.5,1.1,1.7,0.2,2.4C162.6-317.1,161.6-317.1,161.1-317.4L161.1-317.4z M145.9-317.3
		c-0.5-0.2-1-0.8-1-1.2c0-0.4,0.5-1.1,0.9-1.3c1.1-0.6,2.5,0.1,2.5,1.3C148.4-317.5,147.1-316.8,145.9-317.3L145.9-317.3z
		 M107-267.2c-0.6-0.2,3.2-2.6,3.1-3c-0.2-0.8-3.9-2.5-3.1-4.1c1.2-2.5,3-3.1,5.6-4.6l0.8-0.5l-0.5-0.7c-1.2-1.4-2-3-2.6-5.1
		c-0.3-1.1-0.3-1.2-0.3-3.4c0-1.8,0-2.5,0.2-3.2c1.1-4.8,3.5-8.4,7.7-11.5c1.8-1.3,4.3-2.5,6.4-3.2c2.5-0.8,6.3-1.3,8.4-1.2
		c1.5,0.1,3.8,0.4,5.3,0.7c1.7,0.4,3,0.9,4.7,1.6c0.8,0.4,1.5,0.7,1.6,0.6c0.1,0,0.1-1.5,0.1-4.3v-4.2l-0.7-0.3
		c-1.1-0.6-1.6-0.9-2.1-1.5c-1-1.2-1.4-2.2-1.4-3.6c0-1,0.2-1.6,0.7-2.6c0.6-1,1.2-1.6,2.2-2.2c1.6-1,3.6-1.2,5.5-0.8
		c1,0.3,2.4,1,3.1,1.7c1.2,1.2,1.9,3,1.6,4.4c-0.3,1.8-1.6,3.5-3.2,4.2c-1,0.4-0.9,0.4-0.9,1.7c0,1,0.1,1.3,0.3,1.7
		c0.3,0.7,1.2,1.4,1.9,1.7c0.6,0.2,0.8,0.2,2.9,0.2c2.1,0,2.3,0,2.8-0.2c0.7-0.3,1.5-0.9,1.9-1.6c0.3-0.5,0.3-0.7,0.4-1.9l0-1.3
		l-0.8-0.4c-1.1-0.6-1.8-1.2-2.4-2.1c-1.1-1.8-1.1-3.8,0.1-5.6c0.5-0.8,1.1-1.3,2-1.8c0.9-0.6,1.8-0.9,2.9-1c3.1-0.4,6,1.2,7.2,3.8
		c0.4,0.8,0.4,2.2,0.2,3.1c-0.4,1.5-1.7,3-3.3,3.7l-0.7,0.3l0,1.9c0,2,0.1,2.7,0.7,4.2c0.4,1,1.4,2.6,2.2,3.6c0.9,1.1,1.2,1.8,1.2,3
		c0.1,2.1-1,3.9-3.2,5c-0.6,0.3-1,0.6-1,0.7c0,0.1-0.1,2.1-0.1,4.4c-0.1,4.3-0.1,4.7-0.7,7c-0.5,1.8-1.1,3.2-2.5,5.4
		c-2.6,4-6.4,7.1-11.4,9c-2.8,1.1-5.2,1.6-8.3,1.9c-0.8,0.1-7.3,0.1-17.6,0.1C108.2-267,107.4-267,107-267.2L107-267.2z
		 M142.4-268.4c2.7-0.3,4.6-0.8,6.9-1.7c2.4-1,3.9-1.9,5.9-3.4c3.3-2.6,5.7-6,6.9-9.7c0.6-2.1,0.7-2.9,0.8-7.7
		c0.1-3.4,0.1-4.4,0.2-4.6c0.2-0.3,0.5-0.5,1.6-1c1.7-0.9,2.7-2.7,2.4-4.3c-0.1-0.7-0.5-1.4-1.2-2.3c-1.3-1.6-2.4-3.8-2.8-5.5
		c-0.1-0.5-0.2-1.6-0.3-2.5l-0.1-1.7l-1.1,0l-1.1,0l0,0.9c0,1.1-0.2,2-0.6,2.6c-0.4,0.6-1.4,1.4-2.3,1.8l-0.8,0.3l-2.6,0
		c-2.4,0-2.6,0-3.2-0.2c-0.9-0.3-1.7-0.7-2.3-1.4c-0.8-0.9-1-1.4-1.1-2.9l-0.1-1.3h-1.1h-1.1v4.6v4.6l0.9,0.7
		c2.9,2.1,5.5,5.4,6.7,8.9c0.6,1.7,0.8,2.6,0.6,3.2c-0.3,1.2-1.1,2.1-2.4,2.6l-0.7,0.3h-3.3h-3.3l-0.1,0.5c-0.3,2-0.7,3.4-1.6,5.1
		c-1.9,3.7-5.9,6.8-10.4,7.9c-2.5,0.7-2.9,0.7-5.3,0.7c-1.8,0-2.3,0-3.2-0.2c-3.7-0.8-6.2-1.8-8.5-3.7l-1-0.8l-2.7,1.3
		c-1.7,0.9-3.2,1.9-4.2,3.5c-1.4,2.1,4.6,4.9,5.2,5.4c0.2,0.2-4.6,0,11.4,0C140.1-268.2,140.9-268.2,142.4-268.4L142.4-268.4z
		 M129.3-275c1-0.1,2.9-0.6,4.1-1c1.6-0.6,3.8-1.9,5.1-3.1c1.7-1.6,2.7-3.1,3.5-4.9c1.5-3.8,1.1-7-1.2-9.8c-2.2-2.6-6.3-4.1-9.9-3.7
		c-3.6,0.4-6.5,2.2-8.3,4.9c-1.2,1.9-1.6,4.6-0.8,6.4c0.9,2,3,3.7,5.3,4.1c0.9,0.2,2.7,0.2,3.6,0c2.4-0.5,4.5-2.1,5.2-3.9
		c1.2-2.8,0.4-5.1-1.9-5.8c-0.9-0.3-1.4-0.3-2.3,0c-1.4,0.4-2.3,1.4-2.4,2.6c-0.1,0.8-0.4,1.1-0.8,1.1c-0.9,0-0.9-1.5-0.1-2.9
		c0.7-1.1,2-1.9,3.7-2.2c2.3-0.3,4.6,0.9,5.4,2.8c0.3,0.8,0.3,2.8,0,3.9c-0.5,1.7-1.7,3.2-3.3,4.2c-1.1,0.7-2.7,1.3-3.8,1.4
		c-1.3,0.2-3.2,0.1-4.2-0.2c-2.9-0.8-5.1-2.7-6-5.2c-0.2-0.6-0.3-1-0.3-2.3c0-1.3,0-1.7,0.3-2.6c0.9-2.9,3.4-5.4,6.6-6.7
		c1.9-0.7,3.2-1,5.2-1c1.7,0,2.5,0.1,4.2,0.6c2.5,0.7,5.1,2.6,6.4,4.7c0.5,0.8,1.2,2.4,1.3,3.2c0.1,0.4,0.2,0.8,0.3,0.9
		c0.1,0.1,5.3,0.2,6.1,0c1.1-0.2,2-1,2.1-1.9c0.1-0.9-0.9-3.9-2.2-5.9c-1.2-2-3.1-3.9-5.1-5.4c-1.5-1.1-3.3-2-4.9-2.6
		c-2.5-0.9-5.7-1.5-8.4-1.5c-2.8,0-6.2,0.6-8.9,1.7c-2.1,0.8-4.9,2.6-6.6,4.2c-1.6,1.5-3.3,3.9-4.1,5.7c-0.8,2-1.4,5.2-1.3,7.1
		c0.4,4.4,2.7,8,6.9,10.5c1.6,0.9,4.3,1.9,6.4,2.2C125.8-274.8,128.1-274.8,129.3-275L129.3-275z M148-314.1c2.7-0.5,4.5-3,3.9-5.4
		c-0.3-1.2-1.5-2.6-2.7-3.1c-1.5-0.6-3.3-0.6-4.8,0c-1.6,0.6-2.9,2.4-2.9,4.1C141.5-315.6,144.7-313.5,148-314.1z M163.1-314.1
		c3.6-0.8,5.2-4.4,3.1-7c-0.6-0.7-1.3-1.2-2.3-1.6c-0.7-0.3-0.9-0.3-2-0.3c-1.1,0-1.3,0-2,0.3c-1.5,0.5-2.5,1.5-3,2.9
		c-0.2,0.4-0.2,0.8-0.1,1.5c0,0.9,0.1,1.1,0.5,1.7C158.2-314.7,160.8-313.6,163.1-314.1L163.1-314.1z"/>
</g>
<g id="layer16" transform="translate(0,-270.2)" inkscape:groupmode="layer" inkscape:label="Too Slow 4" class="st0">
	
		<path id="path6909-5-2-5-2-9" sodipodi:arc-type="arc" sodipodi:cx="50.233311" sodipodi:cy="97.937653" sodipodi:end="0" sodipodi:open="true" sodipodi:rx="13.650461" sodipodi:ry="12.481905" sodipodi:start="4.79068e-05" sodipodi:type="arc" class="st8" d="
		M181.1-218.1c0,19.5-17.3,35.4-38.7,35.4c-21.4,0-38.7-15.8-38.7-35.4c0-19.5,17.3-35.4,38.7-35.4
		C163.8-253.5,181.1-237.6,181.1-218.1"/>
	
		<path id="path7369-5-7" inkscape:connector-curvature="0" sodipodi:nodetypes="sssscccccccccsccsccscccscccccccccsccsccccccccsccccccscccccccccsccccccccccccccccccccccccccccccccccccccccccccccccccsccccccccsccccccccccccccccccscccccccccccccccscccccscccccc" class="st9" d="
		M146.4-233c0-1.6,0-2.2,0-1.4c0,0.8,0,2.1,0,2.9C146.4-230.8,146.4-231.5,146.4-233z M109-189.9c-0.6-0.2,3.2-2.6,3.1-3
		c-0.2-0.8-3.9-2.5-3.1-4.1c1.2-2.5,3-3.1,5.6-4.6l0.8-0.5l-0.5-0.7c-1.2-1.4-2-3-2.6-5.1c-0.3-1.1-0.3-1.2-0.3-3.4
		c0-1.8,0-2.5,0.2-3.2c1.1-4.8,3.5-8.4,7.7-11.5c1.8-1.3,4.3-2.5,6.4-3.2c2.5-0.8,6.3-1.3,8.4-1.2c1.5,0.1,3.8,0.4,5.3,0.7
		c1.7,0.4,3,0.9,4.7,1.6c0.8,0.4,1.5,0.7,1.6,0.6c0.1,0,0.1-1.5,0.1-4.3v-4.2l-0.7-0.3c-1.1-0.6-1.6-0.9-2.1-1.5
		c-1-1.2-1.4-2.2-1.4-3.6c0-1,0.2-1.6,0.7-2.6c0.6-1,1.2-1.6,2.2-2.2c1.6-1,3.6-1.2,5.5-0.8c1,0.3,2.4,1,3.1,1.7
		c1.2,1.2,1.9,3,1.6,4.4c-0.3,1.8-1.6,3.5-3.2,4.2c-1,0.4-0.9,0.4-0.9,1.7c0,1,0.1,1.3,0.3,1.7c0.3,0.7,1.2,1.4,1.9,1.7
		c0.6,0.2,0.8,0.2,2.9,0.2c2.1,0,2.3,0,2.8-0.2c0.7-0.3,1.5-0.9,1.9-1.6c0.3-0.5,0.3-0.7,0.4-1.9l0-1.3l-0.8-0.4
		c-1.1-0.6-1.8-1.2-2.4-2.1c-1.1-1.8-1.1-3.8,0.1-5.6c0.5-0.8,1.1-1.3,2-1.8c0.9-0.6,1.8-0.9,2.9-1c3.1-0.4,6,1.2,7.2,3.8
		c0.4,0.8,0.4,2.2,0.2,3.1c-0.4,1.5-1.7,3-3.3,3.7l-0.7,0.3l0,1.9c0,2,0.1,2.7,0.7,4.2c0.4,1,1.4,2.6,2.2,3.6c0.9,1.1,1.2,1.8,1.2,3
		c0.1,2.1-1,3.9-3.2,5c-0.6,0.3-1,0.6-1,0.7c0,0.1-0.1,2.1-0.1,4.4c-0.1,4.3-0.1,4.7-0.7,7c-0.5,1.8-1.1,3.2-2.5,5.4
		c-2.6,4-6.4,7.1-11.4,9c-2.8,1.1-5.2,1.6-8.3,1.9c-0.8,0.1-7.3,0.1-17.6,0.1C110.3-189.8,109.5-189.8,109-189.9L109-189.9z
		 M144.5-191.2c2.7-0.3,4.6-0.8,6.9-1.7c2.4-1,3.9-1.9,5.9-3.4c3.3-2.6,5.7-6,6.9-9.7c0.6-2.1,0.7-2.9,0.8-7.7
		c0.1-3.4,0.1-4.4,0.2-4.6c0.2-0.3,0.5-0.5,1.6-1c1.7-0.9,2.7-2.7,2.4-4.3c-0.1-0.7-0.5-1.4-1.2-2.3c-1.3-1.6-2.4-3.8-2.8-5.5
		c-0.1-0.5-0.2-1.6-0.3-2.5l-0.1-1.7l-1.1,0l-1.1,0l0,0.9c0,1.1-0.2,2-0.6,2.6c-0.4,0.6-1.4,1.4-2.3,1.8l-0.8,0.3l-2.6,0
		c-2.4,0-2.6,0-3.2-0.2c-0.9-0.3-1.7-0.7-2.3-1.4c-0.8-0.9-1-1.4-1.1-2.9l-0.1-1.3h-1.1h-1.1v4.6v4.6l0.9,0.7
		c2.9,2.1,5.5,5.4,6.7,8.9c0.6,1.7,0.8,2.6,0.6,3.2c-0.3,1.2-1.1,2.1-2.4,2.6l-0.7,0.3h-3.3h-3.3l-0.1,0.5c-0.3,2-0.7,3.4-1.6,5.1
		c-1.9,3.7-5.9,6.8-10.4,7.9c-2.5,0.7-2.9,0.7-5.3,0.7c-1.8,0-2.3,0-3.2-0.2c-3.7-0.8-6.2-1.8-8.5-3.7l-1-0.8l-2.7,1.3
		c-1.7,0.9-3.2,1.9-4.2,3.5c-1.4,2.1,4.6,4.9,5.2,5.4c0.2,0.2-4.6,0,11.4,0C142.2-191,142.9-191,144.5-191.2L144.5-191.2z
		 M131.4-197.7c1-0.1,2.9-0.6,4.1-1c1.6-0.6,3.8-1.9,5.1-3.1c1.7-1.6,2.7-3.1,3.5-4.9c1.5-3.8,1.1-7-1.2-9.8
		c-2.2-2.6-6.3-4.1-9.9-3.7c-3.6,0.4-6.5,2.2-8.3,4.9c-1.2,1.9-1.6,4.6-0.8,6.4c0.9,2,3,3.7,5.3,4.1c0.9,0.2,2.7,0.2,3.6,0
		c2.4-0.5,4.5-2.1,5.2-3.9c1.2-2.8,0.4-5.1-1.9-5.8c-0.9-0.3-1.4-0.3-2.3,0c-1.4,0.4-2.3,1.4-2.4,2.6c-0.1,0.8-0.4,1.1-0.8,1.1
		c-0.9,0-0.9-1.5-0.1-2.9c0.7-1.1,2-1.9,3.7-2.2c2.3-0.3,4.6,0.9,5.4,2.8c0.3,0.8,0.3,2.8,0,3.9c-0.5,1.7-1.7,3.2-3.3,4.2
		c-1.1,0.7-2.7,1.3-3.8,1.4c-1.3,0.2-3.2,0.1-4.2-0.2c-2.9-0.8-5.1-2.7-6-5.2c-0.2-0.6-0.3-1-0.3-2.3c0-1.3,0-1.7,0.3-2.6
		c0.9-2.9,3.4-5.4,6.6-6.7c1.9-0.7,3.2-1,5.2-1c1.7,0,2.5,0.1,4.2,0.6c2.5,0.7,5.1,2.6,6.4,4.7c0.5,0.8,1.2,2.4,1.3,3.2
		c0.1,0.4,0.2,0.8,0.3,0.9c0.1,0.1,5.3,0.2,6.1,0c1.1-0.2,2-1,2.1-1.9c0.1-0.9-0.9-3.9-2.2-5.9c-1.2-2-3.1-3.9-5.1-5.4
		c-1.5-1.1-3.3-2-4.9-2.6c-2.5-0.9-5.7-1.5-8.4-1.5c-2.8,0-6.2,0.6-8.9,1.7c-2.1,0.8-4.9,2.6-6.6,4.2c-1.6,1.5-3.3,3.9-4.1,5.7
		c-0.8,2-1.4,5.2-1.3,7.1c0.4,4.4,2.7,8,6.9,10.5c1.6,0.9,4.3,1.9,6.4,2.2C127.8-197.6,130.2-197.6,131.4-197.7L131.4-197.7z
		 M150-236.9c2.7-0.5,4.5-3,3.9-5.4c-0.3-1.2-1.5-2.6-2.7-3.1c-1.5-0.6-3.3-0.6-4.8,0c-1.6,0.6-2.9,2.4-2.9,4.1
		C143.5-238.4,146.7-236.2,150-236.9z M165.2-236.9c3.6-0.8,5.2-4.4,3.1-7c-0.6-0.7-1.3-1.2-2.3-1.6c-0.7-0.3-0.9-0.3-2-0.3
		c-1.1,0-1.3,0-2,0.3c-1.5,0.5-2.5,1.5-3,2.9c-0.2,0.4-0.2,0.8-0.1,1.5c0,0.9,0.1,1.1,0.5,1.7C160.3-237.4,162.8-236.4,165.2-236.9
		L165.2-236.9z"/>
</g>
<g id="layer17" transform="translate(0,-270.2)" inkscape:groupmode="layer" inkscape:label="Warning 1" class="st0">
	
		<path id="path6909-5-0" sodipodi:arc-type="arc" sodipodi:cx="84.751167" sodipodi:cy="71.090439" sodipodi:end="0" sodipodi:open="true" sodipodi:rx="14.015892" sodipodi:ry="13.385468" sodipodi:start="4.79068e-05" sodipodi:type="arc" class="st10" d="
		M280-294.2c0,21-17.8,37.9-39.7,37.9s-39.7-17-39.7-37.9s17.8-37.9,39.7-37.9S280-315.2,280-294.2"/>
	<path id="path7505-4" inkscape:connector-curvature="0" sodipodi:nodetypes="cccc" class="st18" d="M239.8-326.7
		c-3.1-1.8-31.9,47-30.1,49.6c-0.2,3.7,58.8,4.4,58,1.4C268.5-279.8,246.1-327.8,239.8-326.7L239.8-326.7z"/>
	<text transform="matrix(1.1474 0 0 1 233.7197 -279.7697)" class="st2" style="font-family:'Arial-BoldMT'; font-size:48.693px;">!</text>
</g>
<g id="layer18" transform="translate(0,-270.2)" inkscape:groupmode="layer" inkscape:label="Warning 2" class="st0">
	
		<path id="path6909-5-0-1" sodipodi:arc-type="arc" sodipodi:cx="85.312431" sodipodi:cy="99.80854" sodipodi:end="0" sodipodi:open="true" sodipodi:rx="14.015892" sodipodi:ry="13.385468" sodipodi:start="4.79068e-05" sodipodi:type="arc" class="st7" d="
		M281.6-212.8c0,21-17.8,37.9-39.7,37.9c-21.9,0-39.7-17-39.7-37.9s17.8-37.9,39.7-37.9S281.6-233.8,281.6-212.8"/>
	<path id="path7505-4-1" inkscape:connector-curvature="0" sodipodi:nodetypes="cccc" class="st18" d="M241.4-245.3
		c-3.1-1.8-31.9,47-30.1,49.6c-0.2,3.7,58.8,4.4,58,1.4C270.1-198.4,247.7-246.4,241.4-245.3z"/>
	<text transform="matrix(1.1474 0 0 1 235.3115 -198.3635)" class="st2" style="font-family:'Arial-BoldMT'; font-size:48.693px;">!</text>
</g>
<g id="layer19" transform="translate(0,-270.2)" inkscape:groupmode="layer" inkscape:label="Warning 3" class="st0">
	<path id="path7505-4-15-7" inkscape:connector-curvature="0" sodipodi:nodetypes="cccc" class="st18" d="M339.5-335.7
		c-3.7-2.3-38.5,61.6-36.4,65.1c-0.3,4.8,71.1,5.8,70.2,1.8C374.2-274.2,347-337.1,339.5-335.7L339.5-335.7z"/>
	<text transform="matrix(1.0592 0 0 1 332.0859 -274.1887)" class="st2" style="font-family:'Arial-BoldMT'; font-size:63.8157px;">!</text>
</g>
<g id="layer20" transform="translate(0,-270.2)" inkscape:groupmode="layer" inkscape:label="Warning 4" class="st0">
	<path id="path7505-4-15-7-9" inkscape:connector-curvature="0" sodipodi:nodetypes="cccc" class="st19" d="M340.3-255.4
		c-3.7-2.3-38.5,61.6-36.4,65.1c-0.3,4.8,71.1,5.8,70.2,1.8C375-193.8,347.9-256.8,340.3-255.4L340.3-255.4z"/>
	<text transform="matrix(1.0592 0 0 1 332.9287 -193.8449)" class="st9" style="font-family:'Arial-BoldMT'; font-size:63.8157px;">!</text>
</g>
<g id="layer21" transform="translate(0,-270.2)" inkscape:groupmode="layer" inkscape:label="Warning 5" class="st0">
	<path id="path7505-4-15-7-9-1" inkscape:connector-curvature="0" sodipodi:nodetypes="cccc" class="st19" d="M445.3-258.8
		c-3.7-2.3-38.5,61.6-36.4,65.1c-0.3,4.8,71.1,5.8,70.2,1.8C480-197.3,452.9-260.2,445.3-258.8z"/>
	<text transform="matrix(1.0592 0 0 1 431.6094 -195.6086)" class="st9" style="font-family:'Arial-BoldMT'; font-size:63.8157px;">!</text>
</g>
<g id="layer22" transform="translate(0,-270.2)" inkscape:groupmode="layer" inkscape:label="Warning 6" class="st0">
	
		<path id="path6909-5-0-1-6" sodipodi:arc-type="arc" sodipodi:cx="82.78756" sodipodi:cy="136.95428" sodipodi:end="0" sodipodi:open="true" sodipodi:rx="14.015892" sodipodi:ry="13.385468" sodipodi:start="4.79068e-05" sodipodi:type="arc" class="st7" d="
		M274.4-107.5c0,21-17.8,37.9-39.7,37.9s-39.7-17-39.7-37.9c0-21,17.8-37.9,39.7-37.9S274.4-128.5,274.4-107.5"/>
	<path id="path7505-4-1-7" inkscape:connector-curvature="0" sodipodi:nodetypes="cccc" class="st18" d="M234.2-140
		c-3.1-1.8-31.9,47-30.1,49.6c-0.2,3.7,58.8,4.4,58,1.4C262.9-93.1,240.5-141.1,234.2-140L234.2-140z"/>
	<text transform="matrix(1.1474 0 0 1 224.1309 -93.0685)" class="st2" style="font-family:'Arial-BoldMT'; font-size:48.693px;">!</text>
</g>
<g id="layer23" transform="translate(0,-270.2)" inkscape:groupmode="layer" inkscape:label="Warning 7" class="st0">
	<path id="path7505-4-15" inkscape:connector-curvature="0" sodipodi:nodetypes="cccc" class="st20" d="M350.1-141.8
		c-3.6-2.1-37.4,56.5-35.3,59.7c-0.3,4.4,69,5.3,68.1,1.6C383.7-85.3,357.4-143,350.1-141.8L350.1-141.8z"/>
	<text transform="matrix(1.1191 0 0 1 342.9092 -85.301)" class="st2" style="font-family:'Arial-BoldMT'; font-size:58.5577px;">!</text>
</g>
<g id="layer24" transform="translate(0,-270.2)" inkscape:groupmode="layer" inkscape:label="Warning 8" class="st0">
	<path id="path7505-4-15-2" inkscape:connector-curvature="0" sodipodi:nodetypes="cccc" class="st21" d="M451.8-150.1
		c-4.3-2.3-44,62-41.6,65.4c-0.3,4.9,81.3,5.8,80.2,1.8C491.4-88.1,460.5-151.4,451.8-150.1z"/>
	<text transform="matrix(1.203 0 0 1 437.8242 -87.2629)" class="st2" style="font-family:'Arial-BoldMT'; font-size:64.1895px;">!</text>
</g>
</svg>
