<?xml version="1.0" encoding="utf-8"?>
<!-- Generator: Adobe Illustrator 22.1.0, SVG Export Plug-In . SVG Version: 6.00 Build 0)  -->
<svg version="1.1"
	 id="svg6047" inkscape:version="0.92.4 (5da689c313, 2019-01-14)" sodipodi:docname="Sleepy_3.svg" xmlns:cc="http://creativecommons.org/ns#" xmlns:dc="http://purl.org/dc/elements/1.1/" xmlns:inkscape="http://www.inkscape.org/namespaces/inkscape" xmlns:rdf="http://www.w3.org/1999/02/22-rdf-syntax-ns#" xmlns:sodipodi="http://sodipodi.sourceforge.net/DTD/sodipodi-0.dtd" xmlns:svg="http://www.w3.org/2000/svg"
	 xmlns="http://www.w3.org/2000/svg" xmlns:xlink="http://www.w3.org/1999/xlink" x="0px" y="0px" viewBox="0 0 70.9 70.9"
	 style="enable-background:new 0 0 70.9 70.9;" xml:space="preserve">
<style type="text/css">
	.st0{display:none;}
	.st1{display:inline;fill:none;}
	.st2{display:inline;fill:#736CED;}
	.st3{display:inline;fill:#F2DFD7;stroke:#736CED;stroke-width:1.4918;stroke-linejoin:round;}
	.st4{display:inline;fill:#726BEB;}
	.st5{display:inline;fill:none;stroke:#736CED;stroke-width:1.265;stroke-linejoin:round;}
	.st6{display:inline;fill:#766CED;stroke:#736CED;stroke-width:1.265;stroke-linejoin:round;}
	.st7{display:inline;fill:#F2DFD7;stroke:#736CED;stroke-width:1.265;stroke-linejoin:round;}
	.st8{display:inline;fill:#736CED;stroke:#736CED;stroke-width:1.265;stroke-linejoin:round;}
	.st9{display:inline;fill:#FFFFFF;}
	.st10{display:inline;fill:#FFFFFF;stroke:#736CED;stroke-width:1.265;stroke-linejoin:round;}
	.st11{display:inline;fill:#736CED;stroke:#736CED;stroke-width:1.2671;stroke-linejoin:round;}
	.st12{display:inline;fill:#736CED;stroke:#736CED;stroke-width:1.2661;stroke-linejoin:round;}
	.st13{display:inline;fill:#736CED;stroke:#736CED;stroke-width:1.266;stroke-linejoin:round;}
	.st14{fill:#736CED;stroke:#736CED;stroke-width:1.265;stroke-linejoin:round;}
	.st15{enable-background:new    ;}
	.st16{fill:#FFFFFF;}
	.st17{display:inline;fill:none;stroke:#736CED;stroke-width:1.265;}
	.st18{display:inline;fill:#736CED;stroke:#736CED;stroke-width:1.265;}
	.st19{display:inline;fill:none;stroke:#736CED;stroke-width:1.5024;}
	.st20{display:inline;fill:none;stroke:#736CED;stroke-width:1.7075;}
</style>
<sodipodi:namedview  bordercolor="#666666" borderopacity="1.0" id="base" inkscape:current-layer="layer11" inkscape:cx="-13.462035" inkscape:cy="47.16059" inkscape:document-rotation="0" inkscape:document-units="mm" inkscape:pageopacity="0.0" inkscape:pageshadow="2" inkscape:window-height="1271" inkscape:window-maximized="1" inkscape:window-width="2400" inkscape:window-x="2391" inkscape:window-y="-9" inkscape:zoom="8" pagecolor="#ffffff" showborder="true" showgrid="false">
	</sodipodi:namedview>
<g id="layer1" transform="translate(0,-272)" inkscape:groupmode="layer" inkscape:label="Snail Icon" class="st0">
	<path id="path6144" inkscape:connector-curvature="0" class="st1" d="M0-499"/>
	<path id="path6127" inkscape:connector-curvature="0" class="st1" d="M0-499"/>
	<path id="path7373" inkscape:connector-curvature="0" class="st2" d="M358.6-15.7c0-2,0-2.8,0-1.8c0,1,0,2.6,0,3.6
		C358.6-12.9,358.6-13.7,358.6-15.7L358.6-15.7z M377.7-24.6c-0.2-0.1-0.6-0.5-0.7-0.8c-0.9-1.6,1.1-3.3,2.7-2.4
		c1.2,0.7,1.3,2.2,0.2,3C379.5-24.3,378.3-24.2,377.7-24.6L377.7-24.6z M360.4-24.5c-0.5-0.2-1.1-1-1.1-1.5c0-0.5,0.6-1.3,1.1-1.6
		c1.3-0.7,2.9,0.2,2.9,1.6C363.3-24.7,361.8-23.9,360.4-24.5L360.4-24.5z M315.9,38.3c-0.7-0.3-1.4-1-1.5-1.5
		c-0.2-1,0.4-3.6,1.3-5.6c1.4-3.1,3.7-5.6,6.7-7.6l1-0.6l-0.6-0.8c-1.3-1.8-2.3-3.8-3-6.4c-0.4-1.3-0.4-1.5-0.4-4.3
		c0-2.2,0.1-3.1,0.2-4c1.2-6,4-10.5,8.8-14.4c2.1-1.6,4.9-3.2,7.3-4c2.8-1,7.2-1.7,9.6-1.5c1.8,0.1,4.4,0.5,6.1,0.9
		c2,0.5,3.5,1.1,5.4,2.1c0.9,0.5,1.7,0.8,1.8,0.8c0.1,0,0.1-1.9,0.1-5.4v-5.3l-0.8-0.4c-1.3-0.7-1.8-1.1-2.4-1.8
		c-1.2-1.5-1.7-2.8-1.7-4.5c0-1.3,0.2-2,0.8-3.2c0.7-1.2,1.3-2,2.5-2.7c1.9-1.2,4.1-1.5,6.3-0.9c1.2,0.3,2.8,1.3,3.6,2.2
		c1.4,1.6,2.1,3.7,1.8,5.5c-0.4,2.3-1.8,4.4-3.7,5.3c-1.1,0.6-1.1,0.4-1,2.2c0,1.2,0.1,1.7,0.3,2.2c0.4,0.9,1.3,1.8,2.2,2.1
		c0.7,0.3,0.9,0.3,3.3,0.3c2.4,0,2.6,0,3.2-0.3c0.8-0.4,1.7-1.1,2.1-2c0.3-0.6,0.4-0.8,0.4-2.3l0.1-1.7l-1-0.5
		c-1.3-0.7-2-1.5-2.7-2.7c-1.3-2.3-1.3-4.8,0.1-7c0.6-1,1.2-1.6,2.3-2.3c1.1-0.7,2-1.1,3.3-1.2c3.5-0.5,6.8,1.5,8.2,4.8
		c0.4,1,0.5,2.8,0.2,3.9c-0.5,1.9-2,3.7-3.8,4.6l-0.8,0.4l0,2.4c0,2.6,0.1,3.4,0.8,5.2c0.5,1.2,1.6,3.2,2.6,4.5
		c1,1.3,1.3,2.2,1.4,3.7c0.1,2.6-1.2,4.9-3.6,6.3c-0.7,0.4-1.1,0.7-1.2,0.9c0,0.1-0.1,2.6-0.1,5.5c-0.1,5.4-0.1,5.9-0.8,8.8
		c-0.5,2.3-1.3,4.1-2.9,6.8c-2.9,5-7.4,8.9-13.1,11.3c-3.2,1.4-5.9,2-9.5,2.3c-0.9,0.1-8.4,0.1-20.1,0.1
		C317.3,38.5,316.4,38.5,315.9,38.3L315.9,38.3z M356.4,36.8c3.1-0.4,5.3-1,7.9-2.2c2.7-1.2,4.5-2.4,6.7-4.3
		c3.7-3.2,6.5-7.6,7.9-12.2c0.7-2.6,0.8-3.6,0.9-9.6c0.1-4.2,0.1-5.5,0.3-5.8c0.2-0.3,0.6-0.6,1.8-1.3c2-1.1,3.1-3.3,2.7-5.4
		c-0.2-0.9-0.6-1.7-1.4-2.8c-1.5-2-2.8-4.8-3.2-6.9c-0.1-0.6-0.2-2-0.3-3.1l-0.1-2.1l-1.2,0l-1.2,0l0,1.2c0,1.3-0.3,2.5-0.7,3.3
		c-0.4,0.8-1.6,1.8-2.6,2.3l-0.9,0.4l-2.9,0c-2.7,0-3,0-3.7-0.2c-1-0.3-1.9-0.9-2.6-1.8c-1-1.1-1.2-1.8-1.3-3.6l-0.1-1.6h-1.2h-1.2
		v5.8v5.8l1.1,0.8c3.3,2.6,6.2,6.8,7.6,11.1c0.7,2.1,0.9,3.2,0.7,4.1c-0.3,1.5-1.3,2.6-2.8,3.3l-0.8,0.4h-3.7h-3.7l-0.1,0.7
		c-0.3,2.5-0.8,4.3-1.8,6.4c-2.2,4.7-6.7,8.5-11.8,9.9c-2.9,0.8-3.4,0.9-6,0.9c-2.1,0-2.6,0-3.6-0.3c-4.2-1-7.1-2.3-9.7-4.7l-1.1-1
		l-0.8,0.5c-2,1.1-4.3,3.3-5.4,5.3c-1.6,2.6-2.6,6.2-1.9,6.8c0.2,0.2,1,0.2,19.3,0.2C353.8,37,354.7,37,356.4,36.8L356.4,36.8z
		 M341.5,28.5c1.2-0.2,3.3-0.8,4.6-1.3c1.8-0.7,4.4-2.4,5.8-3.8c2-2,3.1-3.8,3.9-6.1c1.7-4.8,1.2-8.8-1.4-12.2
		c-2.5-3.2-7.2-5.2-11.3-4.6c-4.1,0.5-7.4,2.7-9.5,6.2c-1.4,2.4-1.8,5.8-0.9,8c1,2.5,3.4,4.6,6.1,5.2c1,0.2,3,0.2,4.1,0
		c2.7-0.6,5.1-2.6,6-4.9c1.4-3.5,0.5-6.4-2.1-7.3c-1-0.3-1.6-0.3-2.6,0c-1.5,0.5-2.6,1.7-2.8,3.3c-0.1,1-0.4,1.4-0.9,1.4
		c-1,0-1-1.9-0.1-3.6c0.8-1.4,2.3-2.4,4.2-2.7c2.6-0.4,5.3,1.1,6.2,3.5c0.4,1,0.4,3.5,0,4.9c-0.6,2.1-2,4-3.7,5.2
		c-1.3,0.9-3.1,1.6-4.3,1.8c-1.5,0.2-3.6,0.1-4.8-0.3c-3.3-1.1-5.8-3.4-6.8-6.5c-0.3-0.8-0.3-1.2-0.3-2.9c0-1.7,0-2.1,0.4-3.3
		c1-3.6,3.9-6.8,7.5-8.4c2.2-0.9,3.6-1.2,5.9-1.2c1.9,0,2.9,0.1,4.8,0.8c2.9,0.9,5.8,3.3,7.3,5.9c0.6,1.1,1.3,3,1.5,4.1
		c0.1,0.5,0.2,1,0.3,1.1c0.2,0.2,6,0.2,7,0c1.2-0.2,2.3-1.3,2.4-2.4c0.2-1.2-1.1-4.8-2.5-7.4c-1.4-2.5-3.5-4.9-5.8-6.7
		c-1.7-1.3-3.8-2.5-5.5-3.2c-2.9-1.2-6.6-1.9-9.6-1.9c-3.2,0-7.1,0.8-10.1,2.1c-2.5,1.1-5.6,3.2-7.5,5.3c-1.8,1.9-3.8,4.9-4.7,7.2
		c-1,2.4-1.6,6.6-1.5,9c0.4,5.5,3.1,10,7.9,13.1c1.8,1.2,4.9,2.4,7.3,2.7C337.4,28.7,340.1,28.7,341.5,28.5L341.5,28.5z M362.8-20.5
		c3.1-0.7,5.1-3.8,4.4-6.7c-0.4-1.5-1.8-3.2-3.1-3.8c-1.8-0.8-3.7-0.8-5.5,0c-1.8,0.8-3.3,3.1-3.3,5.1
		C355.4-22.4,359-19.7,362.8-20.5L362.8-20.5z M380.1-20.5c4.1-0.9,6-5.5,3.5-8.8c-0.7-0.9-1.5-1.5-2.6-2c-0.8-0.3-1-0.4-2.3-0.4
		c-1.3,0-1.4,0-2.3,0.4c-1.7,0.7-2.9,1.9-3.4,3.6c-0.2,0.5-0.2,1-0.2,1.9c0.1,1.1,0.1,1.4,0.5,2.2C374.5-21.2,377.4-19.9,380.1-20.5
		L380.1-20.5z M0-499 M0-499"/>
</g>
<g id="layer2" transform="translate(0,-272)" inkscape:groupmode="layer" inkscape:label="Interested 1" class="st0">
	
		<path id="path6909-5-2-5-5-9-1" sodipodi:arc-type="arc" sodipodi:cx="34.870567" sodipodi:cy="161.61592" sodipodi:end="0" sodipodi:open="true" sodipodi:rx="16.071892" sodipodi:ry="14.743004" sodipodi:start="4.79068e-05" sodipodi:type="arc" class="st3" d="
		M144.4-40.9c0,23.1-20.4,41.8-45.6,41.8c-25.2,0-45.6-18.7-45.6-41.8c0-23.1,20.4-41.8,45.6-41.8S144.4-64,144.4-40.9"/>
	<path id="path6733-8-9-6" inkscape:connector-curvature="0" class="st4" d="M96.9,1.1C84.7,0.6,73.5-4.3,65.1-12.8
		c-3.4-3.4-5.6-6.4-7.6-10.4c-4.8-9.1-5.7-20.2-2.6-30c2-6.3,5.3-11.6,10.2-16.6c7.8-7.9,17.9-12.6,29.5-13.8
		c3.5-0.3,8.9-0.2,12.5,0.4c10.2,1.6,19.4,6.2,26.4,13.4c5.7,5.8,9.2,12.1,11,19.5c1.6,6.7,1.3,14.3-0.8,20.9
		c-2,6.3-5.3,11.6-10.2,16.6C124.1-3.2,111.2,1.7,96.9,1.1z M105.8-1.3c10.6-1.5,19.8-6.1,26.7-13.3c3.2-3.3,5.3-6.3,7.2-10.3
		c2.6-5.3,3.7-10.4,3.7-16.3c0-5.9-1.2-11-3.7-16.3c-1.9-4-4.1-7-7.2-10.3c-7-7.3-16.1-11.8-26.9-13.4c-2.6-0.4-10-0.4-12.7,0
		c-10.7,1.5-19.9,6.1-26.9,13.4c-3.2,3.3-5.3,6.3-7.2,10.3c-2.6,5.3-3.7,10.4-3.7,16.3c0,5.9,1.2,11,3.7,16.3
		c4,8.2,10.5,14.7,19.1,19c5.3,2.7,10.5,4.2,17.3,4.9C96.8-0.9,104.2-1.1,105.8-1.3L105.8-1.3z M95.1-12.5c-0.8-0.3-1.6-0.9-1.5-1.1
		c0-0.1,0.3,0,0.6,0.2c0.8,0.6,1.7,0.9,2.9,0.9c1.7,0,3.4-0.6,5.2-2c1.1-0.8,1.4-0.8,0.5,0c-0.8,0.7-2,1.4-3.1,1.8
		C98.3-12.2,96-12.2,95.1-12.5L95.1-12.5z M96-15.3c-2-0.4-3.8-2.1-5-4.7c-0.7-1.5-1-2.6-1.2-4.4c-0.5-4.9,1.5-9.7,4.7-11.4
		c4.4-2.4,9,1.7,9.7,8.5c0.4,4.3-1.1,8.8-3.8,10.9C99.1-15.4,97.4-15,96-15.3L96-15.3z M76-37.2c-0.8-3.8-1.5-7-1.6-7.1
		c-0.1-0.1-3-0.9-6.5-1.8c-3.5-0.9-6.3-1.6-6.3-1.6c0,0,2.9-0.7,6.3-1.6c3.4-0.9,6.3-1.7,6.4-1.8c0.1-0.1,0.8-3.3,1.6-7.1
		c0.8-3.8,1.5-6.9,1.5-6.9c0,0,0.7,3.1,1.4,6.8c0.8,3.7,1.5,6.9,1.5,7.1c0.1,0.3,1.1,0.6,6.5,1.9c3.5,0.9,6.3,1.6,6.3,1.7
		c0,0-2.9,0.8-6.3,1.6c-3.4,0.9-6.3,1.7-6.4,1.8c-0.1,0.1-0.8,3.3-1.6,7.1c-0.8,3.8-1.5,6.9-1.5,6.9C77.5-30.3,76.8-33.4,76-37.2
		L76-37.2z M115.2-37.2c-0.8-3.8-1.5-7-1.6-7.1c-0.1-0.1-3-0.9-6.5-1.8c-3.5-0.9-6.3-1.6-6.3-1.6c0,0,2.9-0.7,6.3-1.6
		c3.4-0.9,6.3-1.7,6.4-1.8c0.1-0.1,0.8-3.3,1.6-7.1c0.8-3.8,1.5-6.9,1.5-6.9c0,0,0.7,3.1,1.4,6.8c0.8,3.7,1.5,6.9,1.5,7.1
		c0.1,0.3,1.1,0.6,6.5,1.9c3.5,0.9,6.3,1.6,6.3,1.7c0,0-2.9,0.8-6.3,1.6c-3.4,0.9-6.3,1.7-6.4,1.8c-0.1,0.1-0.8,3.3-1.6,7.1
		c-0.8,3.8-1.5,6.9-1.5,6.9C116.7-30.3,116-33.4,115.2-37.2L115.2-37.2z"/>
</g>
<g id="layer3" transform="translate(0,-272)" inkscape:groupmode="layer" inkscape:label="Interested 2" class="st0">
	<ellipse id="path6845" class="st5" cx="128.3" cy="-464" rx="33.3" ry="31.2"/>
	<ellipse id="path6849" class="st6" cx="118.8" cy="-472.2" rx="3.6" ry="9.7"/>
	<ellipse id="path6849-7" class="st6" cx="136.4" cy="-472" rx="3.3" ry="9.7"/>
	
		<path id="path6868" sodipodi:arc-type="arc" sodipodi:cx="44.898777" sodipodi:cy="15.204288" sodipodi:end="3.1415927" sodipodi:open="true" sodipodi:rx="4.9904609" sodipodi:ry="5.2668943" sodipodi:start="0" sodipodi:type="arc" class="st6" d="
		M141.4-455.9c0,5.3-2.7,10.3-7.1,12.9c-4.4,2.7-9.8,2.7-14.1,0c-4.4-2.7-7.1-7.6-7.1-12.9"/>
</g>
<g id="layer4" transform="translate(0,-272)" inkscape:groupmode="layer" inkscape:label="Interested 3" class="st0">
	<ellipse id="path6845-3" class="st7" cx="45.4" cy="-390.5" rx="33.7" ry="32.1"/>
	<ellipse id="path6849-7-5" class="st8" cx="53.5" cy="-399.2" rx="3.3" ry="10.1"/>
	
		<path id="path6868-0" sodipodi:arc-type="arc" sodipodi:cx="15.837421" sodipodi:cy="40.968754" sodipodi:end="3.1415927" sodipodi:open="true" sodipodi:rx="5.0471587" sodipodi:ry="5.4839969" sodipodi:start="0" sodipodi:type="arc" class="st8" d="
		M59.2-382.9c0,5.6-2.7,10.7-7.2,13.5c-4.4,2.8-9.9,2.8-14.3,0c-4.4-2.8-7.2-7.9-7.2-13.5"/>
	<ellipse id="path6849-7-5-6" class="st8" cx="37" cy="-399.7" rx="3.3" ry="10.1"/>
</g>
<g id="layer5" transform="translate(0,-272)" inkscape:groupmode="layer" inkscape:label="Interested 4" class="st0">
	<ellipse id="path6845-7" class="st8" cx="130.9" cy="-392" rx="32.8" ry="31.4"/>
	<ellipse id="path6849-9" class="st9" cx="122.7" cy="-401.5" rx="5.3" ry="11.4"/>
	<ellipse id="path6849-7-3" class="st9" cx="138.2" cy="-401.6" rx="5" ry="11.4"/>
	
		<path id="path6868-05" sodipodi:arc-type="arc" sodipodi:cx="46.016682" sodipodi:cy="40.022118" sodipodi:end="3.1415927" sodipodi:open="true" sodipodi:rx="5.439631" sodipodi:ry="6.5539465" sodipodi:start="0" sodipodi:type="arc" class="st9" d="
		M145.9-385.6c0,6.6-2.9,12.8-7.7,16.1c-4.8,3.3-10.6,3.3-15.4,0c-4.8-3.3-7.7-9.5-7.7-16.1"/>
</g>
<g id="layer6" transform="translate(0,-272)" inkscape:groupmode="layer" inkscape:label="Confused 1" class="st0">
	
		<path id="path6909-5" sodipodi:arc-type="arc" sodipodi:cx="81.689285" sodipodi:cy="13.443038" sodipodi:end="0" sodipodi:open="true" sodipodi:rx="11.583739" sodipodi:ry="10.485593" sodipodi:start="4.79068e-05" sodipodi:type="arc" class="st10" d="
		M264.4-460.9c0,16.4-14.7,29.7-32.8,29.7c-18.1,0-32.8-13.3-32.8-29.7c0-16.4,14.7-29.7,32.8-29.7
		C249.7-490.6,264.4-477.3,264.4-460.9"/>
	<path id="rect6911-75" class="st11" d="M223.7-474.3L223.7-474.3c1.5,1-0.3,5.6-4,10.3l-1.4,1.8c-3.7,4.7-7.9,7.8-9.3,6.8h0
		c-1.5-1,0.3-5.6,4-10.3l1.4-1.8C218.1-472.2,222.3-475.2,223.7-474.3z"/>
	<path id="rect6911-7-8" class="st12" d="M207.5-473.6L207.5-473.6c1.3-1.2,5.8,1.2,10.2,5.3l2.2,2c4.4,4.1,6.9,8.4,5.6,9.6l0,0
		c-1.3,1.2-5.8-1.2-10.2-5.3l-2.2-2C208.7-468.1,206.2-472.4,207.5-473.6z"/>
	<path id="rect6911-9-7" class="st13" d="M237.7-475L237.7-475c-1.5,1,0.3,5.7,3.9,10.4l1.6,2.1c3.6,4.8,7.8,7.8,9.2,6.8h0
		c1.5-1-0.3-5.7-3.9-10.4l-1.6-2.1C243.3-473,239.2-476,237.7-475z"/>
	<path id="rect6911-7-9-5" class="st12" d="M254-473.8L254-473.8c-1.3-1.2-5.8,1.2-10.2,5.3l-2.2,2c-4.4,4.1-6.9,8.4-5.6,9.6l0,0
		c1.3,1.2,5.8-1.2,10.2-5.3l2.2-2C252.8-468.3,255.3-472.6,254-473.8z"/>
	<path id="rect6946-6" class="st8" d="M230.8-449.6L230.8-449.6c2.6,0,4.6,1.1,4.6,2.4l0,0c0,1.3-2.1,2.4-4.6,2.4l0,0
		c-2.6,0-4.6-1.1-4.6-2.4l0,0C226.2-448.5,228.3-449.6,230.8-449.6z"/>
</g>
<g id="layer7" transform="translate(0,-272)" inkscape:groupmode="layer" inkscape:label="Confused 2" class="st0">
	
		<path id="path6909" sodipodi:arc-type="arc" sodipodi:cx="82.047058" sodipodi:cy="38.41217" sodipodi:end="0" sodipodi:open="true" sodipodi:rx="11.583739" sodipodi:ry="10.547683" sodipodi:start="4.79068e-05" sodipodi:type="arc" class="st7" d="
		M265.4-390.1c0,16.5-14.7,29.9-32.8,29.9c-18.1,0-32.8-13.4-32.8-29.9c0-16.5,14.7-29.9,32.8-29.9
		C250.7-420,265.4-406.7,265.4-390.1"/>
	<path id="rect6911" class="st13" d="M224.7-403.8L224.7-403.8c1.5,1-0.3,5.7-3.9,10.4l-1.6,2.1c-3.6,4.8-7.8,7.8-9.2,6.8l0,0
		c-1.5-1,0.3-5.7,3.9-10.4l1.6-2.1C219.1-401.7,223.3-404.8,224.7-403.8z"/>
	<path id="rect6911-7" class="st12" d="M208.3-402.4L208.3-402.4c1.3-1.2,5.8,1.2,10.2,5.3l2.2,2c4.4,4.1,6.9,8.4,5.6,9.6l0,0
		c-1.3,1.2-5.8-1.2-10.2-5.3l-2.2-2C209.5-396.9,207-401.2,208.3-402.4z"/>
	<path id="rect6911-9" class="st13" d="M238.7-404.1L238.7-404.1c-1.5,1,0.3,5.7,3.9,10.4l1.6,2.1c3.6,4.8,7.8,7.8,9.2,6.8h0
		c1.5-1-0.3-5.7-3.9-10.4l-1.6-2.1C244.3-402,240.2-405.1,238.7-404.1z"/>
	<path id="rect6911-7-9" class="st12" d="M255-402.9L255-402.9c-1.3-1.2-5.8,1.2-10.2,5.3l-2.2,2c-4.4,4.1-6.9,8.4-5.6,9.6l0,0
		c1.3,1.2,5.8-1.2,10.2-5.3l2.2-2C253.8-397.4,256.3-401.7,255-402.9z"/>
	<path id="rect6946" class="st8" d="M231.8-378.7L231.8-378.7c2.6,0,4.6,1.1,4.6,2.4l0,0c0,1.3-2.1,2.4-4.6,2.4l0,0
		c-2.6,0-4.6-1.1-4.6-2.4l0,0C227.2-377.6,229.3-378.7,231.8-378.7z"/>
</g>
<g id="layer8" transform="translate(0,-272)" inkscape:groupmode="layer" inkscape:label="Confused 3" class="st0">
	
		<path id="path6909-5-7" sodipodi:arc-type="arc" sodipodi:cx="106.82462" sodipodi:cy="24.542578" sodipodi:end="0" sodipodi:open="true" sodipodi:rx="11.583739" sodipodi:ry="10.485593" sodipodi:start="4.79068e-05" sodipodi:type="arc" class="st8" d="
		M335.6-429.5c0,16.4-14.7,29.7-32.8,29.7c-18.1,0-32.8-13.3-32.8-29.7c0-16.4,14.7-29.7,32.8-29.7
		C320.9-459.2,335.6-445.9,335.6-429.5"/>
	<path id="rect6911-75-1" class="st9" d="M295.5-443L295.5-443c1.7,1.2,0.3,5.8-3.3,10.4l-4.7,6c-3.5,4.6-7.8,7.3-9.5,6.2v0
		c-1.7-1.2-0.3-5.8,3.3-10.4l4.7-6C289.5-441.4,293.8-444.2,295.5-443z"/>
	<path id="rect6911-7-8-7" class="st9" d="M276.4-442.2L276.4-442.2c1.5-1.4,6.1,0.6,10.2,4.6l6.1,5.8c4.1,4,6.3,8.3,4.8,9.8l0,0
		c-1.5,1.4-6.1-0.6-10.2-4.6l-6.1-5.8C277-436.4,274.9-440.7,276.4-442.2z"/>
	<path id="rect6911-9-7-6" class="st9" d="M310.4-443.9L310.4-443.9c-1.7,1.2-0.3,5.9,3.2,10.5l4.8,6.4c3.5,4.6,7.7,7.4,9.4,6.2l0,0
		c1.7-1.2,0.3-5.9-3.2-10.5l-4.8-6.4C316.4-442.3,312.2-445.1,310.4-443.9z"/>
	<path id="rect6911-7-9-5-8" class="st9" d="M329.6-442.5L329.6-442.5c-1.5-1.4-6.1,0.6-10.2,4.6l-6.1,5.8c-4.1,4-6.3,8.3-4.8,9.8
		l0,0c1.5,1.4,6.1-0.6,10.2-4.6l6.1-5.8C328.9-436.7,331.1-441.1,329.6-442.5z"/>
	<path id="rect6946-6-8" class="st9" d="M302-417L302-417c3.6,0,6.5,1.7,6.5,3.8l0,0c0,2.1-2.9,3.8-6.5,3.8l0,0
		c-3.6,0-6.5-1.7-6.5-3.8l0,0C295.5-415.3,298.4-417,302-417z"/>
	
		<text transform="matrix(0.9554 0.2954 -0.2954 0.9554 325.1614 -450.0404)" class="st2" style="font-family:'Kaleko205Round-Bold'; font-size:29.9999px;">?</text>
</g>
<g id="layer12" transform="translate(0,-272)" inkscape:groupmode="layer" inkscape:label="Confused 4" class="st0">
	
		<path id="path6909-6" sodipodi:arc-type="arc" sodipodi:cx="49.672539" sodipodi:cy="39.028423" sodipodi:end="0" sodipodi:open="true" sodipodi:rx="11.583739" sodipodi:ry="10.547683" sodipodi:start="4.79068e-05" sodipodi:type="arc" class="st7" d="
		M173.6-388.4c0,16.5-14.7,29.9-32.8,29.9c-18.1,0-32.8-13.4-32.8-29.9c0-16.5,14.7-29.9,32.8-29.9S173.6-404.9,173.6-388.4"/>
	<path id="rect6911-5" class="st13" d="M133-402.1L133-402.1c1.5,1-0.3,5.7-3.9,10.4l-1.6,2.1c-3.6,4.8-7.8,7.8-9.2,6.8h0
		c-1.5-1,0.3-5.7,3.9-10.4l1.6-2.1C127.4-400,131.5-403.1,133-402.1z"/>
	<path id="rect6911-7-95" class="st12" d="M116.5-400.7L116.5-400.7c1.3-1.2,5.8,1.2,10.2,5.3l2.2,2c4.4,4.1,6.9,8.4,5.6,9.6l0,0
		c-1.3,1.2-5.8-1.2-10.2-5.3l-2.2-2C117.8-395.2,115.3-399.5,116.5-400.7z"/>
	<path id="rect6911-9-4" class="st13" d="M147-402.3L147-402.3c-1.5,1,0.3,5.7,3.9,10.4l1.6,2.1c3.6,4.8,7.8,7.8,9.2,6.8l0,0
		c1.5-1-0.3-5.7-3.9-10.4l-1.6-2.1C152.6-400.3,148.4-403.3,147-402.3z"/>
	<path id="rect6911-7-9-9" class="st12" d="M163.2-401.1L163.2-401.1c-1.3-1.2-5.8,1.2-10.2,5.3l-2.2,2c-4.4,4.1-6.9,8.4-5.6,9.6
		l0,0c1.3,1.2,5.8-1.2,10.2-5.3l2.2-2C162-395.6,164.5-399.9,163.2-401.1z"/>
	<path id="rect6946-1" class="st8" d="M140.1-376.9L140.1-376.9c2.6,0,4.6,1.1,4.6,2.4l0,0c0,1.3-2.1,2.4-4.6,2.4l0,0
		c-2.6,0-4.6-1.1-4.6-2.4l0,0C135.5-375.8,137.5-376.9,140.1-376.9z"/>
	
		<text transform="matrix(0.9554 0.2954 -0.2954 0.9554 162.6303 -408.0616)" class="st2" style="font-family:'Kaleko205Round-Bold'; font-size:29.9999px;">?</text>
</g>
<g id="layer9" transform="translate(0,-272)" inkscape:groupmode="layer" inkscape:label="Sleepy 1" class="st0">
	
		<path id="path6909-5-2" sodipodi:arc-type="arc" sodipodi:cx="144.82416" sodipodi:cy="12.774592" sodipodi:end="0" sodipodi:open="true" sodipodi:rx="12.046841" sodipodi:ry="10.81147" sodipodi:start="4.79068e-05" sodipodi:type="arc" class="st10" d="
		M444.7-462.8c0,16.9-15.3,30.6-34.1,30.6c-18.9,0-34.1-13.7-34.1-30.6c0-16.9,15.3-30.6,34.1-30.6S444.7-479.7,444.7-462.8"/>
	
		<text transform="matrix(0.9132 -0.3214 0.3197 0.9475 389.1652 -442.5265)" class="st2" style="font-family:'Kaleko205Round-Bold'; font-size:22.8226px;">z</text>
	
		<text transform="matrix(0.9389 0.1112 -0.1078 0.9942 395.5537 -450.5641)" class="st2" style="font-family:'Kaleko205Round-Bold'; font-size:34.0437px;">z</text>
	
		<text transform="matrix(0.8944 -0.1124 9.660177e-02 0.9953 412.909 -456.7196)" class="st2" style="font-family:'Kaleko205Round-Bold'; font-size:43.3579px;">z</text>
</g>
<g id="layer10" transform="translate(0,-272)" inkscape:groupmode="layer" inkscape:label="Sleepy 2" class="st0">
	
		<path id="path6909-5-2-6" sodipodi:arc-type="arc" sodipodi:cx="145.18613" sodipodi:cy="36.447483" sodipodi:end="0" sodipodi:open="true" sodipodi:rx="12.046842" sodipodi:ry="10.811471" sodipodi:start="4.79068e-05" sodipodi:type="arc" class="st7" d="
		M445.7-395.7c0,16.9-15.3,30.6-34.1,30.6c-18.9,0-34.1-13.7-34.1-30.6c0-16.9,15.3-30.6,34.1-30.6
		C430.4-426.4,445.7-412.6,445.7-395.7"/>
	
		<text transform="matrix(0.9132 -0.3214 0.3197 0.9475 390.1909 -375.4218)" class="st2" style="font-family:'Kaleko205Round-Bold'; font-size:22.8226px;">z</text>
	
		<text transform="matrix(0.9389 0.1112 -0.1078 0.9942 396.5791 -383.4615)" class="st2" style="font-family:'Kaleko205Round-Bold'; font-size:34.0437px;">z</text>
	
		<text transform="matrix(0.8944 -0.1124 9.660177e-02 0.9953 413.9353 -389.6163)" class="st2" style="font-family:'Kaleko205Round-Bold'; font-size:43.3579px;">z</text>
</g>
<g id="layer11" transform="translate(0,-272)" inkscape:groupmode="layer" inkscape:label="Sleepy 3">
	
		<path id="path6909-5-2-7" sodipodi:arc-type="arc" sodipodi:cx="12.5" sodipodi:cy="284.5" sodipodi:end="0" sodipodi:open="true" sodipodi:rx="11.8675" sodipodi:ry="11.867499" sodipodi:start="4.79068e-05" sodipodi:type="arc" class="st14" d="
		M69.1,307.4c0,18.6-15.1,33.6-33.6,33.6S1.8,326,1.8,307.4c0-18.6,15.1-33.6,33.6-33.6C54,273.8,69.1,288.9,69.1,307.4"/>
	<g class="st15">
		<path class="st16" d="M24.5,325.7l-8.4,3.3c-0.6,0.2-1.3-0.3-1.6-1.1c-0.1-0.4-0.1-0.8,0.1-1.3l3.3-10.3l0,0l-5.1,2
			c-0.6,0.2-1.3-0.2-1.5-1.1c-0.2-0.8,0.1-1.7,0.6-1.9l8.4-3.3c0.6-0.2,1.3,0.3,1.5,1.1c0.1,0.5,0.1,0.9,0,1.3l-3.3,10.3l0,0l5.1-2
			c0.6-0.2,1.3,0.2,1.5,1.1C25.4,324.6,25.1,325.5,24.5,325.7z"/>
	</g>
	<g class="st15">
		<path class="st16" d="M36.2,322.9l-12.8-1.7c-0.9-0.1-1.6-1.3-1.5-2.6c0.1-0.6,0.3-1.2,0.8-1.7l10-11.5l0-0.1l-7.8-1
			c-0.9-0.1-1.6-1.3-1.4-2.6c0.1-1.2,1-2.2,1.9-2.1l12.8,1.7c0.9,0.1,1.6,1.3,1.4,2.6c-0.1,0.7-0.3,1.3-0.7,1.7l-10,11.5l0,0.1
			l7.8,1c0.9,0.1,1.6,1.3,1.4,2.6C38,322,37.1,323,36.2,322.9z"/>
	</g>
	<g class="st15">
		<path class="st16" d="M56.6,311.5L41,313.7c-1.1,0.2-2.2-1.1-2.4-2.7c-0.1-0.8,0.1-1.6,0.6-2.4l9.3-17.6l0-0.1l-9.4,1.3
			c-1.1,0.1-2.1-1-2.3-2.7c-0.1-1.6,0.7-3.1,1.8-3.3l15.6-2.2c1.1-0.1,2.1,1.1,2.3,2.7c0.1,0.9-0.1,1.7-0.5,2.4l-9.3,17.6l0,0.1
			l9.4-1.3c1.1-0.1,2.1,1,2.3,2.7C58.5,309.8,57.7,311.3,56.6,311.5z"/>
	</g>
</g>
<g id="layer13" transform="translate(0,-272)" inkscape:groupmode="layer" inkscape:label="Too Slow 1" class="st0">
	
		<path id="path6909-5-2-5" sodipodi:arc-type="arc" sodipodi:cx="18.708866" sodipodi:cy="70.021355" sodipodi:end="0" sodipodi:open="true" sodipodi:rx="13.650459" sodipodi:ry="12.481905" sodipodi:start="4.79068e-05" sodipodi:type="arc" class="st10" d="
		M91.7-300.5c0,19.5-17.3,35.4-38.7,35.4c-21.4,0-38.7-15.8-38.7-35.4c0-19.5,17.3-35.4,38.7-35.4S91.7-320.1,91.7-300.5"/>
	
		<path id="path7369-1" inkscape:connector-curvature="0" sodipodi:nodetypes="sssscccscccsccccccccccccscscccscccscccccscccsccccsccccscccccccccccccccccccccscccccccccccccccccccccccsccccccsccccccccccccccccsssccccccsccccccccccccsccccccccccsccccccccccscccscscccccc" class="st2" d="
		M54.6-314.4c0-1.5,0-2.1,0-1.4c0,0.8,0,2,0,2.8C54.6-312.2,54.6-312.8,54.6-314.4z M70.5-321.2c-0.2-0.1-0.5-0.4-0.6-0.6
		c-0.7-1.2,0.9-2.5,2.3-1.8c1,0.5,1,1.7,0.2,2.3C71.9-321,71-320.9,70.5-321.2L70.5-321.2z M56.1-321.2c-0.4-0.2-0.9-0.8-0.9-1.2
		c0-0.4,0.5-1,0.9-1.2c1.1-0.6,2.4,0.1,2.4,1.2C58.5-321.3,57.2-320.7,56.1-321.2L56.1-321.2z M22.8-277.8
		C22.2-278,22.9-277.4,22.8-277.8c-0.2-0.8-2.6,0.1-1.8-1.4c1.2-2.4,1-3.4,3.5-4.9l0.8-0.5l-0.5-0.6c-1.1-1.4-1.9-2.9-2.5-4.9
		c-0.3-1-0.3-1.2-0.3-3.3c0-1.7,0-2.4,0.2-3.1c1-4.6,3.3-8.1,7.3-11.1c1.7-1.3,4-2.5,6-3.1c2.3-0.7,6-1.3,8-1.2
		c1.5,0.1,3.6,0.4,5,0.7c1.7,0.4,2.9,0.8,4.4,1.6c0.8,0.4,1.4,0.6,1.5,0.6c0.1,0,0.1-1.5,0.1-4.2v-4.1l-0.7-0.3
		c-1.1-0.5-1.5-0.9-2-1.4c-1-1.1-1.4-2.2-1.4-3.4c0-1,0.2-1.6,0.7-2.5c0.5-1,1.1-1.5,2.1-2.1c1.6-0.9,3.4-1.2,5.2-0.7
		c1,0.2,2.3,1,3,1.7c1.2,1.2,1.8,2.9,1.5,4.3c-0.3,1.7-1.5,3.4-3.1,4.1c-0.9,0.4-0.9,0.3-0.9,1.7c0,0.9,0.1,1.3,0.3,1.7
		c0.3,0.7,1.1,1.4,1.8,1.6c0.6,0.2,0.7,0.2,2.7,0.2c2,0,2.2,0,2.7-0.2c0.7-0.3,1.4-0.9,1.8-1.5c0.3-0.5,0.3-0.6,0.3-1.8l0-1.3
		l-0.8-0.4c-1-0.6-1.7-1.1-2.3-2.1c-1.1-1.7-1.1-3.7,0.1-5.4c0.5-0.8,1-1.2,1.9-1.8c0.9-0.5,1.7-0.8,2.7-0.9
		c2.9-0.3,5.7,1.1,6.8,3.7c0.3,0.8,0.4,2.1,0.2,3c-0.4,1.5-1.7,2.9-3.2,3.6l-0.7,0.3l0,1.8c0,2,0.1,2.6,0.7,4
		c0.4,0.9,1.3,2.5,2.1,3.5c0.8,1,1.1,1.7,1.2,2.9c0.1,2-1,3.8-3,4.8c-0.6,0.3-0.9,0.5-1,0.7c0,0.1-0.1,2-0.1,4.2
		c0,4.2-0.1,4.5-0.6,6.8c-0.4,1.8-1.1,3.1-2.4,5.2c-2.4,3.9-6.1,6.8-10.8,8.7c-2.6,1.1-4.9,1.6-7.9,1.8c-0.8,0.1-6.9,0.1-16.7,0.1
		c-14.7,0-10.4-4.2-10.9-4.3L22.8-277.8z M52.8-274c2.6-0.3,4.4-0.8,6.6-1.7c2.2-0.9,3.7-1.8,5.6-3.3c3.1-2.5,5.4-5.8,6.5-9.4
		c0.6-2,0.7-2.8,0.8-7.4c0-3.3,0.1-4.2,0.2-4.4c0.2-0.3,0.5-0.5,1.5-1c1.6-0.8,2.6-2.6,2.3-4.2c-0.1-0.7-0.5-1.3-1.1-2.2
		c-1.2-1.6-2.3-3.7-2.7-5.3c-0.1-0.4-0.2-1.5-0.2-2.4l-0.1-1.6l-1,0l-1,0l0,0.9c0,1-0.2,2-0.6,2.6c-0.4,0.6-1.4,1.4-2.2,1.7
		l-0.7,0.3l-2.4,0c-2.2,0-2.5,0-3.1-0.2c-0.8-0.3-1.6-0.7-2.2-1.4c-0.8-0.9-1-1.4-1-2.8l-0.1-1.2h-1h-1v4.5v4.5l0.9,0.6
		c2.8,2,5.2,5.3,6.3,8.5c0.6,1.6,0.7,2.5,0.6,3.1c-0.3,1.1-1.1,2-2.3,2.5l-0.7,0.3h-3.1h-3.1l-0.1,0.5c-0.3,2-0.6,3.3-1.5,4.9
		c-1.8,3.6-5.6,6.5-9.8,7.6c-2.4,0.6-2.8,0.7-5,0.7c-1.7,0-2.2,0-3-0.2c-3.5-0.7-5.9-1.8-8.1-3.6l-0.9-0.8l-0.7,0.4
		c-1.6,0.9-3.5,2.6-4.5,4.1c-1.3,2,2.7,1.8,3.2,2.3c0.2,0.2-4,3.1,11.3,3.1C50.6-273.8,51.3-273.8,52.8-274L52.8-274z M40.4-280.3
		c1-0.1,2.8-0.6,3.8-1c1.5-0.5,3.6-1.8,4.8-3c1.6-1.6,2.6-2.9,3.3-4.7c1.4-3.7,1-6.8-1.1-9.4c-2.1-2.5-6-4-9.4-3.5
		c-3.4,0.4-6.2,2.1-7.8,4.8c-1.2,1.8-1.5,4.5-0.8,6.2c0.8,2,2.8,3.5,5,4c0.9,0.2,2.5,0.2,3.4,0c2.2-0.5,4.2-2,5-3.8
		c1.1-2.7,0.4-4.9-1.8-5.6c-0.8-0.2-1.4-0.2-2.2,0c-1.3,0.4-2.1,1.3-2.3,2.5c-0.1,0.7-0.3,1.1-0.7,1.1c-0.8,0-0.9-1.4,0-2.8
		c0.7-1.1,1.9-1.9,3.5-2.1c2.2-0.3,4.4,0.9,5.1,2.7c0.3,0.8,0.3,2.7,0,3.8c-0.5,1.6-1.6,3.1-3.1,4c-1,0.7-2.5,1.2-3.6,1.4
		c-1.2,0.2-3,0.1-4-0.2c-2.8-0.8-4.8-2.6-5.7-5c-0.2-0.6-0.3-1-0.3-2.2c0-1.3,0-1.6,0.3-2.5c0.8-2.8,3.2-5.2,6.2-6.4
		c1.8-0.7,3-0.9,4.9-0.9c1.6,0,2.4,0.1,4,0.6c2.4,0.7,4.8,2.5,6.1,4.5c0.5,0.8,1.1,2.3,1.3,3.1c0.1,0.4,0.2,0.8,0.2,0.8
		c0.1,0.1,5,0.2,5.8,0c1-0.2,1.9-1,2-1.9c0.1-0.9-0.9-3.7-2-5.7c-1.1-1.9-2.9-3.8-4.8-5.2c-1.4-1-3.1-1.9-4.6-2.5
		c-2.4-0.9-5.4-1.5-7.9-1.5c-2.7,0-5.9,0.6-8.4,1.6c-2,0.8-4.6,2.5-6.2,4c-1.5,1.4-3.1,3.8-3.9,5.5c-0.8,1.9-1.4,5.1-1.2,6.9
		c0.3,4.2,2.6,7.7,6.6,10.1c1.5,0.9,4.1,1.8,6,2.1C37-280.2,39.2-280.2,40.4-280.3L40.4-280.3z M58.1-318.1c2.6-0.5,4.2-2.9,3.7-5.2
		c-0.3-1.2-1.5-2.5-2.6-2.9c-1.5-0.6-3.1-0.6-4.6,0c-1.5,0.6-2.7,2.4-2.7,3.9C51.9-319.5,54.9-317.4,58.1-318.1L58.1-318.1z
		 M72.4-318.1c3.4-0.7,5-4.3,2.9-6.8c-0.6-0.7-1.2-1.2-2.2-1.5c-0.7-0.3-0.8-0.3-1.9-0.3c-1,0-1.2,0-1.9,0.3
		c-1.4,0.5-2.4,1.5-2.9,2.8c-0.1,0.4-0.2,0.8-0.1,1.5c0,0.8,0.1,1.1,0.4,1.7C67.8-318.6,70.2-317.6,72.4-318.1L72.4-318.1z"/>
</g>
<g id="layer14" transform="translate(0,-272)" inkscape:groupmode="layer" inkscape:label="Too Slow 2" class="st0">
	
		<path id="path6909-5-2-5-5" sodipodi:arc-type="arc" sodipodi:cx="18.785416" sodipodi:cy="98.29792" sodipodi:end="0" sodipodi:open="true" sodipodi:rx="13.65046" sodipodi:ry="12.481905" sodipodi:start="4.79068e-05" sodipodi:type="arc" class="st7" d="
		M91.9-220.4c0,19.5-17.3,35.4-38.7,35.4c-21.4,0-38.7-15.8-38.7-35.4c0-19.5,17.3-35.4,38.7-35.4C74.6-255.8,91.9-239.9,91.9-220.4
		"/>
	
		<path id="path7369-1-3" inkscape:connector-curvature="0" sodipodi:nodetypes="sssscccscccsccccccccccccscscccscccscccccscccsccccsccccscccccccccccccccccccccscccccccccccccccccccccccsccccccsccccccccccccccccsssccccccsccccccccccccsccccccccccsccccccccccscccscscccccc" class="st2" d="
		M54.8-234.2c0-1.5,0-2.1,0-1.4c0,0.8,0,2,0,2.8C54.8-232.1,54.8-232.7,54.8-234.2z M70.7-241c-0.2-0.1-0.5-0.4-0.6-0.6
		c-0.7-1.2,0.9-2.5,2.3-1.8c1,0.5,1,1.7,0.2,2.3C72.1-240.8,71.2-240.8,70.7-241L70.7-241z M56.3-241c-0.4-0.2-0.9-0.8-0.9-1.2
		c0-0.4,0.5-1,0.9-1.2c1.1-0.6,2.4,0.1,2.4,1.2C58.7-241.2,57.4-240.5,56.3-241L56.3-241z M23-197.6C22.4-197.8,23.1-197.2,23-197.6
		c-0.2-0.8-2.6,0.1-1.8-1.4c1.2-2.4,1-3.4,3.5-4.9l0.8-0.5L25-205c-1.1-1.4-1.9-2.9-2.5-4.9c-0.3-1-0.3-1.2-0.3-3.3
		c0-1.7,0-2.4,0.2-3.1c1-4.6,3.3-8.1,7.3-11.1c1.7-1.3,4-2.5,6-3.1c2.3-0.7,6-1.3,8-1.2c1.5,0.1,3.6,0.4,5,0.7
		c1.7,0.4,2.9,0.8,4.4,1.6c0.8,0.4,1.4,0.6,1.5,0.6c0.1,0,0.1-1.5,0.1-4.2v-4.1l-0.7-0.3c-1.1-0.5-1.5-0.9-2-1.4
		c-1-1.1-1.4-2.2-1.4-3.4c0-1,0.2-1.6,0.7-2.5c0.5-1,1.1-1.5,2.1-2.1c1.6-0.9,3.4-1.2,5.2-0.7c1,0.2,2.3,1,3,1.7
		c1.2,1.2,1.8,2.9,1.5,4.3c-0.3,1.7-1.5,3.4-3.1,4.1c-0.9,0.4-0.9,0.3-0.9,1.7c0,0.9,0.1,1.3,0.3,1.7c0.3,0.7,1.1,1.4,1.8,1.6
		c0.6,0.2,0.7,0.2,2.7,0.2c2,0,2.2,0,2.7-0.2c0.7-0.3,1.4-0.9,1.8-1.5c0.3-0.5,0.3-0.6,0.3-1.8l0-1.3l-0.8-0.4
		c-1-0.6-1.7-1.1-2.3-2.1c-1.1-1.7-1.1-3.7,0.1-5.4c0.5-0.8,1-1.2,1.9-1.8c0.9-0.5,1.7-0.8,2.7-0.9c2.9-0.3,5.7,1.1,6.8,3.7
		c0.3,0.8,0.4,2.1,0.2,3c-0.4,1.5-1.7,2.9-3.2,3.6l-0.7,0.3l0,1.8c0,2,0.1,2.6,0.7,4c0.4,0.9,1.3,2.5,2.1,3.5c0.8,1,1.1,1.7,1.2,2.9
		c0.1,2-1,3.8-3,4.8c-0.6,0.3-0.9,0.5-1,0.7c0,0.1-0.1,2-0.1,4.2c0,4.2-0.1,4.5-0.6,6.8c-0.4,1.8-1.1,3.1-2.4,5.2
		c-2.4,3.9-6.1,6.8-10.8,8.7c-2.6,1.1-4.9,1.6-7.9,1.8c-0.8,0.1-6.9,0.1-16.7,0.1c-14.7,0-10.4-4.2-10.9-4.3L23-197.6z M53-193.8
		c2.6-0.3,4.4-0.8,6.6-1.7c2.2-0.9,3.7-1.8,5.6-3.3c3.1-2.5,5.4-5.8,6.5-9.4c0.6-2,0.7-2.8,0.8-7.4c0-3.3,0.1-4.2,0.2-4.4
		c0.2-0.3,0.5-0.5,1.5-1c1.6-0.8,2.6-2.6,2.3-4.2c-0.1-0.7-0.5-1.3-1.1-2.2c-1.2-1.6-2.3-3.7-2.7-5.3c-0.1-0.4-0.2-1.5-0.2-2.4
		l-0.1-1.6l-1,0l-1,0l0,0.9c0,1-0.2,2-0.6,2.6c-0.4,0.6-1.4,1.4-2.2,1.7l-0.7,0.3l-2.4,0c-2.2,0-2.5,0-3.1-0.2
		c-0.8-0.3-1.6-0.7-2.2-1.4c-0.8-0.9-1-1.4-1-2.8l-0.1-1.2h-1h-1v4.5v4.5l0.9,0.6c2.8,2,5.2,5.3,6.3,8.5c0.6,1.6,0.7,2.5,0.6,3.1
		c-0.3,1.1-1.1,2-2.3,2.5l-0.7,0.3h-3.1h-3.1l-0.1,0.5c-0.3,2-0.6,3.3-1.5,4.9c-1.8,3.6-5.6,6.5-9.8,7.6c-2.4,0.6-2.8,0.7-5,0.7
		c-1.7,0-2.2,0-3-0.2c-3.5-0.7-5.9-1.8-8.1-3.6l-0.9-0.8l-0.7,0.4c-1.6,0.9-3.5,2.6-4.5,4.1c-1.3,2,2.7,1.8,3.2,2.3
		c0.2,0.2-4,3.1,11.3,3.1C50.8-193.6,51.6-193.6,53-193.8L53-193.8z M40.6-200.2c1-0.1,2.8-0.6,3.8-1c1.5-0.5,3.6-1.8,4.8-3
		c1.6-1.6,2.6-2.9,3.3-4.7c1.4-3.7,1-6.8-1.1-9.4c-2.1-2.5-6-4-9.4-3.5c-3.4,0.4-6.2,2.1-7.8,4.8c-1.2,1.8-1.5,4.5-0.8,6.2
		c0.8,2,2.8,3.5,5,4c0.9,0.2,2.5,0.2,3.4,0c2.2-0.5,4.2-2,5-3.8c1.1-2.7,0.4-4.9-1.8-5.6c-0.8-0.2-1.4-0.2-2.2,0
		c-1.3,0.4-2.1,1.3-2.3,2.5c-0.1,0.7-0.3,1.1-0.7,1.1c-0.8,0-0.9-1.4,0-2.8c0.7-1.1,1.9-1.9,3.5-2.1c2.2-0.3,4.4,0.9,5.1,2.7
		c0.3,0.8,0.3,2.7,0,3.8c-0.5,1.6-1.6,3.1-3.1,4c-1,0.7-2.5,1.2-3.6,1.4c-1.2,0.2-3,0.1-4-0.2c-2.8-0.8-4.8-2.6-5.7-5
		c-0.2-0.6-0.3-1-0.3-2.2c0-1.3,0-1.6,0.3-2.5c0.8-2.8,3.2-5.2,6.2-6.4c1.8-0.7,3-0.9,4.9-0.9c1.6,0,2.4,0.1,4,0.6
		c2.4,0.7,4.8,2.5,6.1,4.5c0.5,0.8,1.1,2.3,1.3,3.1c0.1,0.4,0.2,0.8,0.2,0.8c0.1,0.1,5,0.2,5.8,0c1-0.2,1.9-1,2-1.9
		c0.1-0.9-0.9-3.7-2-5.7c-1.1-1.9-2.9-3.8-4.8-5.2c-1.4-1-3.1-1.9-4.6-2.5c-2.4-0.9-5.4-1.5-7.9-1.5c-2.7,0-5.9,0.6-8.4,1.6
		c-2,0.8-4.6,2.5-6.2,4c-1.5,1.4-3.1,3.8-3.9,5.5c-0.8,1.9-1.4,5.1-1.2,6.9c0.3,4.2,2.6,7.7,6.6,10.1c1.5,0.9,4.1,1.8,6,2.1
		C37.2-200,39.4-200,40.6-200.2L40.6-200.2z M58.3-237.9c2.6-0.5,4.2-2.9,3.7-5.2c-0.3-1.2-1.5-2.5-2.6-2.9c-1.5-0.6-3.1-0.6-4.6,0
		c-1.5,0.6-2.7,2.4-2.7,3.9C52.1-239.4,55.1-237.3,58.3-237.9L58.3-237.9z M72.6-237.9c3.4-0.7,5-4.3,2.9-6.8
		c-0.6-0.7-1.2-1.2-2.2-1.5c-0.7-0.3-0.8-0.3-1.9-0.3c-1,0-1.2,0-1.9,0.3c-1.4,0.5-2.4,1.5-2.9,2.8c-0.1,0.4-0.2,0.8-0.1,1.5
		c0,0.8,0.1,1.1,0.4,1.7C68-238.5,70.4-237.4,72.6-237.9z"/>
</g>
<g id="layer15" transform="translate(0,-272)" inkscape:groupmode="layer" inkscape:label="Too Slow 3" class="st0">
	
		<path id="path6909-5-2-5-2" sodipodi:arc-type="arc" sodipodi:cx="49.514881" sodipodi:cy="70.686752" sodipodi:end="0" sodipodi:open="true" sodipodi:rx="13.65046" sodipodi:ry="12.481905" sodipodi:start="4.79068e-05" sodipodi:type="arc" class="st8" d="
		M179.1-298.7c0,19.5-17.3,35.4-38.7,35.4c-21.4,0-38.7-15.8-38.7-35.4c0-19.5,17.3-35.4,38.7-35.4
		C161.7-334,179.1-318.2,179.1-298.7"/>
	
		<path id="path7369-5" inkscape:connector-curvature="0" sodipodi:nodetypes="sssscccccccscccccccccccccsccsccscccscccccccccsccsccccccccsccccccscccccccccsccccccccccccccccccccccccccccccccccccccccccccccccccsccccccccsccccccccccccccccccscccccccccccccccscccccscccccc" class="st9" d="
		M144.4-313.6c0-1.6,0-2.2,0-1.4s0,2.1,0,2.9C144.4-311.4,144.4-312,144.4-313.6z M161.1-320.7c-0.2-0.1-0.5-0.4-0.6-0.6
		c-0.8-1.2,1-2.6,2.4-1.9c1,0.5,1.1,1.7,0.2,2.4C162.6-320.4,161.6-320.4,161.1-320.7L161.1-320.7z M145.9-320.6
		c-0.5-0.2-1-0.8-1-1.2c0-0.4,0.5-1.1,0.9-1.3c1.1-0.6,2.5,0.1,2.5,1.3C148.4-320.8,147.1-320.1,145.9-320.6L145.9-320.6z
		 M107-270.5c-0.6-0.2,3.2-2.6,3.1-3c-0.2-0.8-3.9-2.5-3.1-4.1c1.2-2.5,3-3.1,5.6-4.6l0.8-0.5l-0.5-0.7c-1.2-1.4-2-3-2.6-5.1
		c-0.3-1.1-0.3-1.2-0.3-3.4c0-1.8,0-2.5,0.2-3.2c1.1-4.8,3.5-8.4,7.7-11.5c1.8-1.3,4.3-2.5,6.4-3.2c2.5-0.8,6.3-1.3,8.4-1.2
		c1.5,0.1,3.8,0.4,5.3,0.7c1.7,0.4,3,0.9,4.7,1.6c0.8,0.4,1.5,0.7,1.6,0.6c0.1,0,0.1-1.5,0.1-4.3v-4.2l-0.7-0.3
		c-1.1-0.6-1.6-0.9-2.1-1.5c-1-1.2-1.4-2.2-1.4-3.6c0-1,0.2-1.6,0.7-2.6c0.6-1,1.2-1.6,2.2-2.2c1.6-1,3.6-1.2,5.5-0.8
		c1,0.3,2.4,1,3.1,1.7c1.2,1.2,1.9,3,1.6,4.4c-0.3,1.8-1.6,3.5-3.2,4.2c-1,0.4-0.9,0.4-0.9,1.7c0,1,0.1,1.3,0.3,1.7
		c0.3,0.7,1.2,1.4,1.9,1.7c0.6,0.2,0.8,0.2,2.9,0.2c2.1,0,2.3,0,2.8-0.2c0.7-0.3,1.5-0.9,1.9-1.6c0.3-0.5,0.3-0.7,0.4-1.9l0-1.3
		l-0.8-0.4c-1.1-0.6-1.8-1.2-2.4-2.1c-1.1-1.8-1.1-3.8,0.1-5.6c0.5-0.8,1.1-1.3,2-1.8c0.9-0.6,1.8-0.9,2.9-1c3.1-0.4,6,1.2,7.2,3.8
		c0.4,0.8,0.4,2.2,0.2,3.1c-0.4,1.5-1.7,3-3.3,3.7l-0.7,0.3l0,1.9c0,2,0.1,2.7,0.7,4.2c0.4,1,1.4,2.6,2.2,3.6c0.9,1.1,1.2,1.8,1.2,3
		c0.1,2.1-1,3.9-3.2,5c-0.6,0.3-1,0.6-1,0.7c0,0.1-0.1,2.1-0.1,4.4c-0.1,4.3-0.1,4.7-0.7,7c-0.5,1.8-1.1,3.2-2.5,5.4
		c-2.6,4-6.4,7.1-11.4,9c-2.8,1.1-5.2,1.6-8.3,1.9c-0.8,0.1-7.3,0.1-17.6,0.1C108.2-270.3,107.4-270.3,107-270.5L107-270.5z
		 M142.4-271.7c2.7-0.3,4.6-0.8,6.9-1.7c2.4-1,3.9-1.9,5.9-3.4c3.3-2.6,5.7-6,6.9-9.7c0.6-2.1,0.7-2.9,0.8-7.7
		c0.1-3.4,0.1-4.4,0.2-4.6c0.2-0.3,0.5-0.5,1.6-1c1.7-0.9,2.7-2.7,2.4-4.3c-0.1-0.7-0.5-1.4-1.2-2.3c-1.3-1.6-2.4-3.8-2.8-5.5
		c-0.1-0.5-0.2-1.6-0.3-2.5l-0.1-1.7l-1.1,0l-1.1,0l0,0.9c0,1.1-0.2,2-0.6,2.6c-0.4,0.6-1.4,1.4-2.3,1.8l-0.8,0.3l-2.6,0
		c-2.4,0-2.6,0-3.2-0.2c-0.9-0.3-1.7-0.7-2.3-1.4c-0.8-0.9-1-1.4-1.1-2.9l-0.1-1.3h-1.1h-1.1v4.6v4.6l0.9,0.7
		c2.9,2.1,5.5,5.4,6.7,8.9c0.6,1.7,0.8,2.6,0.6,3.2c-0.3,1.2-1.1,2.1-2.4,2.6l-0.7,0.3h-3.3h-3.3l-0.1,0.5c-0.3,2-0.7,3.4-1.6,5.1
		c-1.9,3.7-5.9,6.8-10.4,7.9c-2.5,0.7-2.9,0.7-5.3,0.7c-1.8,0-2.3,0-3.2-0.2c-3.7-0.8-6.2-1.8-8.5-3.7l-1-0.8l-2.7,1.3
		c-1.7,0.9-3.2,1.9-4.2,3.5c-1.4,2.1,4.6,4.9,5.2,5.4c0.2,0.2-4.6,0,11.4,0C140.1-271.5,140.9-271.5,142.4-271.7L142.4-271.7z
		 M129.3-278.3c1-0.1,2.9-0.6,4.1-1c1.6-0.6,3.8-1.9,5.1-3.1c1.7-1.6,2.7-3.1,3.5-4.9c1.5-3.8,1.1-7-1.2-9.8
		c-2.2-2.6-6.3-4.1-9.9-3.7c-3.6,0.4-6.5,2.2-8.3,4.9c-1.2,1.9-1.6,4.6-0.8,6.4c0.9,2,3,3.7,5.3,4.1c0.9,0.2,2.7,0.2,3.6,0
		c2.4-0.5,4.5-2.1,5.2-3.9c1.2-2.8,0.4-5.1-1.9-5.8c-0.9-0.3-1.4-0.3-2.3,0c-1.4,0.4-2.3,1.4-2.4,2.6c-0.1,0.8-0.4,1.1-0.8,1.1
		c-0.9,0-0.9-1.5-0.1-2.9c0.7-1.1,2-1.9,3.7-2.2c2.3-0.3,4.6,0.9,5.4,2.8c0.3,0.8,0.3,2.8,0,3.9c-0.5,1.7-1.7,3.2-3.3,4.2
		c-1.1,0.7-2.7,1.3-3.8,1.4c-1.3,0.2-3.2,0.1-4.2-0.2c-2.9-0.8-5.1-2.7-6-5.2c-0.2-0.6-0.3-1-0.3-2.3c0-1.3,0-1.7,0.3-2.6
		c0.9-2.9,3.4-5.4,6.6-6.7c1.9-0.7,3.2-1,5.2-1c1.7,0,2.5,0.1,4.2,0.6c2.5,0.7,5.1,2.6,6.4,4.7c0.5,0.8,1.2,2.4,1.3,3.2
		c0.1,0.4,0.2,0.8,0.3,0.9c0.1,0.1,5.3,0.2,6.1,0c1.1-0.2,2-1,2.1-1.9c0.1-0.9-0.9-3.9-2.2-5.9c-1.2-2-3.1-3.9-5.1-5.4
		c-1.5-1.1-3.3-2-4.9-2.6c-2.5-0.9-5.7-1.5-8.4-1.5c-2.8,0-6.2,0.6-8.9,1.7c-2.1,0.8-4.9,2.6-6.6,4.2c-1.6,1.5-3.3,3.9-4.1,5.7
		c-0.8,2-1.4,5.2-1.3,7.1c0.4,4.4,2.7,8,6.9,10.5c1.6,0.9,4.3,1.9,6.4,2.2C125.8-278.1,128.1-278.1,129.3-278.3L129.3-278.3z
		 M148-317.4c2.7-0.5,4.5-3,3.9-5.4c-0.3-1.2-1.5-2.6-2.7-3.1c-1.5-0.6-3.3-0.6-4.8,0c-1.6,0.6-2.9,2.4-2.9,4.1
		C141.5-318.9,144.7-316.8,148-317.4z M163.1-317.4c3.6-0.8,5.2-4.4,3.1-7c-0.6-0.7-1.3-1.2-2.3-1.6c-0.7-0.3-0.9-0.3-2-0.3
		c-1.1,0-1.3,0-2,0.3c-1.5,0.5-2.5,1.5-3,2.9c-0.2,0.4-0.2,0.8-0.1,1.5c0,0.9,0.1,1.1,0.5,1.7C158.2-318,160.8-316.9,163.1-317.4
		L163.1-317.4z"/>
</g>
<g id="layer16" transform="translate(0,-272)" inkscape:groupmode="layer" inkscape:label="Too Slow 4" class="st0">
	
		<path id="path6909-5-2-5-2-9" sodipodi:arc-type="arc" sodipodi:cx="50.233311" sodipodi:cy="97.937653" sodipodi:end="0" sodipodi:open="true" sodipodi:rx="13.650461" sodipodi:ry="12.481905" sodipodi:start="4.79068e-05" sodipodi:type="arc" class="st8" d="
		M181.1-221.4c0,19.5-17.3,35.4-38.7,35.4c-21.4,0-38.7-15.8-38.7-35.4c0-19.5,17.3-35.4,38.7-35.4S181.1-240.9,181.1-221.4"/>
	
		<path id="path7369-5-7" inkscape:connector-curvature="0" sodipodi:nodetypes="sssscccccccccsccsccscccscccccccccsccsccccccccsccccccscccccccccsccccccccccccccccccccccccccccccccccccccccccccccccccsccccccccsccccccccccccccccccscccccccccccccccscccccscccccc" class="st9" d="
		M146.4-236.3c0-1.6,0-2.2,0-1.4c0,0.8,0,2.1,0,2.9C146.4-234.1,146.4-234.8,146.4-236.3z M109-193.2c-0.6-0.2,3.2-2.6,3.1-3
		c-0.2-0.8-3.9-2.5-3.1-4.1c1.2-2.5,3-3.1,5.6-4.6l0.8-0.5l-0.5-0.7c-1.2-1.4-2-3-2.6-5.1c-0.3-1.1-0.3-1.2-0.3-3.4
		c0-1.8,0-2.5,0.2-3.2c1.1-4.8,3.5-8.4,7.7-11.5c1.8-1.3,4.3-2.5,6.4-3.2c2.5-0.8,6.3-1.3,8.4-1.2c1.5,0.1,3.8,0.4,5.3,0.7
		c1.7,0.4,3,0.9,4.7,1.6c0.8,0.4,1.5,0.7,1.6,0.6c0.1,0,0.1-1.5,0.1-4.3v-4.2l-0.7-0.3c-1.1-0.6-1.6-0.9-2.1-1.5
		c-1-1.2-1.4-2.2-1.4-3.6c0-1,0.2-1.6,0.7-2.6c0.6-1,1.2-1.6,2.2-2.2c1.6-1,3.6-1.2,5.5-0.8c1,0.3,2.4,1,3.1,1.7
		c1.2,1.2,1.9,3,1.6,4.4c-0.3,1.8-1.6,3.5-3.2,4.2c-1,0.4-0.9,0.4-0.9,1.7c0,1,0.1,1.3,0.3,1.7c0.3,0.7,1.2,1.4,1.9,1.7
		c0.6,0.2,0.8,0.2,2.9,0.2c2.1,0,2.3,0,2.8-0.2c0.7-0.3,1.5-0.9,1.9-1.6c0.3-0.5,0.3-0.7,0.4-1.9l0-1.3l-0.8-0.4
		c-1.1-0.6-1.8-1.2-2.4-2.1c-1.1-1.8-1.1-3.8,0.1-5.6c0.5-0.8,1.1-1.3,2-1.8c0.9-0.6,1.8-0.9,2.9-1c3.1-0.4,6,1.2,7.2,3.8
		c0.4,0.8,0.4,2.2,0.2,3.1c-0.4,1.5-1.7,3-3.3,3.7l-0.7,0.3l0,1.9c0,2,0.1,2.7,0.7,4.2c0.4,1,1.4,2.6,2.2,3.6c0.9,1.1,1.2,1.8,1.2,3
		c0.1,2.1-1,3.9-3.2,5c-0.6,0.3-1,0.6-1,0.7c0,0.1-0.1,2.1-0.1,4.4c-0.1,4.3-0.1,4.7-0.7,7c-0.5,1.8-1.1,3.2-2.5,5.4
		c-2.6,4-6.4,7.1-11.4,9c-2.8,1.1-5.2,1.6-8.3,1.9c-0.8,0.1-7.3,0.1-17.6,0.1C110.3-193.1,109.5-193.1,109-193.2L109-193.2z
		 M144.5-194.5c2.7-0.3,4.6-0.8,6.9-1.7c2.4-1,3.9-1.9,5.9-3.4c3.3-2.6,5.7-6,6.9-9.7c0.6-2.1,0.7-2.9,0.8-7.7
		c0.1-3.4,0.1-4.4,0.2-4.6c0.2-0.3,0.5-0.5,1.6-1c1.7-0.9,2.7-2.7,2.4-4.3c-0.1-0.7-0.5-1.4-1.2-2.3c-1.3-1.6-2.4-3.8-2.8-5.5
		c-0.1-0.5-0.2-1.6-0.3-2.5l-0.1-1.7l-1.1,0l-1.1,0l0,0.9c0,1.1-0.2,2-0.6,2.6c-0.4,0.6-1.4,1.4-2.3,1.8l-0.8,0.3l-2.6,0
		c-2.4,0-2.6,0-3.2-0.2c-0.9-0.3-1.7-0.7-2.3-1.4c-0.8-0.9-1-1.4-1.1-2.9l-0.1-1.3h-1.1h-1.1v4.6v4.6l0.9,0.7
		c2.9,2.1,5.5,5.4,6.7,8.9c0.6,1.7,0.8,2.6,0.6,3.2c-0.3,1.2-1.1,2.1-2.4,2.6l-0.7,0.3h-3.3h-3.3l-0.1,0.5c-0.3,2-0.7,3.4-1.6,5.1
		c-1.9,3.7-5.9,6.8-10.4,7.9c-2.5,0.7-2.9,0.7-5.3,0.7c-1.8,0-2.3,0-3.2-0.2c-3.7-0.8-6.2-1.8-8.5-3.7l-1-0.8l-2.7,1.3
		c-1.7,0.9-3.2,1.9-4.2,3.5c-1.4,2.1,4.6,4.9,5.2,5.4c0.2,0.2-4.6,0,11.4,0C142.2-194.3,142.9-194.3,144.5-194.5L144.5-194.5z
		 M131.4-201c1-0.1,2.9-0.6,4.1-1c1.6-0.6,3.8-1.9,5.1-3.1c1.7-1.6,2.7-3.1,3.5-4.9c1.5-3.8,1.1-7-1.2-9.8c-2.2-2.6-6.3-4.1-9.9-3.7
		c-3.6,0.4-6.5,2.2-8.3,4.9c-1.2,1.9-1.6,4.6-0.8,6.4c0.9,2,3,3.7,5.3,4.1c0.9,0.2,2.7,0.2,3.6,0c2.4-0.5,4.5-2.1,5.2-3.9
		c1.2-2.8,0.4-5.1-1.9-5.8c-0.9-0.3-1.4-0.3-2.3,0c-1.4,0.4-2.3,1.4-2.4,2.6c-0.1,0.8-0.4,1.1-0.8,1.1c-0.9,0-0.9-1.5-0.1-2.9
		c0.7-1.1,2-1.9,3.7-2.2c2.3-0.3,4.6,0.9,5.4,2.8c0.3,0.8,0.3,2.8,0,3.9c-0.5,1.7-1.7,3.2-3.3,4.2c-1.1,0.7-2.7,1.3-3.8,1.4
		c-1.3,0.2-3.2,0.1-4.2-0.2c-2.9-0.8-5.1-2.7-6-5.2c-0.2-0.6-0.3-1-0.3-2.3c0-1.3,0-1.7,0.3-2.6c0.9-2.9,3.4-5.4,6.6-6.7
		c1.9-0.7,3.2-1,5.2-1c1.7,0,2.5,0.1,4.2,0.6c2.5,0.7,5.1,2.6,6.4,4.7c0.5,0.8,1.2,2.4,1.3,3.2c0.1,0.4,0.2,0.8,0.3,0.9
		c0.1,0.1,5.3,0.2,6.1,0c1.1-0.2,2-1,2.1-1.9c0.1-0.9-0.9-3.9-2.2-5.9c-1.2-2-3.1-3.9-5.1-5.4c-1.5-1.1-3.3-2-4.9-2.6
		c-2.5-0.9-5.7-1.5-8.4-1.5c-2.8,0-6.2,0.6-8.9,1.7c-2.1,0.8-4.9,2.6-6.6,4.2c-1.6,1.5-3.3,3.9-4.1,5.7c-0.8,2-1.4,5.2-1.3,7.1
		c0.4,4.4,2.7,8,6.9,10.5c1.6,0.9,4.3,1.9,6.4,2.2C127.8-200.9,130.2-200.9,131.4-201L131.4-201z M150-240.2c2.7-0.5,4.5-3,3.9-5.4
		c-0.3-1.2-1.5-2.6-2.7-3.1c-1.5-0.6-3.3-0.6-4.8,0c-1.6,0.6-2.9,2.4-2.9,4.1C143.5-241.7,146.7-239.5,150-240.2z M165.2-240.2
		c3.6-0.8,5.2-4.4,3.1-7c-0.6-0.7-1.3-1.2-2.3-1.6c-0.7-0.3-0.9-0.3-2-0.3c-1.1,0-1.3,0-2,0.3c-1.5,0.5-2.5,1.5-3,2.9
		c-0.2,0.4-0.2,0.8-0.1,1.5c0,0.9,0.1,1.1,0.5,1.7C160.3-240.7,162.8-239.7,165.2-240.2L165.2-240.2z"/>
</g>
<g id="layer17" transform="translate(0,-272)" inkscape:groupmode="layer" inkscape:label="Warning 1" class="st0">
	
		<path id="path6909-5-0" sodipodi:arc-type="arc" sodipodi:cx="84.751167" sodipodi:cy="71.090439" sodipodi:end="0" sodipodi:open="true" sodipodi:rx="14.015892" sodipodi:ry="13.385468" sodipodi:start="4.79068e-05" sodipodi:type="arc" class="st10" d="
		M280-297.5c0,21-17.8,37.9-39.7,37.9c-21.9,0-39.7-17-39.7-37.9c0-21,17.8-37.9,39.7-37.9S280-318.5,280-297.5"/>
	<path id="path7505-4" inkscape:connector-curvature="0" sodipodi:nodetypes="cccc" class="st17" d="M239.8-330
		c-3.1-1.8-31.9,47-30.1,49.6c-0.2,3.7,58.8,4.4,58,1.4C268.5-283.1,246.1-331.1,239.8-330L239.8-330z"/>
	
		<text transform="matrix(1.1474 0 0 1 233.7197 -283.0723)" class="st2" style="font-family:'Kaleko205Round-Bold'; font-size:48.693px;">!</text>
</g>
<g id="layer18" transform="translate(0,-272)" inkscape:groupmode="layer" inkscape:label="Warning 2" class="st0">
	
		<path id="path6909-5-0-1" sodipodi:arc-type="arc" sodipodi:cx="85.312431" sodipodi:cy="99.80854" sodipodi:end="0" sodipodi:open="true" sodipodi:rx="14.015892" sodipodi:ry="13.385468" sodipodi:start="4.79068e-05" sodipodi:type="arc" class="st7" d="
		M281.6-216.1c0,21-17.8,37.9-39.7,37.9c-21.9,0-39.7-17-39.7-37.9s17.8-37.9,39.7-37.9S281.6-237.1,281.6-216.1"/>
	<path id="path7505-4-1" inkscape:connector-curvature="0" sodipodi:nodetypes="cccc" class="st17" d="M241.4-248.6
		c-3.1-1.8-31.9,47-30.1,49.6c-0.2,3.7,58.8,4.4,58,1.4C270.1-201.7,247.7-249.7,241.4-248.6z"/>
	
		<text transform="matrix(1.1474 0 0 1 235.3115 -201.666)" class="st2" style="font-family:'Kaleko205Round-Bold'; font-size:48.693px;">!</text>
</g>
<g id="layer19" transform="translate(0,-272)" inkscape:groupmode="layer" inkscape:label="Warning 3" class="st0">
	<path id="path7505-4-15-7" inkscape:connector-curvature="0" sodipodi:nodetypes="cccc" class="st17" d="M339.5-339
		c-3.7-2.3-38.5,61.6-36.4,65.1c-0.3,4.8,71.1,5.8,70.2,1.8C374.2-277.5,347-340.4,339.5-339L339.5-339z"/>
	
		<text transform="matrix(1.0592 0 0 1 332.0859 -277.4912)" class="st2" style="font-family:'Kaleko205Round-Bold'; font-size:63.8157px;">!</text>
</g>
<g id="layer20" transform="translate(0,-272)" inkscape:groupmode="layer" inkscape:label="Warning 4" class="st0">
	<path id="path7505-4-15-7-9" inkscape:connector-curvature="0" sodipodi:nodetypes="cccc" class="st18" d="M340.3-258.7
		c-3.7-2.3-38.5,61.6-36.4,65.1c-0.3,4.8,71.1,5.8,70.2,1.8C375-197.1,347.9-260.1,340.3-258.7L340.3-258.7z"/>
	
		<text transform="matrix(1.0592 0 0 1 332.9287 -197.1475)" class="st9" style="font-family:'Kaleko205Round-Bold'; font-size:63.8157px;">!</text>
</g>
<g id="layer21" transform="translate(0,-272)" inkscape:groupmode="layer" inkscape:label="Warning 5" class="st0">
	<path id="path7505-4-15-7-9-1" inkscape:connector-curvature="0" sodipodi:nodetypes="cccc" class="st18" d="M445.3-262.1
		c-3.7-2.3-38.5,61.6-36.4,65.1c-0.3,4.8,71.1,5.8,70.2,1.8C480-200.6,452.9-263.5,445.3-262.1z"/>
	
		<text transform="matrix(1.0592 0 0 1 431.6094 -198.9111)" class="st9" style="font-family:'Kaleko205Round-Bold'; font-size:63.8157px;">!</text>
</g>
<g id="layer22" transform="translate(0,-272)" inkscape:groupmode="layer" inkscape:label="Warning 6" class="st0">
	
		<path id="path6909-5-0-1-6" sodipodi:arc-type="arc" sodipodi:cx="82.78756" sodipodi:cy="136.95428" sodipodi:end="0" sodipodi:open="true" sodipodi:rx="14.015892" sodipodi:ry="13.385468" sodipodi:start="4.79068e-05" sodipodi:type="arc" class="st7" d="
		M274.4-110.8c0,21-17.8,37.9-39.7,37.9c-21.9,0-39.7-17-39.7-37.9c0-21,17.8-37.9,39.7-37.9S274.4-131.8,274.4-110.8"/>
	<path id="path7505-4-1-7" inkscape:connector-curvature="0" sodipodi:nodetypes="cccc" class="st17" d="M234.2-143.3
		c-3.1-1.8-31.9,47-30.1,49.6c-0.2,3.7,58.8,4.4,58,1.4C262.9-96.4,240.5-144.4,234.2-143.3L234.2-143.3z"/>
	
		<text transform="matrix(1.1474 0 0 1 224.1309 -96.3711)" class="st2" style="font-family:'Kaleko205Round-Bold'; font-size:48.693px;">!</text>
</g>
<g id="layer23" transform="translate(0,-272)" inkscape:groupmode="layer" inkscape:label="Warning 7" class="st0">
	<path id="path7505-4-15" inkscape:connector-curvature="0" sodipodi:nodetypes="cccc" class="st19" d="M350.1-145.1
		c-3.6-2.1-37.4,56.5-35.3,59.7c-0.3,4.4,69,5.3,68.1,1.6C383.7-88.6,357.4-146.3,350.1-145.1L350.1-145.1z"/>
	
		<text transform="matrix(1.1191 0 0 1 342.9092 -88.6016)" class="st2" style="font-family:'Kaleko205Round-Bold'; font-size:58.5577px;">!</text>
</g>
<g id="layer24" transform="translate(0,-272)" inkscape:groupmode="layer" inkscape:label="Warning 8" class="st0">
	<path id="path7505-4-15-2" inkscape:connector-curvature="0" sodipodi:nodetypes="cccc" class="st20" d="M451.8-153.4
		c-4.3-2.3-44,62-41.6,65.4c-0.3,4.9,81.3,5.8,80.2,1.8C491.4-91.4,460.5-154.7,451.8-153.4z"/>
	
		<text transform="matrix(1.203 0 0 1 437.8242 -90.5654)" class="st2" style="font-family:'Kaleko205Round-Bold'; font-size:64.1895px;">!</text>
</g>
</svg>
